<!DOCTYPE svg PUBLIC "-//W3C//DTD SVG 1.1//EN" "http://www.w3.org/Graphics/SVG/1.1/DTD/svg11.dtd">
<svg version="1.1" xmlns="http://www.w3.org/2000/svg" x="0px" y="0px" viewBox="0 -10 850 740">
	<defs>
		<style>
			.fade1 {
				animation-name: fade1;
				animation-timing-function: linear;
				animation-iteration-count: infinite;
				animation-duration: 17s;
			}
			@keyframes fade1 {
			  0% {
			    opacity: 0.3;
			  }
			  36% {
			    opacity: .075;
			  }
			  60% {
			    opacity: .4;
			  }
			  90% {
			    opacity: .2;
			  }
			  100% {
			    opacity: 0.3;
			  }
			}
			.fade2 {
				animation-name: fade2;
				animation-timing-function: linear;
				animation-iteration-count: infinite;
				animation-duration: 21s;
			}
			@keyframes fade2 {
			  0% {
			    opacity: 0.8;
			  }
			  36% {
			    opacity: .3;
			  }
			  60% {
			    opacity: .9;
			  }
			  90% {
			    opacity: .4;
			  }
			  100% {
			    opacity: 0.8;
			  }
			}
			.fade3 {
				animation-name: fade3;
				animation-timing-function: linear;
				animation-iteration-count: infinite;
				animation-duration: 26s;
			}
			@keyframes fade3 {
			  0% {
			    opacity: 0.5;
			  }
			  36% {
			    opacity: .75;
			  }
			  60% {
			    opacity: .3;
			  }
			  90% {
			    opacity: .6;
			  }
			  100% {
			    opacity: 0.5;
			  }
			}
			.trans11,
			.trans12,
			.trans13,
			.trans14,
			.trans15,
			.trans16,
			.trans17,
			.trans18,
			.trans19 {
				animation-name: trans1;
				animation-iteration-count: infinite;
			}
			.trans11 {
				animation-delay: 2s;
				animation-timing-function: linear;
				animation-duration: 11s;
			}
			.trans12 {
				animation-timing-function: ease-in-out;
				animation-duration: 13s;
			}
			.trans13 {
				animation-delay: 3s;
				animation-timing-function: ease-out;
				animation-duration: 17s;
			}
			.trans14 {
				animation-timing-function: ease-in;
				animation-duration: 19s;
			}
			.trans15 {
				animation-delay: 5s;
				animation-timing-function: ease-in-out;
				animation-duration: 21s;
			}
			.trans16 {
				animation-timing-function: ease-in;
				animation-duration: 23s;
			}
			.trans17 {
				animation-delay: 6s;
				animation-timing-function: ease-out;
				animation-duration: 28s;
			}
			.trans18 {
				animation-timing-function: ease-in;
				animation-duration: 31s;
			}
			.trans19 {
				animation-timing-function: ease-in-out;
				animation-duration: 37s;
			}
			@keyframes trans1 {
			  0% {
			    transform: translate(0);
			  }
			  15% {
			    transform: translate(-10px, 20px);
			  }
			  30% {
			    transform: translate(15px, 10px);
			  }
			  45% {
			    transform: translate(20px, -9px);
			  }
			  60% {
			    transform: translate(22px, 3px);
			  }
			  75% {
			    transform: translate(2px, 18px);
			  }
			  90% {
			    transform: translate(12px, -16px);
			  }
			  100% {
			    transform: translateX(0);
			  }
			}
			.trans21,
			.trans22,
			.trans23,
			.trans24,
			.trans25,
			.trans26,
			.trans27,
			.trans28,
			.trans29 {
				animation-name: trans2;
				animation-iteration-count: infinite;
			}
			.trans21 {
				animation-delay: 8s;
				animation-timing-function: linear;
				animation-duration: 9s;
			}
			.trans22 {
				animation-timing-function: ease-in-out;
				animation-duration: 12s;
			}
			.trans23 {
				animation-delay: 9s;
				animation-timing-function: ease-out;
				animation-duration: 17s;
			}
			.trans24 {
				animation-timing-function: ease-in;
				animation-duration: 20s;
			}
			.trans25 {
				animation-delay: 5s;
				animation-timing-function: ease-in-out;
				animation-duration: 21s;
			}
			.trans26 {
				animation-timing-function: ease-in;
				animation-duration: 23s;
			}
			.trans27 {
				animation-delay: 2s;
				animation-delay: 6s;
				animation-timing-function: ease-out;
				animation-duration: 28s;
			}
			.trans28 {
				animation-timing-function: ease-in;
				animation-duration: 31s;
			}
			.trans29 {
				animation-delay: 1s;
				animation-timing-function: ease-in-out;
				animation-duration: 41s;
			}
			@keyframes trans2 {
			  0% {
			    transform: translate(0);
			  }
			  15% {
			    transform: translate(12px, 10px);
			  }
			  30% {
			    transform: translate(-15px, 16px);
			  }
			  45% {
			    transform: translate(-20px, 9px);
			  }
			  60% {
			    transform: translate(22px, 10px);
			  }
			  75% {
			    transform: translate(2px, -18px);
			  }
			  90% {
			    transform: translate(-12px, 18px);
			  }
			  100% {
			    transform: translateX(0);
			  }
			}
			.trans31,
			.trans32,
			.trans33,
			.trans34,
			.trans35,
			.trans36,
			.trans37,
			.trans38,
			.trans39 {
				animation-name: trans2;
				animation-iteration-count: infinite;
			}
			.trans31 {
				animation-delay: 8s;
				animation-timing-function: linear;
				animation-duration: 9s;
			}
			.trans32 {
				animation-timing-function: ease-in-out;
				animation-duration: 12s;
			}
			.trans33 {
				animation-delay: 9s;
				animation-timing-function: ease-out;
				animation-duration: 17s;
			}
			.trans34 {
				animation-delay: 5s;
				animation-timing-function: ease-in;
				animation-duration: 10s;
			}
			.trans35 {
				animation-delay: 5s;
				animation-timing-function: ease-in-out;
				animation-duration: 21s;
			}
			.trans36 {
				animation-timing-function: ease-in;
				animation-duration: 24s;
			}
			.trans37 {
				animation-delay: 1s;
				animation-delay: 6s;
				animation-timing-function: ease-out;
				animation-duration: 28s;
			}
			.trans38 {
				animation-timing-function: ease-in;
				animation-duration: 31s;
			}
			.trans39 {
				animation-delay: 1s;
				animation-timing-function: ease-in-out;
				animation-duration: 11s;
			}
			@keyframes trans3 {
			  0% {
			    transform: translate(0);
			  }
			  15% {
			    transform: translate(-12px, 10px);
			  }
			  30% {
			    transform: translate(15px, 16px);
			  }
			  45% {
			    transform: translate(-10px, 9px);
			  }
			  60% {
			    transform: translate(9px, 17px);
			  }
			  75% {
			    transform: translate(12px, -15px);
			  }
			  90% {
			    transform: translate(-6px, 15px);
			  }
			  100% {
			    transform: translateX(0);
			  }
			}
		</style>
	</defs>
	<g class="fade1" style="fill:#FFFFFF;">
		<polygon class="trans11" points="214.268,259.567 181.046,278.75 147.82,259.567 147.82,221.205 181.046,202.024 214.268,221.205 	"/>
		<path class="trans31" d="M749.397,233.978l72.243,41.711v83.417l-72.243,41.711l-72.255-41.713v-83.414L749.397,233.978 M749.397,223.851l-81.025,46.776v93.543l81.025,46.776l81.014-46.776v-93.543L749.397,223.851L749.397,223.851z"/>
		<path class="trans32" d="M347.285,207.636l27.138,15.665v31.334l-27.138,15.667l-27.141-15.667v-31.334L347.285,207.636 M347.285,203.832l-30.435,17.567v35.139l30.435,17.569l30.432-17.569v-35.139L347.285,203.832L347.285,203.832z"/>
		<path class="trans21" d="M54.139,140.435l23.611,13.637v27.262l-23.611,13.632l-23.611-13.632v-27.262L54.139,140.435 M54.139,139.677l-24.266,14.017v28.021l24.266,14.011l24.266-14.011v-28.021L54.139,139.677L54.139,139.677z"/>
		<path class="trans33" d="M638.57,228.779l63.939,36.934v73.834l-63.939,36.917l-63.95-36.917v-73.834L638.57,228.779 M638.57,226.725l-65.729,37.961v75.888l65.729,37.944l65.719-37.944v-75.888L638.57,226.725L638.57,226.725z"/>
	</g>
	<g class="fade2" style="fill:#5C5C5C;">
		<polygon class="trans38" points="643.895,595.341 610.285,614.741 576.674,595.341 576.674,556.535 610.285,537.133 
			643.895,556.535"/>
		<polygon class="trans12" points="291.955,362.558 265.838,377.641 239.718,362.558 239.718,332.4 265.838,317.318 
			291.955,332.4"/>
		<polygon class="trans22" points="350.26,704.492 323.397,720 296.529,704.492 296.529,673.472 323.397,657.964 
			350.26,673.472"/>
		<polygon class="trans13" points="193.306,556.018 127.98,593.739 62.639,556.018 62.639,480.58 127.98,442.86 
			193.306,480.58"/>
		<path class="trans34" d="M75.015,259.201l42.322,24.436V332.5l-42.322,24.435L32.689,332.5v-48.863L75.015,259.201
			 M75.015,253.269l-47.462,27.403v54.795l47.462,27.401l47.459-27.401v-54.795L75.015,253.269L75.015,253.269z"/>
		<path class="trans14" d="M583.35,135.06l29.233,16.876v33.747l-29.233,16.876l-29.228-16.876v-33.747L583.35,135.06
			 M583.35,130.963l-32.778,18.924v37.844l32.778,18.924l32.782-18.924v-37.844L583.35,130.963L583.35,130.963z"/>
		<path class="trans23" d="M473.726,415.783l21.046,12.151v24.314L473.726,464.4l-21.05-12.152v-24.314L473.726,415.783
			 M473.726,412.832l-23.607,13.628v27.264l23.607,13.628l23.604-13.628V426.46L473.726,412.832L473.726,412.832z"/>
		<path class="trans35" d="M702.66,151.584l60.937,35.189v70.371L702.66,292.33l-60.944-35.187v-70.371L702.66,151.584 M702.66,143.041l-68.342,39.462v78.912l68.342,39.46l68.335-39.46v-78.912L702.66,143.041L702.66,143.041z"/>
		<path class="trans24" d="M67.905,578.771l37.319,21.553v43.11l-37.319,21.557l-37.345-21.557v-43.11L67.905,578.771 M67.905,577.572l-38.384,22.153v44.309l38.384,22.157l38.359-22.157v-44.309L67.905,577.572L67.905,577.572z"/>
		<path class="trans15" d="M559.851,463.184l45.686,26.381v52.758l-45.686,26.381l-45.697-26.381v-52.758L559.851,463.184
			 M559.851,461.717l-46.967,27.114v54.227l46.967,27.114l46.956-27.114v-54.227L559.851,461.717L559.851,461.717z"/>
		<path class="trans36" d="M296.344,113.801l26.701,15.419v30.833l-26.701,15.425l-26.701-15.425V129.22L296.344,113.801
			 M296.344,112.942l-27.445,15.848v31.692l27.445,15.854l27.445-15.854v-31.692L296.344,112.942L296.344,112.942z"/>
		<path class="trans25" d="M294.156,385.438l70.159,40.509v81.016l-70.159,40.524l-70.174-40.524v-81.016L294.156,385.438
			 M294.156,383.184l-72.125,41.636v83.27l72.125,41.65l72.11-41.65v-83.27L294.156,383.184L294.156,383.184z"/>
		<g style="opacity:0.3;">
			<polygon points="168.748,426.374 141.806,441.925 114.865,426.374 114.865,395.264 141.806,379.707 168.748,395.264"/>
			<polygon class="trans16" points="62.628,468.528 31.316,486.605 0,468.528 0,432.375 31.316,414.297 62.628,432.375"/>
			<path d="M461.229,617.812l22.449,12.958v25.917l-22.449,12.96l-22.449-12.96V630.77L461.229,617.812
			 M461.229,614.667l-25.173,14.531v29.062l25.173,14.533l25.172-14.533v-29.062L461.229,614.667L461.229,614.667z"/>
			<path class="trans37" d="M448.649,138.585l26.697,15.412v30.83l-26.697,15.412l-26.701-15.412v-30.83L448.649,138.585
			 M448.649,134.843l-29.943,17.282v34.571l29.943,17.283l29.939-17.283v-34.571L448.649,134.843L448.649,134.843z"/>
			<path class="trans26" d="M394.685,255.691l87.783,50.691v101.381l-87.783,50.688l-87.812-50.688V306.382L394.685,255.691
			 M394.685,252.871l-90.255,52.102v104.201l90.255,52.098l90.225-52.098V304.972L394.685,252.871L394.685,252.871z"/>
			<path class="trans27"  d="M386.454,520.389l25.125,14.513v29.02l-25.125,14.509l-25.132-14.509v-29.02L386.454,520.389
			 M386.454,519.582l-25.831,14.916v29.826l25.831,14.912l25.824-14.912v-29.826L386.454,519.582L386.454,519.582z"/>
		</g>
	</g>

	<g class="fade3" style="fill:#292929;">
		<polygon class="trans38" points="275.123,592.714 248.729,607.951 222.343,592.714 222.343,562.234 248.729,546.998 275.123,562.234"/>
		<polygon class="trans18" points="559.192,89.583 507.47,119.443 455.744,89.583 455.744,29.86 507.47,0 559.192,29.86"/>
		<path class="trans28" d="M514.331,209.825l69.086,39.898v79.763l-69.086,39.883l-69.079-39.883v-79.763L514.331,209.825 M514.331,200.14l-77.465,44.742v89.446l77.465,44.724l77.472-44.724v-89.446L514.331,200.14L514.331,200.14z"/>
		<path class="trans17" d="M170.931,94.065l42.196,24.368v48.725l-42.196,24.36l-42.196-24.36v-48.725L170.931,94.065 M170.931,88.149l-47.318,27.327v54.638l47.318,27.317l47.318-27.317v-54.638L170.931,88.149L170.931,88.149z"/>
		<path class="trans19" d="M770.04,103.261l54.705,31.579v63.163l-54.705,31.581l-54.698-31.581V134.84L770.04,103.261 M770.04,101.503l-56.218,32.458v64.921l56.218,32.458l56.226-32.458v-64.921L770.04,101.503L770.04,101.503z"/>
		<path class="trans29" d="M186.771,644.952l29.636,17.114v34.227l-29.636,17.114l-29.651-17.114v-34.227L186.771,644.952 M186.771,643.999l-30.476,17.591v35.178l30.476,17.592l30.461-17.592v-35.178L186.771,643.999L186.771,643.999z"/>
	</g>
</svg>
