<?xml version="1.0" encoding="iso-8859-1"?>
<!-- Generator: Adobe Illustrator 17.1.0, SVG Export Plug-In . SVG Version: 6.00 Build 0)  -->
<!DOCTYPE svg PUBLIC "-//W3C//DTD SVG 1.1//EN" "http://www.w3.org/Graphics/SVG/1.1/DTD/svg11.dtd">
<svg version="1.1" id="&#x421;&#x43B;&#x43E;&#x439;_1"
	 xmlns="http://www.w3.org/2000/svg" xmlns:xlink="http://www.w3.org/1999/xlink" x="0px" y="0px" viewBox="0 0 320.35 290.54"
	 style="enable-background:new 0 0 320.35 290.54;" xml:space="preserve">
<g style="opacity:0.15;fill:none;stroke:#49BACE;stroke-width:0.5;stroke-miterlimit:10;">
	<polygon points="9.4,183.02 15.44,198.91 4.7,212.08 -12.08,209.37 -18.12,193.48 -7.38,180.31"/>
	<polygon points="36.88,172.58 42.92,188.47 32.18,201.64 15.4,198.93 9.36,183.04 20.1,169.86"/>
	<polygon points="64.36,162.13 70.4,178.02 59.66,191.2 42.88,188.48 36.84,172.59 47.58,159.42"/>
	<polygon points="91.84,151.69 97.88,167.58 87.14,180.76 70.36,178.04 64.32,162.15 75.06,148.98"/>
	<polygon points="119.32,141.25 125.36,157.14 114.62,170.31 97.84,167.6 91.8,151.71 102.54,138.53"/>
	<polygon points="146.8,130.81 152.84,146.7 142.1,159.87 125.32,157.15 119.28,141.26 130.02,128.09"/>
	<polygon points="4.72,212.03 10.76,227.92 0.02,241.09 -16.76,238.38 -22.8,222.49 -12.06,209.31"/>
	<polygon points="32.2,201.59 38.24,217.48 27.5,230.65 10.72,227.93 4.68,212.05 15.42,198.87"/>
	<polygon points="59.68,191.14 65.72,207.03 54.98,220.21 38.2,217.49 32.16,201.6 42.9,188.43"/>
	<polygon points="87.16,180.7 93.2,196.59 82.46,209.76 65.68,207.05 59.64,191.16 70.38,177.99"/>
	<polygon points="114.64,170.26 120.68,186.15 109.94,199.32 93.16,196.61 87.12,180.72 97.86,167.54"/>
	<polygon points="142.12,159.81 148.16,175.7 137.42,188.88 120.64,186.16 114.6,170.27 125.34,157.1"/>
	<polygon points="0.04,241.04 6.08,256.93 -4.66,270.1 -21.44,267.39 -27.48,251.5 -16.74,238.32"/>
	<polygon points="27.52,230.59 33.56,246.48 22.82,259.66 6.04,256.94 0,241.05 10.74,227.88"/>
	<polygon points="55,220.15 61.04,236.04 50.3,249.22 33.52,246.5 27.48,230.61 38.22,217.44"/>
	<polygon points="82.48,209.71 88.52,225.6 77.78,238.77 61,236.06 54.96,220.17 65.7,206.99"/>
	<polygon points="109.96,199.27 116,215.16 105.26,228.33 88.48,225.61 82.44,209.72 93.18,196.55"/>
	<polygon points="137.44,188.82 143.48,204.71 132.74,217.89 115.96,215.17 109.92,199.28 120.66,186.11"/>
	<polygon points="-4.64,270.05 1.4,285.94 -9.34,299.11 -26.12,296.39 -32.16,280.51 -21.42,267.33"/>
	<polygon points="22.84,259.6 28.88,275.49 18.14,288.67 1.36,285.95 -4.68,270.06 6.06,256.89"/>
	<polygon points="50.32,249.16 56.36,265.05 45.62,278.22 28.84,275.51 22.8,259.62 33.54,246.44"/>
	<polygon points="77.8,238.72 83.84,254.61 73.1,267.78 56.32,265.07 50.28,249.18 61.02,236"/>
	<polygon points="105.28,228.27 111.32,244.16 100.58,257.34 83.8,254.62 77.76,238.73 88.5,225.56"/>
	<polygon points="132.76,217.83 138.8,233.72 128.06,246.9 111.28,244.18 105.24,228.29 115.98,215.11"/>
	<polygon points="36.88,172.58 42.92,188.47 32.18,201.64 15.4,198.93 9.36,183.04 20.1,169.86"/>
	<polygon points="64.36,162.13 70.4,178.02 59.66,191.2 42.88,188.48 36.84,172.59 47.58,159.42"/>
	<polygon points="91.84,151.69 97.88,167.58 87.14,180.76 70.36,178.04 64.32,162.15 75.06,148.98"/>
	<polygon points="119.32,141.25 125.36,157.14 114.62,170.31 97.84,167.6 91.8,151.71 102.54,138.53"/>
	<polygon points="146.8,130.81 152.84,146.7 142.1,159.87 125.32,157.15 119.28,141.26 130.02,128.09"/>
	<polygon points="4.72,212.03 10.76,227.92 0.02,241.09 -16.76,238.38 -22.8,222.49 -12.06,209.31"/>
	<polygon points="32.2,201.59 38.24,217.48 27.5,230.65 10.72,227.93 4.68,212.05 15.42,198.87"/>
	<polygon points="59.68,191.14 65.72,207.03 54.98,220.21 38.2,217.49 32.16,201.6 42.9,188.43"/>
	<polygon points="87.16,180.7 93.2,196.59 82.46,209.76 65.68,207.05 59.64,191.16 70.38,177.99"/>
	<polygon points="114.64,170.26 120.68,186.15 109.94,199.32 93.16,196.61 87.12,180.72 97.86,167.54"/>
	<polygon points="142.12,159.81 148.16,175.7 137.42,188.88 120.64,186.16 114.6,170.27 125.34,157.1"/>
	<polygon points="0.04,241.04 6.08,256.93 -4.66,270.1 -21.44,267.39 -27.48,251.5 -16.74,238.32"/>
	<polygon points="27.52,230.59 33.56,246.48 22.82,259.66 6.04,256.94 0,241.05 10.74,227.88"/>
	<polygon points="55,220.15 61.04,236.04 50.3,249.22 33.52,246.5 27.48,230.61 38.22,217.44"/>
	<polygon points="82.48,209.71 88.52,225.6 77.78,238.77 61,236.06 54.96,220.17 65.7,206.99"/>
	<polygon points="109.96,199.27 116,215.16 105.26,228.33 88.48,225.61 82.44,209.72 93.18,196.55"/>
	<polygon points="137.44,188.82 143.48,204.71 132.74,217.89 115.96,215.17 109.92,199.28 120.66,186.11"/>
	<polygon points="-4.64,270.05 1.4,285.94 -9.34,299.11 -26.12,296.39 -32.16,280.51 -21.42,267.33"/>
	<polygon points="22.84,259.6 28.88,275.49 18.14,288.67 1.36,285.95 -4.68,270.06 6.06,256.89"/>
	<polygon points="50.32,249.16 56.36,265.05 45.62,278.22 28.84,275.51 22.8,259.62 33.54,246.44"/>
	<polygon points="77.8,238.72 83.84,254.61 73.1,267.78 56.32,265.07 50.28,249.18 61.02,236"/>
	<polygon points="105.28,228.27 111.32,244.16 100.58,257.34 83.8,254.62 77.76,238.73 88.5,225.56"/>
	<polygon points="132.76,217.83 138.8,233.72 128.06,246.9 111.28,244.18 105.24,228.29 115.98,215.11"/>
	<polygon points="174.24,120.26 180.28,136.15 169.54,149.32 152.76,146.61 146.72,130.72 157.46,117.54"/>
	<polygon points="201.72,109.82 207.76,125.71 197.02,138.88 180.24,136.17 174.2,120.28 184.94,107.1"/>
	<polygon points="229.2,99.37 235.24,115.26 224.5,128.44 207.72,125.72 201.68,109.83 212.42,96.66"/>
	<polygon points="256.68,88.93 262.72,104.82 251.98,117.99 235.2,115.28 229.16,99.39 239.9,86.22"/>
	<polygon points="284.16,78.49 290.2,94.38 279.46,107.55 262.68,104.84 256.64,88.95 267.38,75.77"/>
	<polygon points="311.64,68.04 317.68,83.93 306.94,97.11 290.16,94.39 284.12,78.5 294.86,65.33"/>
	<polygon points="339.12,57.6 345.16,73.49 334.42,86.67 317.64,83.95 311.6,68.06 322.34,54.89"/>
	<polygon points="169.56,149.27 175.6,165.16 164.86,178.33 148.08,175.62 142.04,159.73 152.78,146.55"/>
	<polygon points="197.04,138.83 203.08,154.72 192.34,167.89 175.56,165.17 169.52,149.28 180.26,136.11"/>
	<polygon points="224.52,128.38 230.56,144.27 219.82,157.45 203.04,154.73 197,138.84 207.74,125.67"/>
	<polygon points="252,117.94 258.04,133.83 247.3,147 230.52,144.29 224.48,128.4 235.22,115.22"/>
	<polygon points="279.48,107.5 285.52,123.39 274.78,136.56 258,133.85 251.96,117.95 262.7,104.78"/>
	<polygon points="306.96,97.05 313,112.94 302.26,126.12 285.48,123.4 279.44,107.51 290.18,94.34"/>
	<polygon points="334.44,86.61 340.48,102.5 329.74,115.67 312.96,112.96 306.92,97.07 317.66,83.89"/>
	<polygon points="164.88,178.28 170.92,194.17 160.18,207.34 143.4,204.63 137.36,188.74 148.1,175.56"/>
	<polygon points="192.36,167.83 198.4,183.72 187.66,196.9 170.88,194.18 164.84,178.29 175.58,165.12"/>
	<polygon points="219.84,157.39 225.88,173.28 215.14,186.45 198.36,183.74 192.32,167.85 203.06,154.67"/>
	<polygon points="247.32,146.95 253.36,162.84 242.62,176.01 225.84,173.3 219.8,157.41 230.54,144.23"/>
	<polygon points="274.8,136.5 280.84,152.39 270.1,165.57 253.32,162.85 247.28,146.96 258.02,133.79"/>
	<polygon points="302.28,126.06 308.32,141.95 297.58,155.13 280.8,152.41 274.76,136.52 285.5,123.35"/>
	<polygon points="329.76,115.62 335.8,131.51 325.06,144.68 308.28,141.97 302.24,126.08 312.98,112.9"/>
	<polygon points="160.2,207.28 166.24,223.18 155.5,236.35 138.72,233.63 132.68,217.74 143.42,204.57"/>
	<polygon points="187.68,196.84 193.72,212.73 182.98,225.91 166.2,223.19 160.16,207.3 170.9,194.13"/>
	<polygon points="215.16,186.4 221.2,202.29 210.46,215.46 193.68,212.75 187.64,196.86 198.38,183.68"/>
	<polygon points="242.64,175.96 248.68,191.85 237.94,205.02 221.16,202.3 215.12,186.41 225.86,173.24"/>
	<polygon points="270.12,165.51 276.16,181.4 265.42,194.58 248.64,191.86 242.6,175.97 253.34,162.8"/>
	<polygon points="297.6,155.07 303.64,170.96 292.9,184.13 276.12,181.42 270.08,165.53 280.82,152.35"/>
	<polygon points="325.08,144.63 331.12,160.52 320.38,173.69 303.6,170.98 297.56,155.09 308.3,141.91"/>
	<polygon points="174.24,120.26 180.28,136.15 169.54,149.32 152.76,146.61 146.72,130.72 157.46,117.54"/>
	<polygon points="201.72,109.82 207.76,125.71 197.02,138.88 180.24,136.17 174.2,120.28 184.94,107.1"/>
	<polygon points="229.2,99.37 235.24,115.26 224.5,128.44 207.72,125.72 201.68,109.83 212.42,96.66"/>
	<polygon points="256.68,88.93 262.72,104.82 251.98,117.99 235.2,115.28 229.16,99.39 239.9,86.22"/>
	<polygon points="284.16,78.49 290.2,94.38 279.46,107.55 262.68,104.84 256.64,88.95 267.38,75.77"/>
	<polygon points="311.64,68.04 317.68,83.93 306.94,97.11 290.16,94.39 284.12,78.5 294.86,65.33"/>
	<polygon points="339.12,57.6 345.16,73.49 334.42,86.67 317.64,83.95 311.6,68.06 322.34,54.89"/>
	<polygon points="169.56,149.27 175.6,165.16 164.86,178.33 148.08,175.62 142.04,159.73 152.78,146.55"/>
	<polygon points="197.04,138.83 203.08,154.72 192.34,167.89 175.56,165.17 169.52,149.28 180.26,136.11"/>
	<polygon points="224.52,128.38 230.56,144.27 219.82,157.45 203.04,154.73 197,138.84 207.74,125.67"/>
	<polygon points="252,117.94 258.04,133.83 247.3,147 230.52,144.29 224.48,128.4 235.22,115.22"/>
	<polygon points="279.48,107.5 285.52,123.39 274.78,136.56 258,133.85 251.96,117.95 262.7,104.78"/>
	<polygon points="306.96,97.05 313,112.94 302.26,126.12 285.48,123.4 279.44,107.51 290.18,94.34"/>
	<polygon points="334.44,86.61 340.48,102.5 329.74,115.67 312.96,112.96 306.92,97.07 317.66,83.89"/>
	<polygon points="164.88,178.28 170.92,194.17 160.18,207.34 143.4,204.63 137.36,188.74 148.1,175.56"/>
	<polygon points="192.36,167.83 198.4,183.72 187.66,196.9 170.88,194.18 164.84,178.29 175.58,165.12"/>
	<polygon points="219.84,157.39 225.88,173.28 215.14,186.45 198.36,183.74 192.32,167.85 203.06,154.67"/>
	<polygon points="247.32,146.95 253.36,162.84 242.62,176.01 225.84,173.3 219.8,157.41 230.54,144.23"/>
	<polygon points="274.8,136.5 280.84,152.39 270.1,165.57 253.32,162.85 247.28,146.96 258.02,133.79"/>
	<polygon points="302.28,126.06 308.32,141.95 297.58,155.13 280.8,152.41 274.76,136.52 285.5,123.35"/>
	<polygon points="329.76,115.62 335.8,131.51 325.06,144.68 308.28,141.97 302.24,126.08 312.98,112.9"/>
	<polygon points="0.71,77.39 6.75,93.28 -4,106.46 -20.78,103.74 -26.81,87.85 -16.07,74.68"/>
	<polygon points="28.19,66.95 34.23,82.84 23.48,96.01 6.7,93.3 0.66,77.41 11.41,64.24"/>
	<polygon points="55.67,56.51 61.71,72.4 50.96,85.57 34.18,82.86 28.14,66.97 38.89,53.79"/>
	<polygon points="83.15,46.06 89.19,61.95 78.44,75.13 61.66,72.41 55.62,56.52 66.37,43.35"/>
	<polygon points="110.63,35.62 116.66,51.51 105.92,64.69 89.14,61.97 83.1,46.08 93.85,32.91"/>
	<polygon points="-3.97,106.4 2.07,122.29 -8.67,135.47 -25.46,132.75 -31.49,116.86 -20.75,103.69"/>
	<polygon points="23.51,95.96 29.55,111.85 18.81,125.02 2.02,122.31 -4.01,106.42 6.73,93.24"/>
	<polygon points="50.99,85.52 57.03,101.41 46.28,114.58 29.5,111.87 23.47,95.98 34.21,82.8"/>
	<polygon points="78.47,75.07 84.51,90.96 73.76,104.14 56.98,101.42 50.95,85.53 61.69,72.36"/>
	<polygon points="105.95,64.63 111.99,80.52 101.24,93.69 84.46,90.98 78.43,75.09 89.17,61.91"/>
	<polygon points="18.83,124.97 24.87,140.86 14.13,154.03 -2.65,151.32 -8.69,135.43 2.05,122.25"/>
	<polygon points="46.31,114.52 52.35,130.41 41.61,143.59 24.83,140.87 18.79,124.98 29.53,111.81"/>
	<polygon points="73.79,104.08 79.83,119.97 69.09,133.15 52.3,130.43 46.27,114.54 57.01,101.37"/>
	<polygon points="101.27,93.64 107.31,109.53 96.56,122.7 79.78,119.99 73.75,104.1 84.49,90.92"/>
	<polygon points="0.71,77.39 6.75,93.28 -4,106.46 -20.78,103.74 -26.81,87.85 -16.07,74.68"/>
	<polygon points="28.19,66.95 34.23,82.84 23.48,96.01 6.7,93.3 0.66,77.41 11.41,64.24"/>
	<polygon points="55.67,56.51 61.71,72.4 50.96,85.57 34.18,82.86 28.14,66.97 38.89,53.79"/>
	<polygon points="83.15,46.06 89.19,61.95 78.44,75.13 61.66,72.41 55.62,56.52 66.37,43.35"/>
	<polygon points="110.63,35.62 116.66,51.51 105.92,64.69 89.14,61.97 83.1,46.08 93.85,32.91"/>
	<polygon points="-3.97,106.4 2.07,122.29 -8.67,135.47 -25.46,132.75 -31.49,116.86 -20.75,103.69"/>
	<polygon points="23.51,95.96 29.55,111.85 18.81,125.02 2.02,122.31 -4.01,106.42 6.73,93.24"/>
	<polygon points="50.99,85.52 57.03,101.41 46.28,114.58 29.5,111.87 23.47,95.98 34.21,82.8"/>
	<polygon points="78.47,75.07 84.51,90.96 73.76,104.14 56.98,101.42 50.95,85.53 61.69,72.36"/>
	<polygon points="105.95,64.63 111.99,80.52 101.24,93.69 84.46,90.98 78.43,75.09 89.17,61.91"/>
	<polygon points="18.83,124.97 24.87,140.86 14.13,154.03 -2.65,151.32 -8.69,135.43 2.05,122.25"/>
	<polygon points="46.31,114.52 52.35,130.41 41.61,143.59 24.83,140.87 18.79,124.98 29.53,111.81"/>
	<polygon points="73.79,104.08 79.83,119.97 69.09,133.15 52.3,130.43 46.27,114.54 57.01,101.37"/>
	<polygon points="101.27,93.64 107.31,109.53 96.56,122.7 79.78,119.99 73.75,104.1 84.49,90.92"/>
	<polygon points="138.07,25.08 144.11,40.97 133.37,54.14 116.59,51.42 110.55,35.54 121.29,22.36"/>
	<polygon points="165.55,14.63 171.59,30.52 160.85,43.7 144.07,40.98 138.03,25.09 148.77,11.92"/>
	<polygon points="193.03,4.19 199.07,20.08 188.33,33.25 171.54,30.54 165.51,14.65 176.25,1.47"/>
	<polygon points="220.51,-6.25 226.55,9.64 215.81,22.81 199.02,20.1 192.99,4.21 203.73,-8.97"/>
	<polygon points="247.99,-16.7 254.03,-0.81 243.28,12.37 226.5,9.65 220.47,-6.24 231.21,-19.41"/>
	<polygon points="275.47,-27.14 281.51,-11.25 270.76,1.93 253.98,-0.79 247.95,-16.68 258.69,-29.85"/>
	<polygon points="133.39,54.08 139.43,69.97 128.69,83.15 111.91,80.43 105.87,64.54 116.61,51.37"/>
	<polygon points="160.87,43.64 166.91,59.53 156.17,72.71 139.39,69.99 133.35,54.1 144.09,40.93"/>
	<polygon points="188.35,33.2 194.39,49.09 183.65,62.26 166.87,59.55 160.83,43.66 171.57,30.48"/>
	<polygon points="215.83,22.76 221.87,38.64 211.13,51.82 194.35,49.1 188.31,33.21 199.05,20.04"/>
	<polygon points="243.31,12.31 249.35,28.2 238.61,41.38 221.83,38.66 215.79,22.77 226.53,9.6"/>
	<polygon points="270.79,1.87 276.83,17.76 266.09,30.93 249.3,28.22 243.27,12.33 254.01,-0.85"/>
	<polygon points="298.27,-8.57 304.31,7.32 293.56,20.49 276.78,17.77 270.75,1.89 281.49,-11.29"/>
	<polygon points="325.75,-19.02 331.79,-3.13 321.04,10.05 304.26,7.33 298.23,-8.56 308.97,-21.73"/>
	<polygon points="128.71,83.09 134.75,98.98 124.01,112.16 107.23,109.44 101.19,93.55 111.93,80.38"/>
	<polygon points="156.19,72.65 162.23,88.54 151.49,101.71 134.71,99 128.67,83.11 139.41,69.93"/>
	<polygon points="183.67,62.21 189.71,78.1 178.97,91.27 162.19,88.56 156.15,72.67 166.89,59.49"/>
	<polygon points="211.15,51.76 217.19,67.65 206.45,80.83 189.67,78.11 183.63,62.22 194.37,49.05"/>
	<polygon points="238.63,41.32 244.67,57.21 233.93,70.39 217.15,67.67 211.11,51.78 221.85,38.61"/>
	<polygon points="266.11,30.88 272.15,46.77 261.41,59.94 244.63,57.23 238.59,41.34 249.33,28.16"/>
	<polygon points="293.59,20.43 299.63,36.32 288.89,49.5 272.1,46.78 266.07,30.89 276.81,17.72"/>
	<polygon points="321.07,9.99 327.11,25.88 316.36,39.06 299.58,36.34 293.55,20.45 304.29,7.28"/>
	<polygon points="348.55,-0.45 354.59,15.44 343.84,28.61 327.06,25.9 321.03,10.01 331.77,-3.17"/>
	<polygon points="138.07,25.08 144.11,40.97 133.37,54.14 116.59,51.42 110.55,35.54 121.29,22.36"/>
	<polygon points="165.55,14.63 171.59,30.52 160.85,43.7 144.07,40.98 138.03,25.09 148.77,11.92"/>
	<polygon points="193.03,4.19 199.07,20.08 188.33,33.25 171.54,30.54 165.51,14.65 176.25,1.47"/>
	<polygon points="220.51,-6.25 226.55,9.64 215.81,22.81 199.02,20.1 192.99,4.21 203.73,-8.97"/>
	<polygon points="247.99,-16.7 254.03,-0.81 243.28,12.37 226.5,9.65 220.47,-6.24 231.21,-19.41"/>
	<polygon points="275.47,-27.14 281.51,-11.25 270.76,1.93 253.98,-0.79 247.95,-16.68 258.69,-29.85"/>
	<polygon points="133.39,54.08 139.43,69.97 128.69,83.15 111.91,80.43 105.87,64.54 116.61,51.37"/>
	<polygon points="160.87,43.64 166.91,59.53 156.17,72.71 139.39,69.99 133.35,54.1 144.09,40.93"/>
	<polygon points="188.35,33.2 194.39,49.09 183.65,62.26 166.87,59.55 160.83,43.66 171.57,30.48"/>
	<polygon points="215.83,22.76 221.87,38.64 211.13,51.82 194.35,49.1 188.31,33.21 199.05,20.04"/>
	<polygon points="243.31,12.31 249.35,28.2 238.61,41.38 221.83,38.66 215.79,22.77 226.53,9.6"/>
	<polygon points="270.79,1.87 276.83,17.76 266.09,30.93 249.3,28.22 243.27,12.33 254.01,-0.85"/>
	<polygon points="298.27,-8.57 304.31,7.32 293.56,20.49 276.78,17.77 270.75,1.89 281.49,-11.29"/>
	<polygon points="325.75,-19.02 331.79,-3.13 321.04,10.05 304.26,7.33 298.23,-8.56 308.97,-21.73"/>
	<polygon points="128.71,83.09 134.75,98.98 124.01,112.16 107.23,109.44 101.19,93.55 111.93,80.38"/>
	<polygon points="156.19,72.65 162.23,88.54 151.49,101.71 134.71,99 128.67,83.11 139.41,69.93"/>
	<polygon points="183.67,62.21 189.71,78.1 178.97,91.27 162.19,88.56 156.15,72.67 166.89,59.49"/>
	<polygon points="211.15,51.76 217.19,67.65 206.45,80.83 189.67,78.11 183.63,62.22 194.37,49.05"/>
	<polygon points="238.63,41.32 244.67,57.21 233.93,70.39 217.15,67.67 211.11,51.78 221.85,38.61"/>
	<polygon points="266.11,30.88 272.15,46.77 261.41,59.94 244.63,57.23 238.59,41.34 249.33,28.16"/>
	<polygon points="293.59,20.43 299.63,36.32 288.89,49.5 272.1,46.78 266.07,30.89 276.81,17.72"/>
	<polygon points="321.07,9.99 327.11,25.88 316.36,39.06 299.58,36.34 293.55,20.45 304.29,7.28"/>
	<polygon points="348.55,-0.45 354.59,15.44 343.84,28.61 327.06,25.9 321.03,10.01 331.77,-3.17"/>
	<polygon points="160.2,207.28 166.24,223.18 155.5,236.35 138.72,233.63 132.68,217.74 143.42,204.57"/>
	<polygon points="187.68,196.84 193.72,212.73 182.98,225.91 166.2,223.19 160.16,207.3 170.9,194.13"/>
	<polygon points="215.16,186.4 221.2,202.29 210.46,215.46 193.68,212.75 187.64,196.86 198.38,183.68"/>
	<polygon points="242.64,175.96 248.68,191.85 237.94,205.02 221.16,202.3 215.12,186.41 225.86,173.24"/>
	<polygon points="270.12,165.51 276.16,181.4 265.42,194.58 248.64,191.86 242.6,175.97 253.34,162.8"/>
	<polygon points="297.6,155.07 303.64,170.96 292.9,184.13 276.12,181.42 270.08,165.53 280.82,152.35"/>
	<polygon points="325.08,144.63 331.12,160.52 320.38,173.69 303.6,170.98 297.56,155.09 308.3,141.91"/>
	<polygon points="14.8,-9.71 20.84,6.18 10.1,19.36 -6.68,16.64 -12.72,0.75 -1.98,-12.42"/>
	<polygon points="42.28,-20.15 48.32,-4.26 37.58,8.91 20.8,6.2 14.76,-9.69 25.5,-22.86"/>
	<polygon points="10.12,19.3 16.16,35.19 5.42,48.37 -11.36,45.65 -17.4,29.76 -6.66,16.59"/>
	<polygon points="37.6,8.86 43.64,24.75 32.9,37.92 16.12,35.21 10.08,19.32 20.82,6.14"/>
	<polygon points="65.08,-1.58 71.12,14.31 60.38,27.48 43.6,24.76 37.56,8.88 48.3,-4.3"/>
	<polygon points="5.44,48.31 11.48,64.2 0.74,77.37 -16.04,74.66 -22.08,58.77 -11.34,45.59"/>
	<polygon points="32.92,37.87 38.96,53.76 28.22,66.93 11.44,64.22 5.4,48.33 16.14,35.15"/>
	<polygon points="60.4,27.42 66.44,43.31 55.7,56.49 38.92,53.77 32.88,37.88 43.62,24.71"/>
	<polygon points="14.8,-9.71 20.84,6.18 10.1,19.36 -6.68,16.64 -12.72,0.75 -1.98,-12.42"/>
	<polygon points="42.28,-20.15 48.32,-4.26 37.58,8.91 20.8,6.2 14.76,-9.69 25.5,-22.86"/>
	<polygon points="10.12,19.3 16.16,35.19 5.42,48.37 -11.36,45.65 -17.4,29.76 -6.66,16.59"/>
	<polygon points="37.6,8.86 43.64,24.75 32.9,37.92 16.12,35.21 10.08,19.32 20.82,6.14"/>
	<polygon points="65.08,-1.58 71.12,14.31 60.38,27.48 43.6,24.76 37.56,8.88 48.3,-4.3"/>
	<polygon points="5.44,48.31 11.48,64.2 0.74,77.37 -16.04,74.66 -22.08,58.77 -11.34,45.59"/>
	<polygon points="32.92,37.87 38.96,53.76 28.22,66.93 11.44,64.22 5.4,48.33 16.14,35.15"/>
	<polygon points="60.4,27.42 66.44,43.31 55.7,56.49 38.92,53.77 32.88,37.88 43.62,24.71"/>
	<polygon points="92.52,-12.13 98.56,3.76 87.82,16.93 71.04,14.22 65,-1.67 75.74,-14.85"/>
	<polygon points="120,-22.57 126.04,-6.68 115.3,6.49 98.52,3.78 92.48,-12.11 103.22,-25.29"/>
	<polygon points="87.84,16.88 93.88,32.77 83.14,45.94 66.36,43.23 60.32,27.34 71.06,14.16"/>
	<polygon points="115.32,6.44 121.36,22.33 110.62,35.5 93.84,32.78 87.8,16.89 98.54,3.72"/>
	<polygon points="142.8,-4.01 148.84,11.88 138.1,25.06 121.32,22.34 115.28,6.45 126.02,-6.72"/>
	<polygon points="170.28,-14.45 176.32,1.44 165.58,14.61 148.8,11.9 142.76,-3.99 153.5,-17.17"/>
	<polygon points="197.76,-24.89 203.8,-9 193.06,4.17 176.28,1.46 170.24,-14.43 180.98,-27.61"/>
	<polygon points="92.52,-12.13 98.56,3.76 87.82,16.93 71.04,14.22 65,-1.67 75.74,-14.85"/>
	<polygon points="120,-22.57 126.04,-6.68 115.3,6.49 98.52,3.78 92.48,-12.11 103.22,-25.29"/>
	<polygon points="87.84,16.88 93.88,32.77 83.14,45.94 66.36,43.23 60.32,27.34 71.06,14.16"/>
	<polygon points="115.32,6.44 121.36,22.33 110.62,35.5 93.84,32.78 87.8,16.89 98.54,3.72"/>
	<polygon points="142.8,-4.01 148.84,11.88 138.1,25.06 121.32,22.34 115.28,6.45 126.02,-6.72"/>
	<polygon points="170.28,-14.45 176.32,1.44 165.58,14.61 148.8,11.9 142.76,-3.99 153.5,-17.17"/>
	<polygon points="197.76,-24.89 203.8,-9 193.06,4.17 176.28,1.46 170.24,-14.43 180.98,-27.61"/>
	<polygon points="14.17,154.02 20.2,169.91 9.46,183.08 -7.32,180.37 -13.36,164.48 -2.62,151.3"/>
	<polygon points="41.64,143.57 47.68,159.46 36.94,172.64 20.16,169.92 14.12,154.03 24.86,140.86"/>
	<polygon points="69.12,133.13 75.16,149.02 64.42,162.2 47.64,159.48 41.6,143.59 52.34,130.42"/>
	<polygon points="96.6,122.69 102.64,138.58 91.9,151.75 75.12,149.04 69.08,133.15 79.82,119.97"/>
	<polygon points="14.17,154.02 20.2,169.91 9.46,183.08 -7.32,180.37 -13.36,164.48 -2.62,151.3"/>
	<polygon points="41.64,143.57 47.68,159.46 36.94,172.64 20.16,169.92 14.12,154.03 24.86,140.86"/>
	<polygon points="69.12,133.13 75.16,149.02 64.42,162.2 47.64,159.48 41.6,143.59 52.34,130.42"/>
	<polygon points="96.6,122.69 102.64,138.58 91.9,151.75 75.12,149.04 69.08,133.15 79.82,119.97"/>
	<polygon points="124.05,112.14 130.09,128.03 119.34,141.21 102.56,138.49 96.52,122.6 107.27,109.43"/>
	<polygon points="151.53,101.7 157.57,117.59 146.82,130.76 130.04,128.05 124,112.16 134.75,98.98"/>
	<polygon points="179.01,91.26 185.04,107.15 174.3,120.32 157.52,117.6 151.48,101.72 162.23,88.54"/>
	<polygon points="206.49,80.81 212.52,96.7 201.78,109.88 185,107.16 178.96,91.27 189.71,78.1"/>
	<polygon points="233.97,70.37 240,86.26 229.26,99.43 212.48,96.72 206.44,80.83 217.19,67.65"/>
	<polygon points="261.45,59.93 267.48,75.82 256.74,88.99 239.96,86.28 233.92,70.39 244.66,57.21"/>
	<polygon points="288.92,49.48 294.96,65.37 284.22,78.55 267.44,75.83 261.4,59.94 272.14,46.77"/>
	<polygon points="316.4,39.04 322.44,54.93 311.7,68.11 294.92,65.39 288.88,49.5 299.62,36.33"/>
	<polygon points="343.88,28.6 349.92,44.49 339.18,57.66 322.4,54.95 316.36,39.06 327.1,25.88"/>
	<polygon points="124.05,112.14 130.09,128.03 119.34,141.21 102.56,138.49 96.52,122.6 107.27,109.43"/>
	<polygon points="151.53,101.7 157.57,117.59 146.82,130.76 130.04,128.05 124,112.16 134.75,98.98"/>
	<polygon points="179.01,91.26 185.04,107.15 174.3,120.32 157.52,117.6 151.48,101.72 162.23,88.54"/>
	<polygon points="206.49,80.81 212.52,96.7 201.78,109.88 185,107.16 178.96,91.27 189.71,78.1"/>
	<polygon points="233.97,70.37 240,86.26 229.26,99.43 212.48,96.72 206.44,80.83 217.19,67.65"/>
	<polygon points="261.45,59.93 267.48,75.82 256.74,88.99 239.96,86.28 233.92,70.39 244.66,57.21"/>
	<polygon points="288.92,49.48 294.96,65.37 284.22,78.55 267.44,75.83 261.4,59.94 272.14,46.77"/>
	<polygon points="316.4,39.04 322.44,54.93 311.7,68.11 294.92,65.39 288.88,49.5 299.62,36.33"/>
	<polygon points="343.88,28.6 349.92,44.49 339.18,57.66 322.4,54.95 316.36,39.06 327.1,25.88"/>
</g>
</svg>
