<?xml version="1.0" encoding="iso-8859-1"?>
<!-- Generator: Adobe Illustrator 17.1.0, SVG Export Plug-In . SVG Version: 6.00 Build 0)  -->
<!DOCTYPE svg PUBLIC "-//W3C//DTD SVG 1.1//EN" "http://www.w3.org/Graphics/SVG/1.1/DTD/svg11.dtd">
<svg version="1.1" id="&#x421;&#x43B;&#x43E;&#x439;_1"
	 xmlns="http://www.w3.org/2000/svg" xmlns:xlink="http://www.w3.org/1999/xlink" x="0px" y="0px" viewBox="0 0 147.617 225.034"
	 style="enable-background:new 0 0 147.617 225.034;" xml:space="preserve">
<g id="XMLID_28_">
	<g id="XMLID_29_">
		<path id="XMLID_30_" style="fill:#0B0B0A;" d="M73.805,225.034l-1.551-1.806c-0.182-0.194-18.231-21.134-36.039-48.097
			c-10.476-15.862-18.825-30.683-24.824-44.074C3.829,114.201,0,99.538,0,87.505c0-12.748,1.933-24.77,5.75-35.737
			c3.666-10.53,8.974-19.825,15.772-27.641C35.055,8.567,53.623,0,73.805,0c20.186,0,38.754,8.567,52.29,24.127
			c6.798,7.816,12.1,17.111,15.772,27.641c3.817,10.967,5.75,22.988,5.75,35.737c0,12.033-3.835,26.696-11.385,43.552
			c-5.998,13.391-14.354,28.211-24.83,44.074c-17.801,26.963-35.858,47.903-36.039,48.097L73.805,225.034z M73.805,4.108
			c-18.971,0-36.433,8.083-49.175,22.721c-6.453,7.429-11.494,16.274-14.984,26.296C5.98,63.644,4.12,75.217,4.12,87.505
			c0,26.078,19.32,60.821,35.536,85.36c14.633,22.152,29.417,40.196,34.149,45.843c4.738-5.647,19.547-23.715,34.185-45.88
			c16.196-24.551,35.506-59.257,35.506-85.323c0-12.288-1.86-23.861-5.526-34.379c-3.49-10.022-8.531-18.868-14.984-26.296
			C110.251,12.191,92.782,4.108,73.805,4.108z M73.805,111.451c-22.733,0-41.232-18.492-41.232-41.226
			c0-22.733,18.499-41.25,41.232-41.25c22.74,0,41.238,18.517,41.238,41.25C115.044,92.958,96.545,111.451,73.805,111.451z
			 M73.805,33.095c-20.461,0-37.118,16.662-37.118,37.129c0,20.456,16.657,37.118,37.118,37.118
			c20.465,0,37.118-16.663,37.118-37.118C110.924,49.757,94.27,33.095,73.805,33.095z"/>
	</g>
</g>
<g>
</g>
<g>
</g>
<g>
</g>
<g>
</g>
<g>
</g>
<g>
</g>
</svg>
