<?xml version="1.0" encoding="iso-8859-1"?>
<!-- Generator: Adobe Illustrator 17.1.0, SVG Export Plug-In . SVG Version: 6.00 Build 0)  -->
<!DOCTYPE svg PUBLIC "-//W3C//DTD SVG 1.1//EN" "http://www.w3.org/Graphics/SVG/1.1/DTD/svg11.dtd">
<svg version="1.1" id="&#x421;&#x43B;&#x43E;&#x439;_1"
	 xmlns="http://www.w3.org/2000/svg" xmlns:xlink="http://www.w3.org/1999/xlink" x="0px" y="0px" viewBox="0 0 158.375 157.048"
	 style="enable-background:new 0 0 158.375 157.048;" xml:space="preserve">
<g id="XMLID_7_">
	<path id="XMLID_8_" style="fill:#0B0B0A;" d="M113.221,104.658L95.19,120.062c-7.186-3.429-44.727-22.675-58.518-56.317
		l18.725-17.415L41.008,0H23.705l-0.481,0.266C22.945,0.421-4.819,16.177,0.734,41.525c9.296,42.419,37.678,96.889,120.07,115.463
		l0.395,0.051c0.043,0,0.155,0.008,0.323,0.008c2.755,0,21.039-0.799,36.415-20.981l0.438-0.567v-15.446L113.221,104.658z
		 M154.114,134.055c-14.051,18.008-30.739,18.704-32.6,18.721C41.477,134.665,13.915,81.786,4.89,40.614
		C0.382,20.053,21.445,6.317,24.838,4.255h13.033l12.665,40.777L31.652,62.601l0.522,1.341
		c15.324,39.642,60.592,59.739,62.508,60.573l1.221,0.533l18.237-15.584l39.973,13.633V134.055z"/>
</g>
<g>
</g>
<g>
</g>
<g>
</g>
<g>
</g>
<g>
</g>
<g>
</g>
</svg>
