<?xml version="1.0" encoding="iso-8859-1"?>
<!-- Generator: Adobe Illustrator 17.1.0, SVG Export Plug-In . SVG Version: 6.00 Build 0)  -->
<!DOCTYPE svg PUBLIC "-//W3C//DTD SVG 1.1//EN" "http://www.w3.org/Graphics/SVG/1.1/DTD/svg11.dtd">
<svg version="1.1" id="&#x421;&#x43B;&#x43E;&#x439;_1"
	 xmlns="http://www.w3.org/2000/svg" xmlns:xlink="http://www.w3.org/1999/xlink" x="0px" y="0px" viewBox="0 0 94.446 92.114"
	 style="enable-background:new 0 0 94.446 92.114;" xml:space="preserve">
<path style="fill:#666666;" d="M47.22,0C21.145,0,0,21.142,0,47.226
	c0,20.862,13.529,38.562,32.296,44.807c2.361,0.433,3.223-1.025,3.223-2.276c0-1.121-0.041-4.091-0.064-8.032
	c-13.136,2.854-15.907-6.33-15.907-6.33c-2.147-5.455-5.243-6.908-5.243-6.908c-4.288-2.93,0.324-2.871,0.324-2.871
	c4.739,0.334,7.233,4.867,7.233,4.867c4.212,7.216,11.052,5.133,13.743,3.924c0.429-3.052,1.649-5.133,2.998-6.313
	c-10.486-1.192-21.51-5.243-21.51-23.339c0-5.155,1.84-9.371,4.861-12.672c-0.486-1.195-2.106-5.996,0.463-12.497
	c0,0,3.965-1.27,12.986,4.841c3.767-1.047,7.806-1.571,11.822-1.59c4.01,0.018,8.05,0.542,11.822,1.59
	c9.016-6.111,12.973-4.841,12.973-4.841c2.576,6.502,0.955,11.303,0.47,12.497c3.027,3.301,4.854,7.516,4.854,12.672
	c0,18.141-11.041,22.133-21.561,23.302c1.696,1.458,3.206,4.34,3.206,8.745c0,6.313-0.058,11.406-0.058,12.955
	c0,1.263,0.851,2.732,3.247,2.271c18.749-6.257,32.267-23.945,32.267-44.801C94.446,21.142,73.301,0,47.22,0z"/>
</svg>
