<?xml version="1.0" encoding="iso-8859-1"?>
<!-- Generator: Adobe Illustrator 17.1.0, SVG Export Plug-In . SVG Version: 6.00 Build 0)  -->
<!DOCTYPE svg PUBLIC "-//W3C//DTD SVG 1.1//EN" "http://www.w3.org/Graphics/SVG/1.1/DTD/svg11.dtd">
<svg version="1.1" id="&#x421;&#x43B;&#x43E;&#x439;_1"
	 xmlns="http://www.w3.org/2000/svg" xmlns:xlink="http://www.w3.org/1999/xlink" x="0px" y="0px" viewBox="0 0 948.67 394.83"
	 style="enable-background:new 0 0 948.67 394.83;" xml:space="preserve">
<g>
	<polyline style="fill:none;stroke:#49BACE;stroke-width:4;stroke-miterlimit:10;" points="779.32,200.97 447.72,286.39 
		120.96,200.97 782.04,198.86 	"/>
	<g>
		<g>
			<path d="M772.41,257.99c1,0.64,3.32,1.64,5.76,1.64c4.52,0,5.92-2.88,5.88-5.04c-0.04-3.64-3.32-5.2-6.72-5.2h-1.96v-2.64h1.96
				c2.56,0,5.8-1.32,5.8-4.4c0-2.08-1.32-3.92-4.56-3.92c-2.08,0-4.08,0.92-5.2,1.72l-0.92-2.56c1.36-1,4-2,6.8-2
				c5.12,0,7.44,3.04,7.44,6.2c0,2.68-1.6,4.96-4.8,6.12v0.08c3.2,0.64,5.8,3.04,5.8,6.68c0,4.16-3.24,7.8-9.48,7.8
				c-2.92,0-5.48-0.92-6.76-1.76L772.41,257.99z"/>
			<path d="M806.73,238.99h-9.92l-1,6.68c0.6-0.08,1.16-0.16,2.12-0.16c2,0,4,0.44,5.6,1.4c2.04,1.16,3.72,3.4,3.72,6.68
				c0,5.08-4.04,8.88-9.68,8.88c-2.84,0-5.24-0.8-6.48-1.6l0.88-2.68c1.08,0.64,3.2,1.44,5.56,1.44c3.32,0,6.16-2.16,6.16-5.64
				c-0.04-3.36-2.28-5.76-7.48-5.76c-1.48,0-2.64,0.16-3.6,0.28l1.68-12.48h12.44V238.99z"/>
			<path d="M822.57,243.35c0,5.48-2.88,8.2-6.24,8.2c-3.24,0-6.04-2.6-6.08-7.84c0-5.2,2.84-8.12,6.28-8.12
				C820.17,235.59,822.57,238.39,822.57,243.35z M813.05,243.59c-0.08,3.32,1.16,5.84,3.36,5.84c2.32,0,3.36-2.48,3.36-5.92
				c0-3.16-0.92-5.8-3.36-5.8C814.21,237.71,813.05,240.31,813.05,243.59z M816.09,262.47l15.28-26.88h2.24l-15.28,26.88H816.09z
				 M839.49,254.11c0,5.48-2.88,8.2-6.2,8.2c-3.24,0-6.04-2.6-6.08-7.8c0-5.24,2.84-8.16,6.28-8.16
				C837.13,246.35,839.49,249.15,839.49,254.11z M829.97,254.35c-0.04,3.32,1.24,5.84,3.4,5.84c2.32,0,3.36-2.48,3.36-5.92
				c0-3.16-0.92-5.8-3.36-5.8C831.17,248.47,829.97,251.07,829.97,254.35z"/>
		</g>
	</g>
	<g>
		<g>
			<path d="M425.81,361.61v-7.08h-12.08v-2.32l11.6-16.6h3.8v16.16h3.64v2.76h-3.64v7.08H425.81z M425.81,351.77v-8.68
				c0-1.36,0.04-2.72,0.12-4.08h-0.12c-0.8,1.52-1.44,2.64-2.16,3.84l-6.36,8.84v0.08H425.81z"/>
			<path d="M451.85,348.33c0,8.84-3.28,13.72-9.04,13.72c-5.08,0-8.52-4.76-8.6-13.36c0-8.72,3.76-13.52,9.04-13.52
				C448.73,335.17,451.85,340.05,451.85,348.33z M437.73,348.73c0,6.76,2.08,10.6,5.28,10.6c3.6,0,5.32-4.2,5.32-10.84
				c0-6.4-1.64-10.6-5.28-10.6C439.97,337.89,437.73,341.65,437.73,348.73z"/>
			<path d="M465.93,342.93c0,5.48-2.88,8.2-6.24,8.2c-3.24,0-6.04-2.6-6.08-7.84c0-5.2,2.84-8.12,6.28-8.12
				C463.53,335.17,465.93,337.97,465.93,342.93z M456.41,343.17c-0.08,3.32,1.16,5.84,3.36,5.84c2.32,0,3.36-2.48,3.36-5.92
				c0-3.16-0.92-5.8-3.36-5.8C457.57,337.29,456.41,339.89,456.41,343.17z M459.45,362.05l15.28-26.88h2.24l-15.28,26.88H459.45z
				 M482.84,353.69c0,5.48-2.88,8.2-6.2,8.2c-3.24,0-6.04-2.6-6.08-7.8c0-5.24,2.84-8.16,6.28-8.16
				C480.48,345.93,482.84,348.73,482.84,353.69z M473.33,353.93c-0.04,3.32,1.24,5.84,3.4,5.84c2.32,0,3.36-2.48,3.36-5.92
				c0-3.16-0.92-5.8-3.36-5.8C474.53,348.05,473.33,350.65,473.33,353.93z"/>
		</g>
	</g>
	<g>
		<g>
			<path d="M83.47,271.94v-2.16l2.76-2.68c6.64-6.32,9.64-9.68,9.68-13.6c0-2.64-1.28-5.08-5.16-5.08c-2.36,0-4.32,1.2-5.52,2.2
				l-1.12-2.48c1.8-1.52,4.36-2.64,7.36-2.64c5.6,0,7.96,3.84,7.96,7.56c0,4.8-3.48,8.68-8.96,13.96l-2.08,1.92v0.08h11.68v2.92
				H83.47z"/>
			<path d="M118.62,248.9h-9.92l-1,6.68c0.6-0.08,1.16-0.16,2.12-0.16c2,0,4,0.44,5.6,1.4c2.04,1.16,3.72,3.4,3.72,6.68
				c0,5.08-4.04,8.88-9.68,8.88c-2.84,0-5.24-0.8-6.48-1.6l0.88-2.68c1.08,0.64,3.2,1.44,5.56,1.44c3.32,0,6.16-2.16,6.16-5.64
				c-0.04-3.36-2.28-5.76-7.48-5.76c-1.48,0-2.64,0.16-3.6,0.28l1.68-12.48h12.44V248.9z"/>
			<path d="M134.46,253.26c0,5.48-2.88,8.2-6.24,8.2c-3.24,0-6.04-2.6-6.08-7.84c0-5.2,2.84-8.12,6.28-8.12
				C132.06,245.5,134.46,248.3,134.46,253.26z M124.94,253.5c-0.08,3.32,1.16,5.84,3.36,5.84c2.32,0,3.36-2.48,3.36-5.92
				c0-3.16-0.92-5.8-3.36-5.8C126.1,247.62,124.94,250.22,124.94,253.5z M127.98,272.38l15.28-26.88h2.24l-15.28,26.88H127.98z
				 M151.38,264.02c0,5.48-2.88,8.2-6.2,8.2c-3.24,0-6.04-2.6-6.08-7.8c0-5.24,2.84-8.16,6.28-8.16
				C149.02,256.26,151.38,259.06,151.38,264.02z M141.86,264.26c-0.04,3.32,1.24,5.84,3.4,5.84c2.32,0,3.36-2.48,3.36-5.92
				c0-3.16-0.92-5.8-3.36-5.8C143.06,258.38,141.86,260.98,141.86,264.26z"/>
		</g>
	</g>
	<g>
		<path d="M384.5,380.76c0.95-0.14,2.09-0.25,3.33-0.25c2.25,0,3.85,0.52,4.92,1.51c1.08,0.99,1.71,2.4,1.71,4.36
			c0,1.98-0.61,3.6-1.75,4.72c-1.13,1.13-3.01,1.75-5.37,1.75c-1.12,0-2.05-0.05-2.84-0.14V380.76z M386.07,391.5
			c0.4,0.07,0.97,0.09,1.58,0.09c3.35,0,5.17-1.87,5.17-5.15c0.02-2.86-1.6-4.68-4.92-4.68c-0.81,0-1.42,0.07-1.84,0.16V391.5z"/>
		<path d="M403.13,387.05h-4.72v4.38h5.26v1.31h-6.82V380.6h6.55v1.31h-4.99v3.83h4.72V387.05z"/>
		<path d="M408.89,392.74l-3.96-12.14h1.69l1.89,5.98c0.52,1.64,0.97,3.12,1.3,4.54h0.04c0.34-1.4,0.85-2.93,1.39-4.52l2.05-6h1.67
			l-4.34,12.14H408.89z"/>
		<path d="M422.91,387.05h-4.72v4.38h5.26v1.31h-6.82V380.6h6.55v1.31h-4.99v3.83h4.72V387.05z"/>
		<path d="M425.85,380.6h1.57v10.82h5.19v1.31h-6.75V380.6z"/>
		<path d="M444.37,386.54c0,4.18-2.54,6.39-5.64,6.39c-3.21,0-5.46-2.49-5.46-6.16c0-3.85,2.4-6.37,5.64-6.37
			C442.23,380.4,444.37,382.94,444.37,386.54z M434.95,386.74c0,2.59,1.4,4.92,3.87,4.92c2.48,0,3.89-2.29,3.89-5.04
			c0-2.41-1.26-4.93-3.87-4.93C436.25,381.68,434.95,384.08,434.95,386.74z"/>
		<path d="M446.76,380.75c0.76-0.13,1.75-0.23,3.01-0.23c1.55,0,2.68,0.36,3.4,1.01c0.67,0.58,1.06,1.46,1.06,2.54
			c0,1.1-0.32,1.96-0.94,2.59c-0.83,0.88-2.18,1.33-3.71,1.33c-0.47,0-0.9-0.02-1.26-0.11v4.86h-1.57V380.75z M448.33,386.6
			c0.34,0.09,0.77,0.13,1.3,0.13c1.89,0,3.04-0.92,3.04-2.59c0-1.6-1.13-2.38-2.86-2.38c-0.68,0-1.21,0.05-1.48,0.13V386.6z"/>
		<path d="M466.71,387.41c-0.09-1.69-0.2-3.73-0.18-5.24h-0.05c-0.41,1.42-0.92,2.93-1.53,4.61l-2.14,5.89h-1.19l-1.96-5.78
			c-0.58-1.71-1.06-3.28-1.4-4.72h-0.04c-0.04,1.51-0.13,3.55-0.23,5.37l-0.32,5.2h-1.49L457,380.6h2l2.07,5.87
			c0.5,1.49,0.92,2.83,1.22,4.09h0.05c0.31-1.22,0.74-2.56,1.28-4.09l2.16-5.87h2l0.76,12.14h-1.53L466.71,387.41z"/>
		<path d="M477.6,387.05h-4.72v4.38h5.26v1.31h-6.82V380.6h6.55v1.31h-4.99v3.83h4.72V387.05z"/>
		<path d="M480.53,392.74V380.6h1.71l3.89,6.14c0.9,1.42,1.6,2.7,2.18,3.94l0.04-0.02c-0.14-1.62-0.18-3.1-0.18-4.99v-5.08h1.48
			v12.14h-1.58l-3.85-6.16c-0.85-1.35-1.66-2.74-2.27-4.05l-0.05,0.02c0.09,1.53,0.13,2.99,0.13,5.01v5.19H480.53z"/>
		<path d="M495.04,381.93h-3.69v-1.33h8.98v1.33h-3.71v10.8h-1.58V381.93z"/>
	</g>
	<g>
		<path d="M13.46,307.86c-0.7,0.25-2.09,0.67-3.73,0.67c-1.84,0-3.35-0.47-4.54-1.6c-1.04-1.01-1.69-2.63-1.69-4.52
			c0.02-3.62,2.5-6.27,6.57-6.27c1.4,0,2.5,0.31,3.02,0.56l-0.38,1.28c-0.65-0.29-1.46-0.52-2.68-0.52c-2.95,0-4.88,1.84-4.88,4.88
			c0,3.08,1.85,4.9,4.68,4.9c1.03,0,1.73-0.14,2.09-0.32v-3.62H9.46v-1.26h4V307.86z"/>
		<path d="M22.5,302.71h-4.72v4.38h5.26v1.31h-6.82v-12.14h6.55v1.31h-4.99v3.83h4.72V302.71z"/>
		<path d="M25.43,308.4v-12.14h1.71l3.89,6.14c0.9,1.42,1.6,2.7,2.18,3.94l0.04-0.02c-0.14-1.62-0.18-3.1-0.18-4.99v-5.08h1.48
			v12.14h-1.58l-3.85-6.16c-0.85-1.35-1.66-2.74-2.27-4.05l-0.05,0.02c0.09,1.53,0.13,2.99,0.13,5.01v5.19H25.43z"/>
		<path d="M43.91,302.71H39.2v4.38h5.26v1.31h-6.82v-12.14h6.55v1.31H39.2v3.83h4.72V302.71z"/>
		<path d="M46.85,296.43c0.79-0.16,1.93-0.25,3.01-0.25c1.67,0,2.75,0.31,3.51,0.99c0.61,0.54,0.95,1.37,0.95,2.3
			c0,1.6-1.01,2.67-2.29,3.1v0.05c0.94,0.32,1.49,1.19,1.78,2.45c0.4,1.69,0.68,2.86,0.94,3.33h-1.62c-0.2-0.34-0.47-1.39-0.81-2.9
			c-0.36-1.67-1.01-2.3-2.43-2.36h-1.48v5.26h-1.57V296.43z M48.41,301.96h1.6c1.67,0,2.74-0.92,2.74-2.3
			c0-1.57-1.13-2.25-2.79-2.27c-0.76,0-1.3,0.07-1.55,0.14V301.96z"/>
		<path d="M58.94,304.58l-1.26,3.82h-1.62l4.12-12.14h1.89l4.14,12.14h-1.67l-1.3-3.82H58.94z M62.92,303.36l-1.19-3.49
			c-0.27-0.79-0.45-1.51-0.63-2.21h-0.04c-0.18,0.72-0.38,1.46-0.61,2.2l-1.19,3.51H62.92z"/>
		<path d="M68.36,296.27h1.57v10.82h5.19v1.31h-6.75V296.27z"/>
		<path d="M82.99,304.58l-1.26,3.82h-1.62l4.12-12.14h1.89l4.14,12.14h-1.67l-1.3-3.82H82.99z M86.97,303.36l-1.19-3.49
			c-0.27-0.79-0.45-1.51-0.63-2.21h-0.04c-0.18,0.72-0.38,1.46-0.61,2.2l-1.19,3.51H86.97z"/>
		<path d="M92.4,296.43c0.95-0.14,2.09-0.25,3.33-0.25c2.25,0,3.85,0.52,4.92,1.51c1.08,0.99,1.71,2.4,1.71,4.36
			c0,1.98-0.61,3.6-1.75,4.72c-1.13,1.13-3.01,1.75-5.37,1.75c-1.12,0-2.05-0.05-2.84-0.14V296.43z M93.97,307.16
			c0.4,0.07,0.97,0.09,1.58,0.09c3.35,0,5.17-1.87,5.17-5.15c0.02-2.86-1.6-4.68-4.92-4.68c-0.81,0-1.42,0.07-1.84,0.16V307.16z"/>
		<path d="M114.98,303.07c-0.09-1.69-0.2-3.73-0.18-5.24h-0.05c-0.41,1.42-0.92,2.93-1.53,4.61l-2.14,5.89h-1.19l-1.96-5.78
			c-0.58-1.71-1.06-3.28-1.4-4.72h-0.04c-0.04,1.51-0.13,3.55-0.23,5.37l-0.32,5.2h-1.49l0.85-12.14h2l2.07,5.87
			c0.5,1.49,0.92,2.83,1.22,4.09h0.05c0.31-1.22,0.74-2.56,1.28-4.09l2.16-5.87h2l0.76,12.14h-1.53L114.98,303.07z"/>
		<path d="M121.15,296.27v12.14h-1.57v-12.14H121.15z"/>
		<path d="M124.24,308.4v-12.14h1.71l3.89,6.14c0.9,1.42,1.6,2.7,2.18,3.94l0.04-0.02c-0.14-1.62-0.18-3.1-0.18-4.99v-5.08h1.48
			v12.14h-1.58l-3.85-6.16c-0.85-1.35-1.66-2.74-2.27-4.05l-0.05,0.02c0.09,1.53,0.13,2.99,0.13,5.01v5.19H124.24z"/>
		<path d="M138.01,296.27v12.14h-1.57v-12.14H138.01z"/>
		<path d="M140.89,306.49c0.7,0.43,1.73,0.79,2.81,0.79c1.6,0,2.54-0.85,2.54-2.07c0-1.13-0.65-1.78-2.29-2.41
			c-1.98-0.7-3.21-1.73-3.21-3.44c0-1.89,1.57-3.29,3.93-3.29c1.24,0,2.14,0.29,2.68,0.59l-0.43,1.28c-0.4-0.22-1.21-0.58-2.3-0.58
			c-1.66,0-2.29,0.99-2.29,1.82c0,1.13,0.74,1.69,2.41,2.34c2.05,0.79,3.1,1.78,3.1,3.56c0,1.87-1.39,3.49-4.25,3.49
			c-1.17,0-2.45-0.34-3.1-0.77L140.89,306.49z"/>
		<path d="M152.65,297.6h-3.69v-1.33h8.98v1.33h-3.71v10.8h-1.58V297.6z"/>
		<path d="M159.65,296.43c0.79-0.16,1.93-0.25,3.01-0.25c1.67,0,2.75,0.31,3.51,0.99c0.61,0.54,0.95,1.37,0.95,2.3
			c0,1.6-1.01,2.67-2.29,3.1v0.05c0.94,0.32,1.49,1.19,1.78,2.45c0.4,1.69,0.68,2.86,0.94,3.33h-1.62c-0.2-0.34-0.47-1.39-0.81-2.9
			c-0.36-1.67-1.01-2.3-2.43-2.36h-1.48v5.26h-1.57V296.43z M161.22,301.96h1.6c1.67,0,2.74-0.92,2.74-2.3
			c0-1.57-1.13-2.25-2.79-2.27c-0.76,0-1.3,0.07-1.55,0.14V301.96z"/>
		<path d="M171.74,304.58l-1.26,3.82h-1.62l4.12-12.14h1.89l4.14,12.14h-1.67l-1.3-3.82H171.74z M175.72,303.36l-1.19-3.49
			c-0.27-0.79-0.45-1.51-0.63-2.21h-0.04c-0.18,0.72-0.38,1.46-0.61,2.2l-1.19,3.51H175.72z"/>
		<path d="M182.08,297.6h-3.69v-1.33h8.98v1.33h-3.71v10.8h-1.58V297.6z"/>
		<path d="M190.64,296.27v12.14h-1.57v-12.14H190.64z"/>
		<path d="M204.11,302.21c0,4.18-2.54,6.39-5.64,6.39c-3.21,0-5.46-2.49-5.46-6.16c0-3.85,2.39-6.37,5.64-6.37
			C201.97,296.07,204.11,298.61,204.11,302.21z M194.69,302.41c0,2.59,1.4,4.92,3.87,4.92c2.48,0,3.89-2.29,3.89-5.04
			c0-2.41-1.26-4.93-3.87-4.93C195.99,297.35,194.69,299.74,194.69,302.41z"/>
		<path d="M206.5,308.4v-12.14h1.71l3.89,6.14c0.9,1.42,1.6,2.7,2.18,3.94l0.04-0.02c-0.14-1.62-0.18-3.1-0.18-4.99v-5.08h1.48
			v12.14h-1.58l-3.85-6.16c-0.85-1.35-1.66-2.74-2.27-4.05l-0.05,0.02c0.09,1.53,0.13,2.99,0.13,5.01v5.19H206.5z"/>
	</g>
	<g>
		<path d="M664.11,289.76c-0.09-1.69-0.2-3.73-0.18-5.24h-0.05c-0.41,1.42-0.92,2.93-1.53,4.61l-2.14,5.89h-1.19l-1.96-5.78
			c-0.58-1.71-1.06-3.28-1.4-4.72h-0.04c-0.04,1.51-0.13,3.55-0.23,5.37l-0.32,5.2h-1.5l0.85-12.14h2l2.07,5.87
			c0.5,1.49,0.92,2.83,1.22,4.09h0.05c0.31-1.22,0.74-2.56,1.28-4.09l2.16-5.87h2l0.76,12.14h-1.53L664.11,289.76z"/>
		<path d="M670.49,291.27l-1.26,3.82h-1.62l4.12-12.14h1.89l4.14,12.14h-1.67l-1.3-3.82H670.49z M674.47,290.05l-1.19-3.49
			c-0.27-0.79-0.45-1.51-0.63-2.21h-0.04c-0.18,0.72-0.38,1.46-0.61,2.2l-1.19,3.51H674.47z"/>
		<path d="M679.91,283.12c0.79-0.16,1.93-0.25,3.01-0.25c1.67,0,2.75,0.31,3.51,0.99c0.61,0.54,0.95,1.37,0.95,2.3
			c0,1.6-1.01,2.67-2.29,3.1v0.05c0.94,0.32,1.5,1.19,1.78,2.45c0.4,1.69,0.68,2.86,0.94,3.33h-1.62c-0.2-0.34-0.47-1.39-0.81-2.9
			c-0.36-1.67-1.01-2.3-2.43-2.36h-1.48v5.26h-1.57V283.12z M681.47,288.64h1.6c1.67,0,2.74-0.92,2.74-2.3
			c0-1.57-1.13-2.25-2.79-2.27c-0.76,0-1.3,0.07-1.55,0.14V288.64z"/>
		<path d="M689.95,282.95h1.57v5.85h0.05c0.32-0.47,0.65-0.9,0.95-1.3l3.71-4.56h1.95l-4.39,5.15l4.74,6.99h-1.85l-4-5.96
			l-1.15,1.33v4.63h-1.57V282.95z"/>
		<path d="M706.35,289.4h-4.72v4.38h5.26v1.31h-6.82v-12.14h6.55v1.31h-4.99v3.83h4.72V289.4z"/>
		<path d="M711.88,284.29h-3.69v-1.33h8.98v1.33h-3.71v10.8h-1.58V284.29z"/>
		<path d="M720.44,282.95v12.14h-1.57v-12.14H720.44z"/>
		<path d="M723.54,295.09v-12.14h1.71l3.89,6.14c0.9,1.42,1.6,2.7,2.18,3.94l0.04-0.02c-0.14-1.62-0.18-3.1-0.18-4.99v-5.08h1.48
			v12.14h-1.58l-3.85-6.16c-0.85-1.35-1.66-2.74-2.27-4.05l-0.05,0.02c0.09,1.53,0.13,2.99,0.13,5.01v5.19H723.54z"/>
		<path d="M744.98,294.55c-0.7,0.25-2.09,0.67-3.73,0.67c-1.84,0-3.35-0.47-4.54-1.6c-1.04-1.01-1.69-2.63-1.69-4.52
			c0.02-3.62,2.5-6.27,6.57-6.27c1.4,0,2.5,0.31,3.03,0.56l-0.38,1.28c-0.65-0.29-1.46-0.52-2.68-0.52c-2.95,0-4.88,1.84-4.88,4.88
			c0,3.08,1.85,4.9,4.68,4.9c1.03,0,1.73-0.14,2.09-0.32v-3.62h-2.47v-1.26h4V294.55z"/>
		<path d="M758.96,295.09c-0.34-0.34-0.67-0.68-1.13-1.19c-1.04,0.97-2.21,1.39-3.55,1.39c-2.36,0-3.73-1.58-3.73-3.4
			c0-1.66,0.99-2.79,2.38-3.55v-0.05c-0.63-0.79-1.01-1.67-1.01-2.54c0-1.48,1.06-2.99,3.08-2.99c1.51,0,2.68,1.01,2.68,2.58
			c0,1.28-0.74,2.29-2.67,3.24v0.05c1.03,1.19,2.18,2.52,2.95,3.38c0.56-0.85,0.94-2.02,1.17-3.55h1.44
			c-0.32,1.91-0.85,3.42-1.75,4.48c0.65,0.68,1.28,1.37,2,2.14H758.96z M757.06,293c-0.72-0.79-2.07-2.27-3.42-3.82
			c-0.65,0.41-1.57,1.19-1.57,2.47c0,1.39,1.03,2.45,2.48,2.45C755.6,294.1,756.48,293.63,757.06,293z M753.36,285.6
			c0,0.86,0.4,1.53,0.92,2.18c1.22-0.7,2.02-1.35,2.02-2.38c0-0.74-0.41-1.57-1.41-1.57C753.89,283.83,753.36,284.66,753.36,285.6z"
			/>
		<path d="M774.73,294.69c-0.58,0.29-1.73,0.58-3.2,0.58c-3.42,0-6-2.16-6-6.14c0-3.8,2.58-6.37,6.34-6.37
			c1.51,0,2.47,0.32,2.88,0.54l-0.38,1.28c-0.59-0.29-1.44-0.5-2.45-0.5c-2.84,0-4.74,1.82-4.74,5.01c0,2.97,1.71,4.88,4.66,4.88
			c0.96,0,1.93-0.2,2.56-0.5L774.73,294.69z"/>
		<path d="M787.04,288.89c0,4.18-2.54,6.39-5.64,6.39c-3.2,0-5.46-2.49-5.46-6.16c0-3.85,2.39-6.37,5.64-6.37
			C784.9,282.75,787.04,285.29,787.04,288.89z M777.63,289.09c0,2.59,1.4,4.92,3.87,4.92c2.48,0,3.89-2.29,3.89-5.04
			c0-2.41-1.26-4.93-3.87-4.93C778.92,284.03,777.63,286.43,777.63,289.09z"/>
		<path d="M799.66,289.76c-0.09-1.69-0.2-3.73-0.18-5.24h-0.05c-0.41,1.42-0.92,2.93-1.53,4.61l-2.14,5.89h-1.19l-1.96-5.78
			c-0.58-1.71-1.06-3.28-1.4-4.72h-0.04c-0.04,1.51-0.13,3.55-0.23,5.37l-0.32,5.2h-1.5l0.85-12.14h2l2.07,5.87
			c0.5,1.49,0.92,2.83,1.22,4.09h0.05c0.31-1.22,0.74-2.56,1.28-4.09l2.16-5.87h2l0.76,12.14h-1.53L799.66,289.76z"/>
		<path d="M814.49,289.76c-0.09-1.69-0.2-3.73-0.18-5.24h-0.05c-0.41,1.42-0.92,2.93-1.53,4.61l-2.14,5.89h-1.19l-1.96-5.78
			c-0.58-1.71-1.06-3.28-1.4-4.72h-0.04c-0.04,1.51-0.13,3.55-0.23,5.37l-0.32,5.2h-1.49l0.85-12.14h2l2.07,5.87
			c0.5,1.49,0.92,2.83,1.22,4.09h0.05c0.31-1.22,0.74-2.56,1.28-4.09l2.16-5.87h2l0.76,12.14h-1.53L814.49,289.76z"/>
		<path d="M820.66,282.95v7.18c0,2.72,1.21,3.87,2.83,3.87c1.8,0,2.95-1.19,2.95-3.87v-7.18h1.58v7.08c0,3.73-1.96,5.26-4.59,5.26
			c-2.49,0-4.36-1.42-4.36-5.19v-7.15H820.66z"/>
		<path d="M831.1,295.09v-12.14h1.71l3.89,6.14c0.9,1.42,1.6,2.7,2.18,3.94l0.04-0.02c-0.14-1.62-0.18-3.1-0.18-4.99v-5.08h1.48
			v12.14h-1.58l-3.85-6.16c-0.85-1.35-1.66-2.74-2.27-4.05l-0.05,0.02c0.09,1.53,0.13,2.99,0.13,5.01v5.19H831.1z"/>
		<path d="M844.87,282.95v12.14h-1.57v-12.14H844.87z"/>
		<path d="M850.27,284.29h-3.69v-1.33h8.98v1.33h-3.71v10.8h-1.58V284.29z"/>
		<path d="M860.48,295.09v-5.15l-3.83-6.99h1.78l1.71,3.35c0.47,0.92,0.83,1.66,1.21,2.5h0.04c0.34-0.79,0.76-1.58,1.22-2.5
			l1.75-3.35h1.78l-4.07,6.97v5.17H860.48z"/>
		<path d="M871.69,283.12c0.68-0.14,1.76-0.25,2.86-0.25c1.57,0,2.58,0.27,3.33,0.88c0.63,0.47,1.01,1.19,1.01,2.14
			c0,1.17-0.77,2.2-2.05,2.67v0.04c1.15,0.29,2.5,1.24,2.5,3.04c0,1.04-0.42,1.84-1.03,2.43c-0.85,0.77-2.21,1.13-4.2,1.13
			c-1.08,0-1.91-0.07-2.43-0.14V283.12z M873.26,288.08h1.42c1.66,0,2.63-0.86,2.63-2.04c0-1.42-1.08-1.98-2.67-1.98
			c-0.72,0-1.13,0.05-1.39,0.11V288.08z M873.26,293.9c0.31,0.05,0.76,0.07,1.31,0.07c1.62,0,3.11-0.59,3.11-2.36
			c0-1.66-1.42-2.34-3.13-2.34h-1.3V293.9z"/>
		<path d="M883.37,282.95v7.18c0,2.72,1.21,3.87,2.83,3.87c1.8,0,2.95-1.19,2.95-3.87v-7.18h1.58v7.08c0,3.73-1.96,5.26-4.59,5.26
			c-2.49,0-4.36-1.42-4.36-5.19v-7.15H883.37z"/>
		<path d="M895.38,282.95v12.14h-1.57v-12.14H895.38z"/>
		<path d="M898.47,282.95h1.57v10.82h5.19v1.31h-6.75V282.95z"/>
		<path d="M907.33,283.12c0.95-0.14,2.09-0.25,3.33-0.25c2.25,0,3.85,0.52,4.92,1.51c1.08,0.99,1.71,2.4,1.71,4.36
			c0,1.98-0.61,3.6-1.75,4.72c-1.13,1.13-3.01,1.75-5.37,1.75c-1.12,0-2.05-0.05-2.84-0.14V283.12z M908.9,293.85
			c0.4,0.07,0.97,0.09,1.58,0.09c3.35,0,5.17-1.87,5.17-5.15c0.02-2.86-1.6-4.68-4.92-4.68c-0.81,0-1.42,0.07-1.84,0.16V293.85z"/>
		<path d="M921.24,282.95v12.14h-1.57v-12.14H921.24z"/>
		<path d="M924.34,295.09v-12.14h1.71l3.89,6.14c0.9,1.42,1.6,2.7,2.18,3.94l0.04-0.02c-0.14-1.62-0.18-3.1-0.18-4.99v-5.08h1.48
			v12.14h-1.58l-3.85-6.16c-0.85-1.35-1.66-2.74-2.27-4.05l-0.05,0.02c0.09,1.53,0.13,2.99,0.13,5.01v5.19H924.34z"/>
		<path d="M945.78,294.55c-0.7,0.25-2.09,0.67-3.73,0.67c-1.84,0-3.35-0.47-4.54-1.6c-1.04-1.01-1.69-2.63-1.69-4.52
			c0.02-3.62,2.5-6.27,6.57-6.27c1.4,0,2.5,0.31,3.02,0.56l-0.38,1.28c-0.65-0.29-1.46-0.52-2.68-0.52c-2.95,0-4.88,1.84-4.88,4.88
			c0,3.08,1.85,4.9,4.68,4.9c1.03,0,1.73-0.14,2.09-0.32v-3.62h-2.47v-1.26h4V294.55z"/>
	</g>
</g>
<g>
	<polygon style="fill:#189FC0;" points="389.74,52.79 389.74,280.96 417.18,293.79 417.18,65.62 	"/>
	<path style="fill:#49BACE;" d="M479.24,65.71c0,0-2.07,0.75-9.24,0.75c-2.97,0-48.83,0-48.83,0s-3.02-0.21-3.99-0.71v228.17
		l61.83-0.33L479.24,65.71z"/>
	<path style="fill:#1FA8C2;" d="M479.99,65.25l11.82-5.5l13.41-6.54c0,0,0.46-0.25,0.61-0.75v228.83l-26.82,12.29l0.23-228
		L479.99,65.25z"/>
	<g>
		<path style="fill:#66C5D6;" d="M480.45,39.28c-1.49-0.71-4.06-1.28-5.71-1.28h-54c-1.65,0-4.22,0.58-5.71,1.28l-24.58,11.65
			c-1.49,0.71-1.49,1.86,0,2.57l24.58,11.65c1.49,0.71,4.06,1.28,5.71,1.28h54c1.65,0,4.22-0.58,5.71-1.28l24.58-11.65
			c1.49-0.71,1.49-1.86,0-2.57L480.45,39.28z"/>
	</g>
</g>
<g>
	<polygon style="fill:#189FC0;" points="713.41,14.79 713.41,203.62 740.85,216.46 740.85,27.62 	"/>
	<path style="fill:#49BACE;" d="M802.91,27.71c0,0-2.07,0.75-9.24,0.75c-2.97,0-48.83,0-48.83,0s-3.02-0.21-3.99-0.71v188.83
		l61.83-0.33L802.91,27.71z"/>
	<path style="fill:#1FA8C2;" d="M803.65,27.25l11.82-5.5l13.41-6.54c0,0,0.46-0.25,0.61-0.75v189.5l-26.82,12.29l0.23-188.67
		L803.65,27.25z"/>
	<g>
		<path style="fill:#66C5D6;" d="M804.12,1.28C802.63,0.58,800.06,0,798.41,0h-54c-1.65,0-4.22,0.58-5.71,1.28l-24.58,11.65
			c-1.49,0.71-1.49,1.86,0,2.57l24.58,11.65c1.49,0.71,4.06,1.28,5.71,1.28h54c1.65,0,4.22-0.58,5.71-1.28L828.7,15.5
			c1.49-0.71,1.49-1.86,0-2.57L804.12,1.28z"/>
	</g>
</g>
<g>
	<polygon style="fill:#189FC0;" points="72.74,70.79 72.74,201.62 100.18,214.46 100.18,83.62 	"/>
	<path style="fill:#49BACE;" d="M162.24,83.71c0,0-2.07,0.75-9.24,0.75c-2.97,0-48.83,0-48.83,0s-3.02-0.21-3.99-0.71v130.83
		l61.83-0.33L162.24,83.71z"/>
	<path style="fill:#1FA8C2;" d="M162.99,83.25l11.82-5.5l13.41-6.54c0,0,0.46-0.25,0.61-0.75v131.5l-26.82,12.29l0.23-130.67
		L162.99,83.25z"/>
	<g>
		<path style="fill:#66C5D6;" d="M163.45,57.28c-1.49-0.71-4.06-1.28-5.71-1.28h-54c-1.65,0-4.22,0.58-5.71,1.28L73.45,68.93
			c-1.49,0.71-1.49,1.86,0,2.57l24.58,11.65c1.49,0.71,4.06,1.28,5.71,1.28h54c1.65,0,4.22-0.58,5.71-1.28l24.58-11.65
			c1.49-0.71,1.49-1.86,0-2.57L163.45,57.28z"/>
	</g>
</g>
<g>
</g>
<g>
</g>
<g>
</g>
<g>
</g>
<g>
</g>
<g>
</g>
</svg>
