<?xml version="1.0" encoding="iso-8859-1"?>
<!-- Generator: Adobe Illustrator 17.1.0, SVG Export Plug-In . SVG Version: 6.00 Build 0)  -->
<!DOCTYPE svg PUBLIC "-//W3C//DTD SVG 1.1//EN" "http://www.w3.org/Graphics/SVG/1.1/DTD/svg11.dtd">
<svg version="1.1" id="&#x421;&#x43B;&#x43E;&#x439;_1"
	 xmlns="http://www.w3.org/2000/svg" xmlns:xlink="http://www.w3.org/1999/xlink" x="0px" y="0px" viewBox="0 0 781.44 608.97"
	 style="enable-background:new 0 0 781.44 608.97;" xml:space="preserve">
<polygon style="fill:none;stroke:#49BACE;stroke-width:4;stroke-miterlimit:10;" points="394.86,488.7 726.47,403.28 604.66,265.06 
	197.76,265.06 68.1,403.28 "/>
<g>
	<g>
		<path d="M166.77,66.43v-2.16l2.76-2.68c6.64-6.32,9.64-9.68,9.68-13.6c0-2.64-1.28-5.08-5.16-5.08c-2.36,0-4.32,1.2-5.52,2.2
			l-1.12-2.48c1.8-1.52,4.36-2.64,7.36-2.64c5.6,0,7.96,3.84,7.96,7.56c0,4.8-3.48,8.68-8.96,13.96l-2.08,1.92v0.08h11.68v2.92
			H166.77z"/>
		<path d="M186.09,59.84c0-3.28,1.96-5.6,5.16-6.96l-0.04-0.12c-2.88-1.36-4.12-3.6-4.12-5.84c0-4.12,3.48-6.92,8.04-6.92
			c5.04,0,7.56,3.16,7.56,6.4c0,2.2-1.08,4.56-4.28,6.08v0.12c3.24,1.28,5.24,3.56,5.24,6.72c0,4.52-3.88,7.56-8.84,7.56
			C189.37,66.87,186.09,63.64,186.09,59.84z M200.09,59.68c0-3.16-2.2-4.68-5.72-5.68c-3.04,0.88-4.68,2.88-4.68,5.36
			c-0.12,2.64,1.88,4.96,5.2,4.96C198.05,64.31,200.09,62.36,200.09,59.68z M190.41,46.68c0,2.6,1.96,4,4.96,4.8
			c2.24-0.76,3.96-2.36,3.96-4.72c0-2.08-1.24-4.24-4.4-4.24C192.01,42.52,190.41,44.44,190.41,46.68z"/>
		<path d="M217.76,47.76c0,5.48-2.88,8.2-6.24,8.2c-3.24,0-6.04-2.6-6.08-7.84c0-5.2,2.84-8.12,6.28-8.12
			C215.37,40,217.76,42.8,217.76,47.76z M208.25,48c-0.08,3.32,1.16,5.84,3.36,5.84c2.32,0,3.36-2.48,3.36-5.92
			c0-3.16-0.92-5.8-3.36-5.8C209.41,42.12,208.25,44.72,208.25,48z M211.29,66.87L226.56,40h2.24l-15.28,26.88H211.29z
			 M234.68,58.52c0,5.48-2.88,8.2-6.2,8.2c-3.24,0-6.04-2.6-6.08-7.8c0-5.24,2.84-8.16,6.28-8.16
			C232.32,50.76,234.68,53.56,234.68,58.52z M225.16,58.76c-0.04,3.32,1.24,5.84,3.4,5.84c2.32,0,3.36-2.48,3.36-5.92
			c0-3.16-0.92-5.8-3.36-5.8C226.36,52.88,225.16,55.48,225.16,58.76z"/>
	</g>
</g>
<g>
	<g>
		<path d="M701.83,463.22c0-3.28,1.96-5.6,5.16-6.96l-0.04-0.12c-2.88-1.36-4.12-3.6-4.12-5.84c0-4.12,3.48-6.92,8.04-6.92
			c5.04,0,7.56,3.16,7.56,6.4c0,2.2-1.08,4.56-4.28,6.08v0.12c3.24,1.28,5.24,3.56,5.24,6.72c0,4.52-3.88,7.56-8.84,7.56
			C705.11,470.26,701.83,467.02,701.83,463.22z M715.83,463.06c0-3.16-2.2-4.68-5.72-5.68c-3.04,0.88-4.68,2.88-4.68,5.36
			c-0.12,2.64,1.88,4.96,5.2,4.96C713.79,467.7,715.83,465.74,715.83,463.06z M706.15,450.06c0,2.6,1.96,4,4.96,4.8
			c2.24-0.76,3.96-2.36,3.96-4.72c0-2.08-1.24-4.24-4.4-4.24C707.75,445.9,706.15,447.82,706.15,450.06z"/>
		<path d="M733.51,451.14c0,5.48-2.88,8.2-6.24,8.2c-3.24,0-6.04-2.6-6.08-7.84c0-5.2,2.84-8.12,6.28-8.12
			C731.11,443.38,733.51,446.18,733.51,451.14z M723.99,451.38c-0.08,3.32,1.16,5.84,3.36,5.84c2.32,0,3.36-2.48,3.36-5.92
			c0-3.16-0.92-5.8-3.36-5.8C725.15,445.5,723.99,448.1,723.99,451.38z M727.03,470.26l15.28-26.88h2.24l-15.28,26.88H727.03z
			 M750.43,461.9c0,5.48-2.88,8.2-6.2,8.2c-3.24,0-6.04-2.6-6.08-7.8c0-5.24,2.84-8.16,6.28-8.16
			C748.07,454.14,750.43,456.94,750.43,461.9z M740.91,462.14c-0.04,3.32,1.24,5.84,3.4,5.84c2.32,0,3.36-2.48,3.36-5.92
			c0-3.16-0.92-5.8-3.36-5.8C742.11,456.26,740.91,458.86,740.91,462.14z"/>
	</g>
</g>
<g>
	<g>
		<path d="M376.78,541.7c0-3.28,1.96-5.6,5.16-6.96l-0.04-0.12c-2.88-1.36-4.12-3.6-4.12-5.84c0-4.12,3.48-6.92,8.04-6.92
			c5.04,0,7.56,3.16,7.56,6.4c0,2.2-1.08,4.56-4.28,6.08v0.12c3.24,1.28,5.24,3.56,5.24,6.72c0,4.52-3.88,7.56-8.84,7.56
			C380.06,548.73,376.78,545.5,376.78,541.7z M390.78,541.54c0-3.16-2.2-4.68-5.72-5.68c-3.04,0.88-4.68,2.88-4.68,5.36
			c-0.12,2.64,1.88,4.96,5.2,4.96C388.74,546.18,390.78,544.22,390.78,541.54z M381.1,528.54c0,2.6,1.96,4,4.96,4.8
			c2.24-0.76,3.96-2.36,3.96-4.72c0-2.08-1.24-4.24-4.4-4.24C382.7,524.38,381.1,526.3,381.1,528.54z"/>
		<path d="M408.46,529.62c0,5.48-2.88,8.2-6.24,8.2c-3.24,0-6.04-2.6-6.08-7.84c0-5.2,2.84-8.12,6.28-8.12
			C406.06,521.86,408.46,524.66,408.46,529.62z M398.94,529.86c-0.08,3.32,1.16,5.84,3.36,5.84c2.32,0,3.36-2.48,3.36-5.92
			c0-3.16-0.92-5.8-3.36-5.8C400.1,523.98,398.94,526.58,398.94,529.86z M401.98,548.73l15.28-26.88h2.24l-15.28,26.88H401.98z
			 M425.37,540.38c0,5.48-2.88,8.2-6.2,8.2c-3.24,0-6.04-2.6-6.08-7.8c0-5.24,2.84-8.16,6.28-8.16
			C423.01,532.62,425.37,535.42,425.37,540.38z M415.85,540.62c-0.04,3.32,1.24,5.84,3.4,5.84c2.32,0,3.36-2.48,3.36-5.92
			c0-3.16-0.92-5.8-3.36-5.8C417.05,534.74,415.85,537.34,415.85,540.62z"/>
	</g>
</g>
<g>
	<g>
		<path d="M576.92,27.88c1,0.64,3.32,1.64,5.76,1.64c4.52,0,5.92-2.88,5.88-5.04c-0.04-3.64-3.32-5.2-6.72-5.2h-1.96v-2.64h1.96
			c2.56,0,5.8-1.32,5.8-4.4c0-2.08-1.32-3.92-4.56-3.92c-2.08,0-4.08,0.92-5.2,1.72l-0.92-2.56c1.36-1,4-2,6.8-2
			c5.12,0,7.44,3.04,7.44,6.2c0,2.68-1.6,4.96-4.8,6.12v0.08c3.2,0.64,5.8,3.04,5.8,6.68c0,4.16-3.24,7.8-9.48,7.8
			c-2.92,0-5.48-0.92-6.76-1.76L576.92,27.88z"/>
		<path d="M610.55,8.4c-0.72-0.04-1.64,0-2.64,0.16c-5.52,0.92-8.44,4.96-9.04,9.24H599c1.24-1.64,3.4-3,6.28-3
			c4.6,0,7.84,3.32,7.84,8.4c0,4.76-3.24,9.16-8.64,9.16c-5.56,0-9.2-4.32-9.2-11.08c0-5.12,1.84-9.16,4.4-11.72
			c2.16-2.12,5.04-3.44,8.32-3.84c1.04-0.16,1.92-0.2,2.56-0.2V8.4z M609.55,23.4c0-3.72-2.12-5.96-5.36-5.96
			c-2.12,0-4.08,1.32-5.04,3.2c-0.24,0.4-0.4,0.92-0.4,1.56c0.08,4.28,2.04,7.44,5.72,7.44C607.51,29.64,609.55,27.12,609.55,23.4z"
			/>
		<path d="M627.07,13.24c0,5.48-2.88,8.2-6.24,8.2c-3.24,0-6.04-2.6-6.08-7.84c0-5.2,2.84-8.12,6.28-8.12
			C624.67,5.48,627.07,8.28,627.07,13.24z M617.55,13.48c-0.08,3.32,1.16,5.84,3.36,5.84c2.32,0,3.36-2.48,3.36-5.92
			c0-3.16-0.92-5.8-3.36-5.8C618.71,7.6,617.55,10.2,617.55,13.48z M620.59,32.36l15.28-26.88h2.24l-15.28,26.88H620.59z M643.99,24
			c0,5.48-2.88,8.2-6.2,8.2c-3.24,0-6.04-2.6-6.08-7.8c0-5.24,2.84-8.16,6.28-8.16C641.63,16.24,643.99,19.04,643.99,24z
			 M634.47,24.24c-0.04,3.32,1.24,5.84,3.4,5.84c2.32,0,3.36-2.48,3.36-5.92c0-3.16-0.92-5.8-3.36-5.8
			C635.67,18.36,634.47,20.96,634.47,24.24z"/>
	</g>
</g>
<g>
	<g>
		<path d="M30.61,474.25v-2.16l2.76-2.68c6.64-6.32,9.64-9.68,9.68-13.6c0-2.64-1.28-5.08-5.16-5.08c-2.36,0-4.32,1.2-5.52,2.2
			l-1.12-2.48c1.8-1.52,4.36-2.64,7.36-2.64c5.6,0,7.96,3.84,7.96,7.56c0,4.8-3.48,8.68-8.96,13.96l-2.08,1.92v0.08h11.68v2.92
			H30.61z"/>
		<path d="M67.53,460.97c0,8.84-3.28,13.72-9.04,13.72c-5.08,0-8.52-4.76-8.6-13.36c0-8.72,3.76-13.52,9.04-13.52
			C64.41,447.81,67.53,452.69,67.53,460.97z M53.41,461.37c0,6.76,2.08,10.6,5.28,10.6c3.6,0,5.32-4.2,5.32-10.84
			c0-6.4-1.64-10.6-5.28-10.6C55.65,450.53,53.41,454.29,53.41,461.37z"/>
		<path d="M81.61,455.57c0,5.48-2.88,8.2-6.24,8.2c-3.24,0-6.04-2.6-6.08-7.84c0-5.2,2.84-8.12,6.28-8.12
			C79.21,447.81,81.61,450.61,81.61,455.57z M72.09,455.81c-0.08,3.32,1.16,5.84,3.36,5.84c2.32,0,3.36-2.48,3.36-5.92
			c0-3.16-0.92-5.8-3.36-5.8C73.25,449.93,72.09,452.53,72.09,455.81z M75.13,474.69l15.28-26.88h2.24l-15.28,26.88H75.13z
			 M98.52,466.33c0,5.48-2.88,8.2-6.2,8.2c-3.24,0-6.04-2.6-6.08-7.8c0-5.24,2.84-8.16,6.28-8.16
			C96.17,458.57,98.52,461.37,98.52,466.33z M89.01,466.57c-0.04,3.32,1.24,5.84,3.4,5.84c2.32,0,3.36-2.48,3.36-5.92
			c0-3.16-0.92-5.8-3.36-5.8C90.21,460.69,89.01,463.29,89.01,466.57z"/>
	</g>
</g>
<g>
	<path d="M551.65,44.05c0.76-0.13,1.75-0.23,3.01-0.23c1.55,0,2.68,0.36,3.4,1.01c0.67,0.58,1.06,1.46,1.06,2.54
		c0,1.1-0.32,1.96-0.94,2.59c-0.83,0.88-2.18,1.33-3.71,1.33c-0.47,0-0.9-0.02-1.26-0.11v4.86h-1.57V44.05z M553.21,49.91
		c0.34,0.09,0.77,0.13,1.3,0.13c1.89,0,3.04-0.92,3.04-2.59c0-1.6-1.13-2.38-2.86-2.38c-0.68,0-1.21,0.05-1.48,0.13V49.91z"/>
	<path d="M563.15,43.91v7.18c0,2.72,1.21,3.87,2.83,3.87c1.8,0,2.95-1.19,2.95-3.87v-7.18h1.58v7.08c0,3.73-1.96,5.26-4.59,5.26
		c-2.48,0-4.36-1.42-4.36-5.19v-7.15H563.15z"/>
	<path d="M573.59,44.07c0.68-0.14,1.76-0.25,2.86-0.25c1.57,0,2.57,0.27,3.33,0.88c0.63,0.47,1.01,1.19,1.01,2.14
		c0,1.17-0.77,2.2-2.05,2.66v0.04c1.15,0.29,2.5,1.24,2.5,3.04c0,1.04-0.41,1.84-1.03,2.43c-0.85,0.77-2.21,1.13-4.2,1.13
		c-1.08,0-1.91-0.07-2.43-0.14V44.07z M575.15,49.04h1.42c1.66,0,2.63-0.86,2.63-2.03c0-1.42-1.08-1.98-2.67-1.98
		c-0.72,0-1.13,0.05-1.39,0.11V49.04z M575.15,54.86c0.31,0.05,0.76,0.07,1.31,0.07c1.62,0,3.12-0.59,3.12-2.36
		c0-1.66-1.42-2.34-3.13-2.34h-1.3V54.86z"/>
	<path d="M583.7,43.91h1.57v10.82h5.19v1.31h-6.75V43.91z"/>
	<path d="M594.13,43.91v12.14h-1.57V43.91H594.13z"/>
	<path d="M605.7,55.65c-0.58,0.29-1.73,0.58-3.21,0.58c-3.42,0-6-2.16-6-6.14c0-3.8,2.58-6.37,6.34-6.37c1.51,0,2.47,0.32,2.88,0.54
		l-0.38,1.28c-0.59-0.29-1.44-0.5-2.45-0.5c-2.84,0-4.74,1.82-4.74,5.01c0,2.97,1.71,4.88,4.66,4.88c0.96,0,1.93-0.2,2.56-0.5
		L605.7,55.65z"/>
	<path d="M611.64,49.24v1.17h-4.45v-1.17H611.64z"/>
	<path d="M613.69,54.14c0.7,0.43,1.73,0.79,2.81,0.79c1.6,0,2.54-0.85,2.54-2.07c0-1.13-0.65-1.78-2.29-2.41
		c-1.98-0.7-3.21-1.73-3.21-3.44c0-1.89,1.57-3.29,3.93-3.29c1.24,0,2.14,0.29,2.68,0.59l-0.43,1.28c-0.4-0.22-1.21-0.58-2.3-0.58
		c-1.66,0-2.29,0.99-2.29,1.82c0,1.13,0.74,1.69,2.41,2.34c2.05,0.79,3.1,1.78,3.1,3.56c0,1.87-1.39,3.49-4.25,3.49
		c-1.17,0-2.45-0.34-3.1-0.77L613.69,54.14z"/>
	<path d="M625.1,52.23l-1.26,3.82h-1.62l4.12-12.14h1.89l4.14,12.14h-1.67l-1.3-3.82H625.1z M629.08,51l-1.19-3.49
		c-0.27-0.79-0.45-1.51-0.63-2.21h-0.04c-0.18,0.72-0.38,1.46-0.61,2.2L625.43,51H629.08z"/>
	<path d="M634.51,43.91h1.57v10.82h5.19v1.31h-6.75V43.91z"/>
	<path d="M649.65,50.36h-4.72v4.38h5.26v1.31h-6.82V43.91h6.55v1.31h-4.99v3.83h4.72V50.36z"/>
</g>
<g>
	<path d="M1.37,498.74c0.79-0.16,1.93-0.25,3.01-0.25c1.67,0,2.75,0.31,3.51,0.99c0.61,0.54,0.95,1.37,0.95,2.3
		c0,1.6-1.01,2.67-2.29,3.1v0.05c0.94,0.32,1.49,1.19,1.78,2.45c0.4,1.69,0.68,2.86,0.94,3.33H7.65c-0.2-0.34-0.47-1.39-0.81-2.9
		c-0.36-1.67-1.01-2.3-2.43-2.36H2.93v5.26H1.37V498.74z M2.93,504.27h1.6c1.67,0,2.74-0.92,2.74-2.3c0-1.57-1.13-2.25-2.79-2.27
		c-0.76,0-1.3,0.07-1.55,0.14V504.27z"/>
	<path d="M17.7,505.02h-4.72v4.38h5.26v1.31h-6.82v-12.14h6.55v1.31h-4.99v3.83h4.72V505.02z"/>
	<path d="M20.41,508.8c0.7,0.43,1.73,0.79,2.81,0.79c1.6,0,2.54-0.85,2.54-2.07c0-1.13-0.65-1.78-2.29-2.41
		c-1.98-0.7-3.21-1.73-3.21-3.44c0-1.89,1.57-3.29,3.93-3.29c1.24,0,2.14,0.29,2.68,0.59l-0.43,1.28c-0.4-0.22-1.21-0.58-2.3-0.58
		c-1.66,0-2.29,0.99-2.29,1.82c0,1.13,0.74,1.69,2.41,2.34c2.05,0.79,3.1,1.78,3.1,3.57c0,1.87-1.39,3.49-4.25,3.49
		c-1.17,0-2.45-0.34-3.1-0.77L20.41,508.8z"/>
	<path d="M36.15,505.02h-4.72v4.38h5.26v1.31h-6.82v-12.14h6.55v1.31h-4.99v3.83h4.72V505.02z"/>
	<path d="M39.08,498.74c0.79-0.16,1.93-0.25,3.01-0.25c1.67,0,2.75,0.31,3.51,0.99c0.61,0.54,0.95,1.37,0.95,2.3
		c0,1.6-1.01,2.67-2.29,3.1v0.05c0.94,0.32,1.49,1.19,1.78,2.45c0.4,1.69,0.68,2.86,0.94,3.33h-1.62c-0.2-0.34-0.47-1.39-0.81-2.9
		c-0.36-1.67-1.01-2.3-2.43-2.36h-1.48v5.26h-1.57V498.74z M40.64,504.27h1.6c1.67,0,2.74-0.92,2.74-2.3c0-1.57-1.13-2.25-2.79-2.27
		c-0.76,0-1.3,0.07-1.55,0.14V504.27z"/>
	<path d="M52.07,510.71l-3.96-12.14h1.69l1.89,5.98c0.52,1.64,0.97,3.12,1.3,4.54h0.04c0.34-1.4,0.85-2.93,1.39-4.52l2.05-6h1.67
		l-4.34,12.14H52.07z"/>
	<path d="M66.1,505.02h-4.72v4.38h5.26v1.31h-6.82v-12.14h6.55v1.31h-4.99v3.83h4.72V505.02z"/>
	<path d="M72.84,498.57h6.54v1.31h-4.97v4.03H79v1.3h-4.59v5.49h-1.57V498.57z"/>
	<path d="M83.54,498.57v7.18c0,2.72,1.21,3.87,2.83,3.87c1.8,0,2.95-1.19,2.95-3.87v-7.18h1.58v7.08c0,3.73-1.96,5.26-4.59,5.26
		c-2.48,0-4.36-1.42-4.36-5.19v-7.15H83.54z"/>
	<path d="M93.98,510.71v-12.14h1.71l3.89,6.14c0.9,1.42,1.6,2.7,2.18,3.94l0.04-0.02c-0.14-1.62-0.18-3.1-0.18-4.99v-5.08h1.48
		v12.14h-1.58l-3.85-6.16c-0.85-1.35-1.66-2.74-2.27-4.05l-0.05,0.02c0.09,1.53,0.13,2.99,0.13,5.01v5.19H93.98z"/>
	<path d="M106.18,498.74c0.95-0.14,2.09-0.25,3.33-0.25c2.25,0,3.85,0.52,4.92,1.51c1.08,0.99,1.71,2.39,1.71,4.36
		c0,1.98-0.61,3.6-1.75,4.72c-1.13,1.13-3.01,1.75-5.37,1.75c-1.12,0-2.05-0.05-2.84-0.14V498.74z M107.75,509.47
		c0.4,0.07,0.97,0.09,1.58,0.09c3.35,0,5.17-1.87,5.17-5.15c0.02-2.86-1.6-4.68-4.92-4.68c-0.81,0-1.42,0.07-1.84,0.16V509.47z"/>
</g>
<g>
	<path d="M163.07,85.63c0.76-0.13,1.75-0.23,3.01-0.23c1.55,0,2.68,0.36,3.4,1.01c0.67,0.58,1.06,1.46,1.06,2.54
		c0,1.1-0.32,1.96-0.94,2.59c-0.83,0.88-2.18,1.33-3.71,1.33c-0.47,0-0.9-0.02-1.26-0.11v4.86h-1.57V85.63z M164.64,91.49
		c0.34,0.09,0.77,0.13,1.3,0.13c1.89,0,3.04-0.92,3.04-2.59c0-1.6-1.13-2.38-2.86-2.38c-0.68,0-1.21,0.05-1.48,0.13V91.49z"/>
	<path d="M173.01,85.65c0.79-0.16,1.93-0.25,3.01-0.25c1.67,0,2.75,0.31,3.51,0.99c0.61,0.54,0.95,1.37,0.95,2.3
		c0,1.6-1.01,2.67-2.29,3.1v0.05c0.94,0.32,1.49,1.19,1.78,2.45c0.4,1.69,0.68,2.86,0.94,3.33h-1.62c-0.2-0.34-0.47-1.39-0.81-2.9
		c-0.36-1.67-1.01-2.3-2.43-2.36h-1.48v5.26h-1.57V85.65z M174.58,91.18h1.6c1.67,0,2.74-0.92,2.74-2.3c0-1.57-1.13-2.25-2.79-2.27
		c-0.76,0-1.3,0.07-1.55,0.14V91.18z"/>
	<path d="M189.34,91.94h-4.72v4.38h5.26v1.31h-6.82V85.49h6.55v1.31h-4.99v3.83h4.72V91.94z"/>
	<path d="M195.89,90.82v1.17h-4.45v-1.17H195.89z"/>
	<path d="M197.94,95.72c0.7,0.43,1.73,0.79,2.81,0.79c1.6,0,2.54-0.85,2.54-2.07c0-1.13-0.65-1.78-2.29-2.41
		c-1.98-0.7-3.21-1.73-3.21-3.44c0-1.89,1.57-3.29,3.93-3.29c1.24,0,2.14,0.29,2.68,0.59l-0.43,1.28c-0.4-0.22-1.21-0.58-2.3-0.58
		c-1.66,0-2.29,0.99-2.29,1.82c0,1.13,0.74,1.69,2.41,2.34c2.05,0.79,3.1,1.78,3.1,3.56c0,1.87-1.39,3.49-4.25,3.49
		c-1.17,0-2.45-0.34-3.1-0.77L197.94,95.72z"/>
	<path d="M209.35,93.81l-1.26,3.82h-1.62l4.12-12.14h1.89l4.14,12.14h-1.67l-1.3-3.82H209.35z M213.33,92.58l-1.19-3.49
		c-0.27-0.79-0.45-1.51-0.63-2.21h-0.04c-0.18,0.72-0.38,1.46-0.61,2.2l-1.19,3.51H213.33z"/>
	<path d="M218.76,85.49h1.57v10.82h5.19v1.31h-6.75V85.49z"/>
	<path d="M233.9,91.94h-4.72v4.38h5.26v1.31h-6.82V85.49h6.55v1.31h-4.99v3.83h4.72V91.94z"/>
</g>
<g>
	<path d="M682.35,485.9h6.54v1.31h-4.97v4.03h4.59v1.3h-4.59v5.49h-1.57V485.9z"/>
	<path d="M701.85,491.85c0,4.18-2.54,6.39-5.63,6.39c-3.21,0-5.46-2.49-5.46-6.16c0-3.85,2.39-6.37,5.64-6.37
		C699.71,485.7,701.85,488.24,701.85,491.85z M692.43,492.04c0,2.59,1.4,4.92,3.87,4.92c2.48,0,3.89-2.29,3.89-5.04
		c0-2.41-1.26-4.93-3.87-4.93C693.73,486.98,692.43,489.38,692.43,492.04z"/>
	<path d="M705.81,485.9v7.18c0,2.72,1.21,3.87,2.83,3.87c1.8,0,2.95-1.19,2.95-3.87v-7.18h1.58v7.08c0,3.73-1.96,5.26-4.59,5.26
		c-2.48,0-4.36-1.42-4.36-5.19v-7.15H705.81z"/>
	<path d="M716.25,498.04V485.9h1.71l3.89,6.14c0.9,1.42,1.6,2.7,2.18,3.94l0.04-0.02c-0.14-1.62-0.18-3.1-0.18-4.99v-5.08h1.48
		v12.14h-1.58l-3.85-6.16c-0.85-1.35-1.66-2.74-2.27-4.05l-0.05,0.02c0.09,1.53,0.13,2.99,0.13,5.01v5.19H716.25z"/>
	<path d="M728.45,486.07c0.95-0.14,2.09-0.25,3.33-0.25c2.25,0,3.85,0.52,4.92,1.51c1.08,0.99,1.71,2.39,1.71,4.36
		c0,1.98-0.61,3.6-1.75,4.72c-1.13,1.13-3.01,1.75-5.37,1.75c-1.12,0-2.05-0.05-2.84-0.14V486.07z M730.02,496.8
		c0.4,0.07,0.97,0.09,1.58,0.09c3.35,0,5.17-1.87,5.17-5.15c0.02-2.86-1.6-4.68-4.92-4.68c-0.81,0-1.42,0.07-1.84,0.16V496.8z"/>
	<path d="M747.08,492.35h-4.72v4.38h5.26v1.31h-6.82V485.9h6.55v1.31h-4.99v3.83h4.72V492.35z"/>
	<path d="M750.01,486.07c0.79-0.16,1.93-0.25,3.01-0.25c1.67,0,2.76,0.31,3.51,0.99c0.61,0.54,0.95,1.37,0.95,2.3
		c0,1.6-1.01,2.67-2.29,3.1v0.05c0.94,0.32,1.49,1.19,1.78,2.45c0.4,1.69,0.68,2.86,0.94,3.33h-1.62c-0.2-0.34-0.47-1.39-0.81-2.9
		c-0.36-1.67-1.01-2.3-2.43-2.36h-1.48v5.26h-1.57V486.07z M751.58,491.59h1.6c1.67,0,2.74-0.92,2.74-2.3
		c0-1.57-1.13-2.25-2.79-2.27c-0.76,0-1.3,0.07-1.55,0.14V491.59z"/>
	<path d="M759.84,496.13c0.7,0.43,1.73,0.79,2.81,0.79c1.6,0,2.54-0.85,2.54-2.07c0-1.13-0.65-1.78-2.29-2.41
		c-1.98-0.7-3.2-1.73-3.2-3.44c0-1.89,1.57-3.29,3.92-3.29c1.24,0,2.14,0.29,2.68,0.59l-0.43,1.28c-0.4-0.22-1.21-0.58-2.3-0.58
		c-1.66,0-2.29,0.99-2.29,1.82c0,1.13,0.74,1.69,2.41,2.34c2.05,0.79,3.1,1.78,3.1,3.57c0,1.87-1.39,3.49-4.25,3.49
		c-1.17,0-2.45-0.34-3.1-0.77L759.84,496.13z"/>
</g>
<g>
	<path d="M341.97,578.54l-1.26,3.82h-1.62l4.12-12.14h1.89l4.14,12.14h-1.67l-1.3-3.82H341.97z M345.95,577.31l-1.19-3.49
		c-0.27-0.79-0.45-1.51-0.63-2.21h-0.04c-0.18,0.72-0.38,1.46-0.61,2.2l-1.19,3.51H345.95z"/>
	<path d="M351.38,570.38c0.95-0.14,2.09-0.25,3.33-0.25c2.25,0,3.85,0.52,4.92,1.51c1.08,0.99,1.71,2.4,1.71,4.36
		c0,1.98-0.61,3.6-1.75,4.72c-1.13,1.13-3.01,1.75-5.37,1.75c-1.12,0-2.05-0.05-2.85-0.14V570.38z M352.95,581.11
		c0.4,0.07,0.97,0.09,1.58,0.09c3.35,0,5.17-1.87,5.17-5.15c0.02-2.86-1.6-4.68-4.92-4.68c-0.81,0-1.42,0.07-1.84,0.16V581.11z"/>
	<path d="M366.4,582.35l-3.96-12.14h1.69l1.89,5.98c0.52,1.64,0.97,3.11,1.3,4.54h0.04c0.34-1.4,0.85-2.94,1.39-4.52l2.05-6h1.67
		l-4.34,12.14H366.4z"/>
	<path d="M375.7,570.22v12.14h-1.57v-12.14H375.7z"/>
	<path d="M378.58,580.44c0.7,0.43,1.73,0.79,2.81,0.79c1.6,0,2.54-0.85,2.54-2.07c0-1.13-0.65-1.78-2.29-2.41
		c-1.98-0.7-3.21-1.73-3.21-3.44c0-1.89,1.57-3.29,3.93-3.29c1.24,0,2.14,0.29,2.68,0.59l-0.43,1.28c-0.4-0.22-1.21-0.58-2.3-0.58
		c-1.66,0-2.29,0.99-2.29,1.82c0,1.13,0.74,1.69,2.41,2.34c2.05,0.79,3.1,1.78,3.1,3.56c0,1.87-1.39,3.49-4.25,3.49
		c-1.17,0-2.45-0.34-3.1-0.78L378.58,580.44z"/>
	<path d="M398.4,576.16c0,4.18-2.54,6.39-5.64,6.39c-3.21,0-5.46-2.48-5.46-6.16c0-3.85,2.39-6.37,5.64-6.37
		C396.26,570.02,398.4,572.56,398.4,576.16z M388.98,576.36c0,2.59,1.4,4.92,3.87,4.92c2.48,0,3.89-2.29,3.89-5.04
		c0-2.41-1.26-4.93-3.87-4.93C390.28,571.3,388.98,573.69,388.98,576.36z"/>
	<path d="M400.79,570.38c0.79-0.16,1.93-0.25,3.01-0.25c1.67,0,2.75,0.31,3.51,0.99c0.61,0.54,0.95,1.37,0.95,2.3
		c0,1.6-1.01,2.67-2.29,3.1v0.05c0.94,0.32,1.49,1.19,1.78,2.45c0.4,1.69,0.68,2.86,0.94,3.33h-1.62c-0.2-0.34-0.47-1.39-0.81-2.9
		c-0.36-1.67-1.01-2.3-2.43-2.36h-1.48v5.26h-1.57V570.38z M402.36,575.91h1.6c1.67,0,2.74-0.92,2.74-2.3
		c0-1.57-1.13-2.25-2.79-2.27c-0.76,0-1.3,0.07-1.55,0.14V575.91z"/>
	<path d="M410.62,580.44c0.7,0.43,1.73,0.79,2.81,0.79c1.6,0,2.54-0.85,2.54-2.07c0-1.13-0.65-1.78-2.29-2.41
		c-1.98-0.7-3.21-1.73-3.21-3.44c0-1.89,1.57-3.29,3.93-3.29c1.24,0,2.14,0.29,2.68,0.59l-0.43,1.28c-0.4-0.22-1.21-0.58-2.3-0.58
		c-1.66,0-2.29,0.99-2.29,1.82c0,1.13,0.74,1.69,2.41,2.34c2.05,0.79,3.1,1.78,3.1,3.56c0,1.87-1.39,3.49-4.25,3.49
		c-1.17,0-2.45-0.34-3.1-0.78L410.62,580.44z"/>
	<path d="M425.85,578.54l-1.26,3.82h-1.62l4.12-12.14h1.89l4.14,12.14h-1.67l-1.3-3.82H425.85z M429.83,577.31l-1.19-3.49
		c-0.27-0.79-0.45-1.51-0.63-2.21h-0.04c-0.18,0.72-0.38,1.46-0.61,2.2l-1.19,3.51H429.83z"/>
	<path d="M435.26,582.35v-12.14h1.71l3.89,6.14c0.9,1.42,1.6,2.7,2.18,3.94l0.04-0.02c-0.14-1.62-0.18-3.1-0.18-4.99v-5.08h1.48
		v12.14h-1.58l-3.85-6.16c-0.85-1.35-1.66-2.74-2.27-4.05l-0.05,0.02c0.09,1.53,0.13,2.99,0.13,5v5.19H435.26z"/>
	<path d="M447.46,570.38c0.96-0.14,2.09-0.25,3.33-0.25c2.25,0,3.85,0.52,4.92,1.51c1.08,0.99,1.71,2.4,1.71,4.36
		c0,1.98-0.61,3.6-1.75,4.72c-1.13,1.13-3.01,1.75-5.37,1.75c-1.12,0-2.05-0.05-2.85-0.14V570.38z M449.03,581.11
		c0.4,0.07,0.97,0.09,1.58,0.09c3.35,0,5.17-1.87,5.17-5.15c0.02-2.86-1.6-4.68-4.92-4.68c-0.81,0-1.42,0.07-1.84,0.16V581.11z"/>
	<path d="M323.98,591.98c0.68-0.14,1.76-0.25,2.86-0.25c1.57,0,2.57,0.27,3.33,0.88c0.63,0.47,1.01,1.19,1.01,2.14
		c0,1.17-0.77,2.2-2.05,2.66v0.04c1.15,0.29,2.5,1.24,2.5,3.04c0,1.04-0.41,1.84-1.03,2.43c-0.85,0.78-2.21,1.13-4.2,1.13
		c-1.08,0-1.91-0.07-2.43-0.14V591.98z M325.55,596.95h1.42c1.66,0,2.63-0.87,2.63-2.04c0-1.42-1.08-1.98-2.67-1.98
		c-0.72,0-1.13,0.05-1.39,0.11V596.95z M325.55,602.77c0.31,0.05,0.76,0.07,1.31,0.07c1.62,0,3.11-0.59,3.11-2.36
		c0-1.66-1.42-2.34-3.13-2.34h-1.3V602.77z"/>
	<path d="M344.47,597.76c0,4.18-2.54,6.39-5.64,6.39c-3.21,0-5.46-2.48-5.46-6.16c0-3.85,2.4-6.37,5.64-6.37
		C342.32,591.62,344.47,594.16,344.47,597.76z M335.05,597.96c0,2.59,1.4,4.92,3.87,4.92c2.48,0,3.89-2.29,3.89-5.04
		c0-2.41-1.26-4.93-3.87-4.93C336.35,592.9,335.05,595.29,335.05,597.96z"/>
	<path d="M348.42,591.82V599c0,2.72,1.21,3.87,2.83,3.87c1.8,0,2.95-1.19,2.95-3.87v-7.18h1.58v7.08c0,3.73-1.96,5.26-4.59,5.26
		c-2.48,0-4.36-1.42-4.36-5.19v-7.15H348.42z"/>
	<path d="M358.86,603.95v-12.14h1.71l3.89,6.14c0.9,1.42,1.6,2.7,2.18,3.94l0.04-0.02c-0.14-1.62-0.18-3.1-0.18-4.99v-5.08h1.48
		v12.14h-1.58l-3.85-6.16c-0.85-1.35-1.66-2.74-2.27-4.05l-0.05,0.02c0.09,1.53,0.13,2.99,0.13,5.01v5.19H358.86z"/>
	<path d="M373.37,593.15h-3.69v-1.33h8.98v1.33h-3.71v10.8h-1.58V593.15z"/>
	<path d="M383.58,603.95v-5.15l-3.83-6.99h1.78l1.71,3.35c0.47,0.92,0.83,1.66,1.21,2.5h0.04c0.34-0.79,0.76-1.58,1.22-2.5
		l1.75-3.35h1.78l-4.07,6.97v5.17H383.58z"/>
	<path d="M394.79,591.96c0.76-0.13,1.75-0.23,3.01-0.23c1.55,0,2.68,0.36,3.4,1.01c0.67,0.58,1.06,1.46,1.06,2.54
		c0,1.1-0.32,1.96-0.94,2.59c-0.83,0.88-2.18,1.33-3.71,1.33c-0.47,0-0.9-0.02-1.26-0.11v4.86h-1.57V591.96z M396.35,597.81
		c0.34,0.09,0.77,0.13,1.3,0.13c1.89,0,3.04-0.92,3.04-2.59c0-1.6-1.13-2.38-2.86-2.38c-0.68,0-1.21,0.05-1.48,0.13V597.81z"/>
	<path d="M404.72,591.98c0.79-0.16,1.93-0.25,3.01-0.25c1.67,0,2.75,0.31,3.51,0.99c0.61,0.54,0.95,1.37,0.95,2.3
		c0,1.6-1.01,2.67-2.29,3.1v0.05c0.94,0.32,1.49,1.19,1.78,2.45c0.4,1.69,0.68,2.86,0.94,3.33h-1.62c-0.2-0.34-0.47-1.39-0.81-2.9
		c-0.36-1.67-1.01-2.3-2.43-2.36h-1.48v5.26h-1.57V591.98z M406.29,597.51h1.6c1.67,0,2.74-0.92,2.74-2.3
		c0-1.57-1.13-2.25-2.79-2.27c-0.76,0-1.3,0.07-1.55,0.14V597.51z"/>
	<path d="M425.19,597.76c0,4.18-2.54,6.39-5.64,6.39c-3.21,0-5.46-2.48-5.46-6.16c0-3.85,2.39-6.37,5.64-6.37
		C423.05,591.62,425.19,594.16,425.19,597.76z M415.78,597.96c0,2.59,1.4,4.92,3.87,4.92c2.48,0,3.89-2.29,3.89-5.04
		c0-2.41-1.26-4.93-3.87-4.93C417.07,592.9,415.78,595.29,415.78,597.96z"/>
	<path d="M436.82,603.41c-0.7,0.25-2.09,0.67-3.73,0.67c-1.84,0-3.35-0.47-4.54-1.6c-1.04-1.01-1.69-2.63-1.69-4.52
		c0.02-3.62,2.5-6.27,6.57-6.27c1.4,0,2.5,0.31,3.02,0.56l-0.38,1.28c-0.65-0.29-1.46-0.52-2.68-0.52c-2.95,0-4.88,1.84-4.88,4.88
		c0,3.08,1.85,4.9,4.68,4.9c1.03,0,1.73-0.14,2.09-0.32v-3.62h-2.47v-1.26h4V603.41z"/>
	<path d="M439.57,591.98c0.79-0.16,1.93-0.25,3.01-0.25c1.67,0,2.75,0.31,3.51,0.99c0.61,0.54,0.96,1.37,0.96,2.3
		c0,1.6-1.01,2.67-2.29,3.1v0.05c0.94,0.32,1.49,1.19,1.78,2.45c0.4,1.69,0.68,2.86,0.94,3.33h-1.62c-0.2-0.34-0.47-1.39-0.81-2.9
		c-0.36-1.67-1.01-2.3-2.43-2.36h-1.48v5.26h-1.57V591.98z M441.14,597.51h1.6c1.67,0,2.74-0.92,2.74-2.3
		c0-1.57-1.13-2.25-2.79-2.27c-0.76,0-1.3,0.07-1.55,0.14V597.51z"/>
	<path d="M451.67,600.14l-1.26,3.82h-1.62l4.12-12.14h1.89l4.14,12.14h-1.67l-1.3-3.82H451.67z M455.65,598.91l-1.19-3.49
		c-0.27-0.79-0.45-1.51-0.63-2.21h-0.04c-0.18,0.72-0.38,1.46-0.61,2.2l-1.19,3.51H455.65z"/>
	<path d="M471.24,598.62c-0.09-1.69-0.2-3.73-0.18-5.24H471c-0.41,1.42-0.92,2.94-1.53,4.61l-2.14,5.89h-1.19l-1.96-5.78
		c-0.58-1.71-1.06-3.28-1.4-4.72h-0.04c-0.04,1.51-0.13,3.55-0.23,5.37l-0.32,5.2h-1.49l0.85-12.14h2l2.07,5.87
		c0.5,1.5,0.92,2.83,1.22,4.09h0.05c0.31-1.22,0.74-2.56,1.28-4.09l2.16-5.87h2l0.76,12.14h-1.53L471.24,598.62z"/>
</g>
<g>
	<polygon style="fill:#189FC0;" points="544.15,83.13 544.15,271.96 571.59,284.8 571.59,95.96 	"/>
	<path style="fill:#49BACE;" d="M633.65,96.05c0,0-2.07,0.75-9.24,0.75c-2.97,0-48.83,0-48.83,0s-3.02-0.21-3.99-0.71v188.83
		l61.83-0.33L633.65,96.05z"/>
	<path style="fill:#1FA8C2;" d="M634.39,95.59l11.82-5.5l13.41-6.54c0,0,0.46-0.25,0.61-0.75v189.5l-26.82,12.29l0.23-188.67
		L634.39,95.59z"/>
	<g>
		<path style="fill:#66C5D6;" d="M634.86,69.62c-1.49-0.71-4.06-1.28-5.71-1.28h-54c-1.65,0-4.22,0.58-5.71,1.28l-24.58,11.65
			c-1.49,0.71-1.49,1.86,0,2.57l24.58,11.65c1.49,0.71,4.06,1.28,5.71,1.28h54c1.65,0,4.22-0.58,5.71-1.28l24.58-11.65
			c1.49-0.71,1.49-1.86,0-2.57L634.86,69.62z"/>
	</g>
</g>
<g>
	<polygon style="fill:#189FC0;" points="13.99,300.66 13.99,417.49 41.43,430.33 41.43,313.49 	"/>
	<path style="fill:#49BACE;" d="M103.49,313.58c0,0-2.07,0.75-9.24,0.75c-2.97,0-48.83,0-48.83,0s-3.02-0.21-3.99-0.71v116.83
		l61.83-0.33L103.49,313.58z"/>
	<path style="fill:#1FA8C2;" d="M104.24,313.12l11.82-5.5l13.41-6.54c0,0,0.46-0.25,0.61-0.75v117.5l-26.82,12.29l0.23-116.67
		L104.24,313.12z"/>
	<g>
		<path style="fill:#66C5D6;" d="M104.7,287.16c-1.49-0.71-4.06-1.28-5.71-1.28h-54c-1.65,0-4.22,0.58-5.71,1.28L14.7,298.8
			c-1.49,0.71-1.49,1.86,0,2.57l24.58,11.65c1.49,0.71,4.06,1.28,5.71,1.28h54c1.65,0,4.22-0.58,5.71-1.28l24.58-11.65
			c1.49-0.71,1.49-1.86,0-2.57L104.7,287.16z"/>
	</g>
</g>
<g>
	<polygon style="fill:#189FC0;" points="338,440.12 338,486.45 365.44,499.29 365.44,452.95 	"/>
	<path style="fill:#49BACE;" d="M427.51,453.04c0,0-2.07,0.75-9.24,0.75c-2.97,0-48.83,0-48.83,0s-3.02-0.21-3.99-0.71v46.33
		l61.83-0.33L427.51,453.04z"/>
	<path style="fill:#1FA8C2;" d="M428.25,452.58l11.82-5.5l13.41-6.54c0,0,0.46-0.25,0.61-0.75v47l-26.82,12.29l0.23-46.17
		L428.25,452.58z"/>
	<g>
		<path style="fill:#66C5D6;" d="M428.71,426.61c-1.49-0.71-4.06-1.28-5.71-1.28h-54c-1.65,0-4.22,0.58-5.71,1.28l-24.58,11.65
			c-1.49,0.71-1.49,1.86,0,2.57l24.58,11.65c1.49,0.71,4.06,1.28,5.71,1.28h54c1.65,0,4.22-0.58,5.71-1.28l24.58-11.65
			c1.49-0.71,1.49-1.86,0-2.57L428.71,426.61z"/>
	</g>
</g>
<g>
	<polygon style="fill:#189FC0;" points="663.45,363.16 663.45,409.5 690.88,422.33 690.88,376 	"/>
	<path style="fill:#49BACE;" d="M752.95,376.08c0,0-2.07,0.75-9.24,0.75c-2.97,0-48.83,0-48.83,0s-3.02-0.21-3.99-0.71v46.33
		l61.83-0.33L752.95,376.08z"/>
	<path style="fill:#1FA8C2;" d="M753.69,375.62l11.82-5.5l13.41-6.54c0,0,0.46-0.25,0.61-0.75v47l-26.82,12.29l0.23-46.17
		L753.69,375.62z"/>
	<g>
		<path style="fill:#66C5D6;" d="M754.15,349.66c-1.49-0.71-4.06-1.28-5.71-1.28h-54c-1.65,0-4.22,0.58-5.71,1.28l-24.58,11.65
			c-1.49,0.71-1.49,1.86,0,2.57l24.58,11.65c1.49,0.71,4.06,1.28,5.71,1.28h54c1.65,0,4.22-0.58,5.71-1.28l24.58-11.65
			c1.49-0.71,1.49-1.86,0-2.57L754.15,349.66z"/>
	</g>
</g>
<g>
	<polygon style="fill:#189FC0;" points="141.47,135.14 141.47,272.47 168.9,285.31 168.9,147.97 	"/>
	<path style="fill:#49BACE;" d="M230.97,148.06c0,0-2.07,0.75-9.24,0.75c-2.97,0-48.83,0-48.83,0s-3.02-0.21-3.99-0.71v137.33
		l61.83-0.33L230.97,148.06z"/>
	<path style="fill:#1FA8C2;" d="M231.71,147.6l11.82-5.5l13.41-6.54c0,0,0.46-0.25,0.61-0.75v138l-26.82,12.29l0.23-137.17
		L231.71,147.6z"/>
	<g>
		<path style="fill:#66C5D6;" d="M232.17,121.64c-1.49-0.71-4.06-1.28-5.71-1.28h-54c-1.65,0-4.22,0.58-5.71,1.28l-24.58,11.65
			c-1.49,0.71-1.49,1.86,0,2.57l24.58,11.65c1.49,0.71,4.06,1.28,5.71,1.28h54c1.65,0,4.22-0.58,5.71-1.28l24.58-11.65
			c1.49-0.71,1.49-1.86,0-2.57L232.17,121.64z"/>
	</g>
</g>
<g>
</g>
<g>
</g>
<g>
</g>
<g>
</g>
<g>
</g>
<g>
</g>
</svg>
