<?xml version="1.0" encoding="iso-8859-1"?>
<!-- Generator: Adobe Illustrator 17.1.0, SVG Export Plug-In . SVG Version: 6.00 Build 0)  -->
<!DOCTYPE svg PUBLIC "-//W3C//DTD SVG 1.1//EN" "http://www.w3.org/Graphics/SVG/1.1/DTD/svg11.dtd">
<svg version="1.1" id="&#x421;&#x43B;&#x43E;&#x439;_1"
	 xmlns="http://www.w3.org/2000/svg" xmlns:xlink="http://www.w3.org/1999/xlink" x="0px" y="0px" viewBox="0 0 1141.22 967.902"
	 style="enable-background:new 0 0 1141.22 967.902;" xml:space="preserve">
<path style="fill:#96D6DD;" d="M468.55,967.902H217.524c-22.675,0-41.058-18.383-41.058-41.056V539.888H41.062
	c-17.151,0-32.495-10.657-38.477-26.732c-5.987-16.068-1.352-34.168,11.621-45.382l176.253-152.361
	c0.077-0.066,0.139-0.148,0.218-0.212l18.636-16.107V60.643c0-22.677,18.382-41.055,41.056-41.055h94.43
	c22.674,0,41.058,18.378,41.058,41.055v85.852L543.757,9.992c15.423-13.332,38.284-13.332,53.697,0L805.18,189.561
	c0.021,0.018,0.044,0.033,0.067,0.053l145.296,125.586c0.076,0.068,0.145,0.146,0.218,0.218l176.249,152.354
	c12.975,11.214,17.611,29.314,11.627,45.382c-5.987,16.076-21.328,26.732-38.48,26.732H964.752v386.958
	c0,22.673-18.383,41.056-41.057,41.056H672.669"/>
<path style="fill:none;stroke:#FFFFFF;stroke-width:2;stroke-miterlimit:10;" d="M213.461,970.49V512.91H95.709
	c-14.915,0-28.258-9.267-33.462-23.247c-5.206-13.974-1.173-29.715,10.106-39.467l153.276-132.498
	c0.066-0.057,0.121-0.128,0.189-0.184l16.206-14.007V96.144c0-19.722,15.985-35.706,35.703-35.706h82.12
	c19.719,0,35.706,15.984,35.706,35.706v74.657L532.871,52.094c13.411-11.593,33.292-11.593,46.696,0l180.646,156.162
	c0.018,0.014,0.039,0.029,0.059,0.045l126.354,109.214c0.067,0.058,0.126,0.127,0.189,0.19l153.273,132.492
	c11.282,9.751,15.315,25.493,10.111,39.467c-5.208,13.98-18.548,23.247-33.465,23.247H898.982v457.58"/>
<g>
</g>
<g>
</g>
<g>
</g>
<g>
</g>
<g>
</g>
<g>
</g>
</svg>
