<?xml version="1.0" encoding="iso-8859-1"?>
<!-- Generator: Adobe Illustrator 17.1.0, SVG Export Plug-In . SVG Version: 6.00 Build 0)  -->
<!DOCTYPE svg PUBLIC "-//W3C//DTD SVG 1.1//EN" "http://www.w3.org/Graphics/SVG/1.1/DTD/svg11.dtd">
<svg version="1.1" id="&#x421;&#x43B;&#x43E;&#x439;_1"
	 xmlns="http://www.w3.org/2000/svg" xmlns:xlink="http://www.w3.org/1999/xlink" x="0px" y="0px" viewBox="0 0 696.695 590.892"
	 style="enable-background:new 0 0 696.695 590.892;" xml:space="preserve">
<path style="fill:#96D6DD;" d="M410.653,590.892h153.247c13.841,0,25.065-11.223,25.065-25.064V329.596h82.662
	c10.469,0,19.836-6.505,23.49-16.319c3.654-9.81,0.824-20.858-7.096-27.704l-107.598-93.016c-0.048-0.04-0.087-0.088-0.134-0.127
	l-11.376-9.835V37.025c0-13.843-11.224-25.063-25.065-25.063h-57.649c-13.841,0-25.063,11.221-25.063,25.063v52.41L364.74,6.105
	c-9.414-8.14-23.373-8.14-32.781,0L205.147,115.729c-0.014,0.011-0.028,0.021-0.041,0.032l-88.701,76.669
	c-0.047,0.042-0.088,0.088-0.133,0.131L8.675,285.573c-7.922,6.845-10.751,17.894-7.099,27.704
	c3.657,9.814,13.022,16.319,23.493,16.319h82.662v236.231c0,13.842,11.223,25.064,25.064,25.064h153.248"/>
<path style="fill:none;stroke:#FFFFFF;stroke-width:2;stroke-miterlimit:10;" d="M555.991,587.058V313.084h66.948
	c8.481,0,16.066-5.548,19.025-13.918c2.96-8.367,0.667-17.792-5.746-23.63l-87.144-79.333c-0.039-0.034-0.069-0.076-0.107-0.109
	l-9.214-8.388V63.548c0-11.808-9.089-21.378-20.299-21.378h-46.689c-11.211,0-20.3,9.57-20.3,21.378v44.701l-78.07-71.076
	c-7.625-6.941-18.928-6.941-26.549,0L245.14,130.675c-0.01,0.007-0.022,0.018-0.033,0.026l-71.837,65.392
	c-0.038,0.035-0.072,0.075-0.108,0.113l-87.142,79.329c-6.415,5.838-8.708,15.264-5.749,23.63
	c2.961,8.371,10.545,13.918,19.026,13.918h66.946v273.974"/>
<g>
</g>
<g>
</g>
<g>
</g>
<g>
</g>
<g>
</g>
<g>
</g>
</svg>
