<?xml version="1.0" encoding="iso-8859-1"?>
<!-- Generator: Adobe Illustrator 17.1.0, SVG Export Plug-In . SVG Version: 6.00 Build 0)  -->
<!DOCTYPE svg PUBLIC "-//W3C//DTD SVG 1.1//EN" "http://www.w3.org/Graphics/SVG/1.1/DTD/svg11.dtd">
<svg version="1.1" id="&#x421;&#x43B;&#x43E;&#x439;_1"
	 xmlns="http://www.w3.org/2000/svg" xmlns:xlink="http://www.w3.org/1999/xlink" x="0px" y="0px" viewBox="0 0 78.292 57.512"
	 style="enable-background:new 0 0 78.292 57.512;" xml:space="preserve">
<g>
	<path style="fill:#49BACE;" d="M51.096,17.245h-0.432v-5.726C50.664,5.167,45.497,0,39.147,0c-6.351,0-11.519,5.167-11.519,11.519
		c0,0.8,0.656,1.455,1.456,1.455c0.8,0,1.455-0.655,1.455-1.455c0-4.752,3.871-8.623,8.623-8.623s8.623,3.871,8.623,8.623v5.726
		H27.196c-2.079,0-3.775,1.696-3.775,3.776v15.726c0,2.079,1.696,3.775,3.775,3.775h23.885c2.079,0,3.775-1.696,3.775-3.775V21.021
		C54.856,18.941,53.177,17.245,51.096,17.245L51.096,17.245z M51.96,36.731c0,0.48-0.384,0.864-0.864,0.864h-23.9
		c-0.48,0-0.864-0.384-0.864-0.864V21.005c0-0.48,0.384-0.864,0.864-0.864h23.885c0.48,0,0.864,0.384,0.864,0.864v15.726H51.96z
		 M51.96,36.731"/>
	<path style="fill:#49BACE;" d="M39.562,24.781c-1.056-0.209-2.16,0.384-2.607,1.391c-0.464,1.04-0.16,2.208,0.783,2.896
		c0.192,0.144,0.224,0.272,0.224,0.481v3.103c0,0.848,0.896,1.504,1.808,1.04c0.384-0.192,0.609-0.608,0.577-1.04v-3.103
		c0-0.224,0.048-0.368,0.255-0.513c0.656-0.48,0.976-1.136,0.976-1.936C41.546,25.949,40.73,25.004,39.562,24.781L39.562,24.781z
		 M39.562,24.781"/>
	<path style="fill:#49BACE;" d="M18.461,28.043h-8.047c-0.64-2.223-2.671-3.855-5.103-3.855C2.384,24.189,0,26.572,0,29.5
		c0,2.928,2.384,5.311,5.311,5.311c2.416,0,4.463-1.631,5.103-3.855h8.063c0.8,0,1.456-0.656,1.456-1.456
		C19.917,28.7,19.261,28.043,18.461,28.043L18.461,28.043z M5.311,31.899c-1.327,0-2.4-1.072-2.4-2.4c0-1.328,1.072-2.4,2.4-2.4
		c1.328,0,2.4,1.072,2.4,2.4C7.711,30.827,6.639,31.899,5.311,31.899L5.311,31.899z M5.311,31.899"/>
	<path style="fill:#49BACE;" d="M18.461,19.518H9.646c-1.583,0-2.879-1.296-2.879-2.88v-4.735c2.224-0.64,3.856-2.672,3.856-5.103
		c0-2.928-2.384-5.311-5.312-5.311C2.384,1.488,0,3.871,0,6.799c0,2.415,1.632,4.463,3.856,5.103v4.735
		c0,3.184,2.591,5.775,5.775,5.775h8.831c0.8,0,1.456-0.655,1.456-1.455C19.917,20.157,19.261,19.518,18.461,19.518L18.461,19.518z
		 M2.896,6.799c0-1.328,1.072-2.4,2.4-2.4c1.328,0,2.4,1.072,2.4,2.4c0,1.328-1.072,2.4-2.4,2.4
		C3.967,9.199,2.896,8.127,2.896,6.799L2.896,6.799z M2.896,6.799"/>
	<path style="fill:#49BACE;" d="M18.461,36.57H9.646c-3.183,0-5.775,2.592-5.775,5.776v4.735c-2.224,0.64-3.856,2.672-3.856,5.103
		c0,2.928,2.384,5.311,5.312,5.311c2.928,0,5.311-2.383,5.311-5.311c0-2.416-1.632-4.463-3.855-5.103v-4.735
		c0-1.584,1.295-2.88,2.879-2.88h8.831c0.8,0,1.456-0.656,1.456-1.456C19.917,37.227,19.261,36.57,18.461,36.57L18.461,36.57z
		 M7.711,52.185c0,1.328-1.072,2.4-2.4,2.4c-1.327,0-2.4-1.072-2.4-2.4s1.072-2.4,2.4-2.4C6.639,49.785,7.711,50.857,7.711,52.185
		L7.711,52.185z M7.711,52.185"/>
	<path style="fill:#49BACE;" d="M72.981,24.189c-2.416,0-4.463,1.632-5.103,3.855h-8.063c-0.8,0-1.456,0.656-1.456,1.456
		c0,0.8,0.656,1.456,1.456,1.456h8.063c0.64,2.224,2.672,3.855,5.103,3.855c2.928,0,5.311-2.383,5.311-5.311
		C78.292,26.572,75.909,24.189,72.981,24.189L72.981,24.189z M72.981,31.899c-1.328,0-2.4-1.072-2.4-2.4c0-1.328,1.072-2.4,2.4-2.4
		s2.4,1.072,2.4,2.4C75.397,30.827,74.309,31.899,72.981,31.899L72.981,31.899z M72.981,31.899"/>
	<path style="fill:#49BACE;" d="M74.437,47.081v-4.735c0-3.184-2.591-5.776-5.775-5.776h-8.831c-0.8,0-1.455,0.656-1.455,1.456
		c0,0.8,0.655,1.456,1.455,1.456h8.831c1.584,0,2.88,1.296,2.88,2.879v4.735c-2.224,0.64-3.856,2.671-3.856,5.103
		c0,2.928,2.383,5.312,5.311,5.312c2.928,0,5.312-2.384,5.312-5.312C78.292,49.768,76.661,47.721,74.437,47.081L74.437,47.081z
		 M72.981,54.6c-1.328,0-2.4-1.072-2.4-2.4c0-1.328,1.072-2.4,2.4-2.4s2.4,1.072,2.4,2.4C75.397,53.513,74.309,54.6,72.981,54.6
		L72.981,54.6z M72.981,54.6"/>
	<path style="fill:#49BACE;" d="M59.831,22.412h8.831c3.184,0,5.775-2.591,5.775-5.775v-4.735c2.224-0.64,3.856-2.672,3.856-5.103
		c0-2.928-2.383-5.311-5.311-5.311c-2.928,0-5.312,2.383-5.312,5.311c0,2.415,1.632,4.463,3.856,5.103v4.735
		c0,1.584-1.296,2.88-2.879,2.88h-8.831c-0.8,0-1.456,0.655-1.456,1.455C58.376,21.757,59.031,22.412,59.831,22.412L59.831,22.412z
		 M70.582,6.799c0-1.328,1.072-2.4,2.4-2.4s2.4,1.072,2.4,2.4c0,1.328-1.072,2.4-2.4,2.4S70.582,8.127,70.582,6.799L70.582,6.799z
		 M70.582,6.799"/>
</g>
<g>
</g>
<g>
</g>
<g>
</g>
<g>
</g>
<g>
</g>
<g>
</g>
</svg>
