<?xml version="1.0" encoding="iso-8859-1"?>
<!-- Generator: Adobe Illustrator 17.1.0, SVG Export Plug-In . SVG Version: 6.00 Build 0)  -->
<!DOCTYPE svg PUBLIC "-//W3C//DTD SVG 1.1//EN" "http://www.w3.org/Graphics/SVG/1.1/DTD/svg11.dtd">
<svg version="1.1" id="&#x421;&#x43B;&#x43E;&#x439;_1"
	 xmlns="http://www.w3.org/2000/svg" xmlns:xlink="http://www.w3.org/1999/xlink" x="0px" y="0px" viewBox="0 0 90.087 90.087"
	 style="enable-background:new 0 0 90.087 90.087;" xml:space="preserve">
<g>
	<path style="fill:#49BACE;" d="M84.808,50.885h-6.91c-1.204,0-2.256,0.815-2.556,1.982c-0.726,2.824-1.852,5.538-3.346,8.065
		c-0.613,1.037-0.446,2.357,0.406,3.209l4.89,4.89l-8.261,8.261l-4.89-4.89c-0.852-0.852-2.172-1.019-3.209-0.406
		c-2.527,1.493-5.241,2.619-8.066,3.346c-1.166,0.3-1.981,1.352-1.981,2.556v6.911H39.202v-6.91c0-1.204-0.815-2.256-1.981-2.556
		c-2.824-0.727-5.538-1.853-8.065-3.346c-1.037-0.613-2.357-0.446-3.209,0.406l-4.89,4.89l-8.262-8.261l4.89-4.89
		c0.852-0.852,1.019-2.172,0.406-3.209c-1.493-2.528-2.619-5.241-3.346-8.066c-0.3-1.166-1.352-1.981-2.556-1.981h-6.91V39.202h6.91
		c1.204,0,2.256-0.815,2.556-1.981c0.727-2.825,1.853-5.538,3.346-8.066c0.613-1.037,0.446-2.357-0.406-3.209l-4.89-4.89
		l8.261-8.261l4.89,4.89c0.852,0.852,2.172,1.019,3.209,0.406c2.528-1.493,5.241-2.619,8.065-3.346
		c1.166-0.3,1.981-1.352,1.981-2.556V5.279h11.683v6.91c0,1.204,0.815,2.256,1.981,2.556c2.825,0.727,5.538,1.853,8.066,3.346
		c1.037,0.613,2.357,0.446,3.209-0.406l4.89-4.89l8.261,8.261l-4.89,4.89c-0.852,0.852-1.019,2.172-0.406,3.209
		c1.493,2.527,2.619,5.241,3.346,8.065c0.3,1.166,1.352,1.982,2.556,1.982h6.91V50.885L84.808,50.885z M87.447,33.923h-7.564
		c-0.62-1.942-1.404-3.832-2.344-5.649l5.352-5.352c0.495-0.495,0.773-1.166,0.773-1.866c0-0.7-0.278-1.371-0.773-1.866
		L70.897,7.196c-1.031-1.031-2.702-1.031-3.732,0l-5.352,5.352c-1.817-0.94-3.707-1.724-5.65-2.344V2.639
		C56.163,1.182,54.982,0,53.524,0H36.563c-1.458,0-2.639,1.182-2.639,2.639v7.564c-1.942,0.62-3.832,1.404-5.649,2.344l-5.352-5.352
		c-1.031-1.031-2.702-1.031-3.732,0L7.196,19.19c-0.495,0.495-0.773,1.166-0.773,1.866c0,0.7,0.278,1.371,0.773,1.866l5.352,5.352
		c-0.94,1.817-1.724,3.707-2.344,5.649H2.639C1.182,33.923,0,35.105,0,36.562v16.961c0,1.458,1.182,2.639,2.639,2.639h7.565
		c0.62,1.942,1.404,3.832,2.344,5.649l-5.352,5.352c-0.495,0.495-0.773,1.166-0.773,1.866c0,0.7,0.278,1.371,0.773,1.866
		L19.19,82.89c1.031,1.031,2.702,1.031,3.732,0l5.352-5.352c1.817,0.94,3.707,1.724,5.649,2.344v7.565
		c0,1.458,1.182,2.639,2.639,2.639h16.961c1.458,0,2.639-1.182,2.639-2.639v-7.564c1.943-0.62,3.832-1.404,5.65-2.344l5.352,5.352
		c1.031,1.031,2.702,1.031,3.732,0l11.993-11.994c1.031-1.031,1.031-2.702,0-3.732l-5.352-5.352c0.94-1.817,1.724-3.707,2.344-5.649
		h7.564c1.458,0,2.639-1.182,2.639-2.639V36.562C90.087,35.105,88.905,33.923,87.447,33.923L87.447,33.923z"/>
	<path style="fill:#49BACE;" d="M57.038,29.936c-1.142-0.906-2.802-0.716-3.708,0.426l-7.377,9.292
		c-0.298-0.049-0.601-0.076-0.909-0.076c-3.014,0-5.466,2.452-5.467,5.467c0.001,3.014,2.453,5.465,5.467,5.465
		c1.46,0,2.832-0.568,3.865-1.6c1.033-1.032,1.601-2.406,1.601-3.865c0-0.736-0.145-1.451-0.421-2.11l7.375-9.29
		C58.37,32.502,58.179,30.842,57.038,29.936L57.038,29.936z"/>
</g>
<g>
</g>
<g>
</g>
<g>
</g>
<g>
</g>
<g>
</g>
<g>
</g>
</svg>
