<?xml version="1.0" encoding="iso-8859-1"?>
<!-- Generator: Adobe Illustrator 17.1.0, SVG Export Plug-In . SVG Version: 6.00 Build 0)  -->
<!DOCTYPE svg PUBLIC "-//W3C//DTD SVG 1.1//EN" "http://www.w3.org/Graphics/SVG/1.1/DTD/svg11.dtd">
<svg version="1.1" id="&#x421;&#x43B;&#x43E;&#x439;_1"
	 xmlns="http://www.w3.org/2000/svg" xmlns:xlink="http://www.w3.org/1999/xlink" x="0px" y="0px" viewBox="0 0 81.354 81.609"
	 style="enable-background:new 0 0 81.354 81.609;" xml:space="preserve">
<g>
	<path style="fill:#49BACE;stroke:#49BACE;stroke-linecap:round;stroke-linejoin:round;stroke-miterlimit:10;" d="M75.868,35.724
		c-2.712,0-4.919,2.207-4.919,4.92c0,2.713,2.207,4.92,4.919,4.92c2.714,0,4.922-2.207,4.922-4.92
		C80.79,37.931,78.582,35.724,75.868,35.724z M75.868,43.751c-1.712,0-3.107-1.394-3.107-3.107c0-1.713,1.395-3.106,3.107-3.106
		c1.714,0,3.108,1.393,3.108,3.106C78.976,42.357,77.582,43.751,75.868,43.751z M5.421,35.724c-2.714,0-4.921,2.207-4.921,4.92
		c0,2.713,2.208,4.92,4.921,4.92c2.713,0,4.919-2.207,4.919-4.92C10.341,37.931,8.134,35.724,5.421,35.724z M5.421,43.751
		c-1.714,0-3.108-1.394-3.108-3.107c0-1.713,1.394-3.106,3.108-3.106c1.713,0,3.107,1.393,3.107,3.106
		C8.528,42.357,7.134,43.751,5.421,43.751z M64.153,18.584c0.386,0,0.751-0.15,1.026-0.424c0.563-0.565,0.563-1.484-0.002-2.05
		c-0.547-0.548-1.505-0.545-2.047,0c-0.274,0.273-0.427,0.638-0.427,1.024c0,0.389,0.152,0.753,0.424,1.025
		C63.401,18.435,63.765,18.584,64.153,18.584z M16.111,16.111c-0.566,0.565-0.566,1.485-0.001,2.049
		c0.273,0.274,0.638,0.424,1.026,0.424c0.387,0,0.752-0.15,1.025-0.424c0.565-0.565,0.565-1.484,0-2.049
		C17.613,15.562,16.657,15.564,16.111,16.111z M40.645,10.34c2.713,0,4.92-2.207,4.92-4.92s-2.208-4.92-4.92-4.92
		c-2.713,0-4.921,2.207-4.921,4.92S37.931,10.34,40.645,10.34z M40.645,2.313c1.713,0,3.107,1.394,3.107,3.107
		c0,1.714-1.394,3.107-3.107,3.107c-1.713,0-3.107-1.394-3.107-3.107C37.537,3.707,38.931,2.313,40.645,2.313z M39.62,74.889
		c0.273,0.273,0.637,0.423,1.024,0.423c0.387,0,0.751-0.15,1.025-0.423c0.274-0.275,0.424-0.64,0.424-1.028
		c0-0.387-0.151-0.751-0.423-1.022c-0.548-0.548-1.504-0.549-2.051-0.001C39.055,73.401,39.054,74.32,39.62,74.889z M65.552,60.63
		c-1.014,0-1.979,0.309-2.794,0.874l-4.809-4.824c3.864-4.148,6.068-9.458,6.281-15.127h4.692v-1.813h-4.693
		c-0.221-5.826-2.563-11.118-6.275-15.124l1.78-1.78c1.26,0.981,2.798,1.519,4.421,1.519c1.927,0,3.739-0.75,5.104-2.114
		c1.362-1.363,2.114-3.175,2.114-5.104c0-1.927-0.752-3.739-2.114-5.104c-1.364-1.363-3.176-2.113-5.104-2.113
		c-1.929,0-3.742,0.75-5.105,2.113c-1.364,1.364-2.114,3.177-2.114,5.104c0,1.622,0.536,3.159,1.516,4.417l-1.78,1.781
		c-4.006-3.71-9.295-6.049-15.119-6.27v-4.679h-1.813v4.679c-5.833,0.222-11.128,2.566-15.136,6.286l-1.779-1.778
		c2.209-2.83,2.018-6.937-0.583-9.54c-1.363-1.363-3.176-2.113-5.104-2.113c-1.929,0-3.741,0.75-5.104,2.113
		c-2.815,2.815-2.815,7.395,0,10.208c1.363,1.364,3.175,2.114,5.104,2.114c1.614,0,3.144-0.532,4.4-1.504l1.784,1.784
		c-3.704,4.004-6.039,9.288-6.26,15.106h-4.678v1.813h4.677c0.212,5.666,2.415,10.973,6.271,15.118l-4.823,4.816
		c-0.811-0.556-1.767-0.857-2.771-0.857c-1.314,0-2.55,0.513-3.479,1.442c-0.93,0.928-1.442,2.165-1.442,3.478
		c0,1.315,0.513,2.55,1.442,3.479c0.929,0.931,2.165,1.441,3.479,1.441c1.313,0,2.55-0.511,3.479-1.441
		c0.931-0.93,1.442-2.165,1.442-3.479c0-1.009-0.306-1.971-0.866-2.784l4.822-4.814c4.148,3.863,9.453,6.066,15.114,6.279v2.477
		c-1.581,0.199-3.044,0.906-4.188,2.05c-1.363,1.363-2.114,3.175-2.114,5.103c0,1.929,0.751,3.741,2.114,5.106
		c1.363,1.362,3.176,2.113,5.104,2.113c1.929,0,3.741-0.751,5.104-2.113c1.363-1.365,2.115-3.177,2.115-5.106
		c0-1.927-0.751-3.739-2.115-5.103c-1.149-1.15-2.619-1.856-4.207-2.053v-2.475c5.668-0.211,10.977-2.412,15.125-6.269l4.814,4.829
		c-1.298,1.914-1.103,4.545,0.592,6.239c0.929,0.931,2.166,1.441,3.479,1.441s2.55-0.511,3.479-1.441
		c1.918-1.919,1.918-5.041,0-6.958C68.102,61.143,66.865,60.63,65.552,60.63z M56.669,55.396l-2.69-2.699
		c2.799-3.089,4.415-6.988,4.621-11.145h3.816C62.206,46.735,60.191,51.59,56.669,55.396z M39.498,56.988
		c-4.417,0.104-8.275-2.911-10.279-4.916c-3.055-3.056-4.738-7.114-4.738-11.427c0-8.92,7.252-16.177,16.166-16.177
		c8.913,0,16.163,7.257,16.163,16.177c0,4.313-1.682,8.371-4.737,11.427c-2.425,2.423-5.281,4.782-10.052,5.011 M60.332,13.314
		c1.021-1.021,2.378-1.582,3.823-1.582c1.442,0,2.799,0.562,3.82,1.582c1.021,1.021,1.583,2.379,1.583,3.821
		c0,1.445-0.563,2.803-1.583,3.822c-1.021,1.021-2.378,1.583-3.82,1.583c-1.445,0-2.802-0.562-3.823-1.583
		c-1.021-1.02-1.584-2.378-1.584-3.822C58.748,15.692,59.311,14.335,60.332,13.314z M62.416,39.739h-3.815
		c-0.459-9.2-7.855-16.602-17.048-17.06v-3.802C52.848,19.342,61.95,28.443,62.416,39.739z M17.137,22.54
		c-1.444,0-2.802-0.562-3.822-1.583c-2.107-2.107-2.107-5.535,0-7.644c1.021-1.021,2.378-1.582,3.822-1.582
		c1.443,0,2.801,0.562,3.821,1.582c2.108,2.108,2.108,5.536,0,7.644C19.938,21.979,18.58,22.54,17.137,22.54z M39.739,18.877v3.802
		c-9.193,0.459-16.59,7.861-17.049,17.06h-3.815C19.34,28.443,28.442,19.342,39.739,18.877z M18.874,41.553h3.816
		c0.205,4.156,1.824,8.056,4.622,11.145l-2.696,2.692C21.098,51.586,19.085,46.733,18.874,41.553z M17.935,67.749
		c-1.173,1.174-3.22,1.174-4.394,0c-0.587-0.588-0.91-1.369-0.91-2.198c0-0.829,0.323-1.61,0.91-2.196
		c0.588-0.587,1.367-0.91,2.197-0.91c0.831,0,1.61,0.323,2.197,0.91c0.587,0.587,0.91,1.367,0.91,2.196
		C18.845,66.38,18.522,67.161,17.935,67.749z M46.049,73.861c0,1.445-0.563,2.802-1.583,3.823c-1.021,1.021-2.379,1.584-3.822,1.584
		c-1.444,0-2.801-0.563-3.822-1.584c-1.02-1.021-1.582-2.377-1.582-3.823c0-1.443,0.562-2.8,1.582-3.821
		c1.021-1.021,2.378-1.582,3.822-1.582c1.443,0,2.801,0.562,3.822,1.582C45.487,71.062,46.049,72.419,46.049,73.861z M40.647,62.439
		h-0.015c-5.514,0-10.708-2.043-14.734-5.768l2.696-2.691c3.311,3.001,7.558,4.643,12.053,4.643c4.493,0,8.737-1.642,12.051-4.643
		l2.689,2.698C51.362,60.398,46.164,62.439,40.647,62.439z M67.749,67.749c-1.173,1.172-3.221,1.172-4.395,0
		c-1.211-1.212-1.211-3.184,0-4.395c0.587-0.587,1.368-0.91,2.198-0.91c0.829,0,1.61,0.323,2.197,0.91
		C68.961,64.565,68.961,66.537,67.749,67.749z"/>
	<g>
		<path style="fill:#49BACE;stroke:#49BACE;stroke-linecap:round;stroke-linejoin:round;stroke-miterlimit:10;" d="M39.716,56.866
			v-3.273c-1.88-0.032-3.825-0.616-4.959-1.426l0.778-2.204c1.167,0.811,2.852,1.426,4.635,1.426c2.333,0,3.889-1.329,3.889-3.144
			c0-1.814-1.264-2.917-3.663-3.889c-3.306-1.297-5.38-2.788-5.38-5.607c0-2.69,1.945-4.732,4.894-5.25v-3.241h2.042v3.144
			c1.945,0.065,3.273,0.583,4.181,1.167l-0.746,2.139c-0.713-0.421-2.074-1.134-4.116-1.134c-2.496,0-3.436,1.491-3.436,2.787
			c0,1.686,1.199,2.528,4.019,3.727c3.338,1.361,5.024,3.014,5.024,5.899c0,2.56-1.783,4.958-5.153,5.509v3.371H39.716z"/>
	</g>
</g>
<g>
</g>
<g>
</g>
<g>
</g>
<g>
</g>
<g>
</g>
<g>
</g>
</svg>
