<?xml version="1.0" encoding="iso-8859-1"?>
<!-- Generator: Adobe Illustrator 17.1.0, SVG Export Plug-In . SVG Version: 6.00 Build 0)  -->
<!DOCTYPE svg PUBLIC "-//W3C//DTD SVG 1.1//EN" "http://www.w3.org/Graphics/SVG/1.1/DTD/svg11.dtd">
<svg version="1.1" id="&#x421;&#x43B;&#x43E;&#x439;_1"
	 xmlns="http://www.w3.org/2000/svg" xmlns:xlink="http://www.w3.org/1999/xlink" x="0px" y="0px" viewBox="0 0 68.812 63.8"
	 style="enable-background:new 0 0 68.812 63.8;" xml:space="preserve">
<path style="fill-rule:evenodd;clip-rule:evenodd;fill:#49BACE;stroke:#49BACE;stroke-miterlimit:10;" d="M59.977,34.951
	L59.977,34.951l-15.121-15.12l-7.303,7.303l0,0c-1.586,1.587-3.677,2.38-5.766,2.38c-2.089,0-4.18-0.793-5.766-2.38h0h0
	c-1.586-1.587-2.379-3.677-2.379-5.767s0.793-4.181,2.379-5.767l7.288-7.287l-0.026-0.028c-0.014-0.016-0.027-0.031-0.041-0.047
	c-0.153-0.168-0.34-0.362-0.561-0.583V7.654c-3.458-3.457-7.99-5.186-12.522-5.186c-4.532,0-9.064,1.728-12.521,5.186L7.637,7.655
	l0,0c-3.458,3.458-5.187,7.99-5.187,12.522c0,4.531,1.729,9.063,5.187,12.522l0,0l2,2l7.805-7.805
	c1.053-1.053,2.439-1.58,3.826-1.58c1.386,0,2.774,0.527,3.827,1.58l0.008,0.009c1.047,1.052,1.572,2.436,1.572,3.818
	c0,0.393-0.043,0.786-0.128,1.171c0.386-0.085,0.779-0.127,1.172-0.127v0.004c1.389,0,2.776,0.525,3.827,1.576v0
	c1.053,1.053,1.58,2.44,1.58,3.826c0,0.394-0.042,0.786-0.127,1.172c0.386-0.084,0.778-0.127,1.172-0.127
	c1.386,0,2.773,0.527,3.827,1.58l0,0l0,0c1.053,1.054,1.58,2.44,1.58,3.826c0,0.394-0.042,0.787-0.127,1.173
	c0.386-0.085,0.779-0.128,1.171-0.128c1.387,0,2.774,0.527,3.827,1.58l0,0l0,0c1.053,1.054,1.58,2.44,1.58,3.827
	c0,1.004-0.276,2.007-0.829,2.886c0.282,0.017,0.567-0.002,0.846-0.055c0.655-0.123,1.282-0.438,1.789-0.944l0-0.001
	c0.668-0.668,1.002-1.551,1.002-2.434h0.003c0-0.881-0.336-1.764-1.006-2.435l0,0l-10.121-10.12c-0.332-0.332-0.332-0.87,0-1.202
	c0.332-0.332,0.871-0.332,1.203,0l10.121,10.12c0.668,0.668,1.551,1.003,2.434,1.003c0.883,0,1.766-0.334,2.435-1.003l0,0l0,0
	c0.668-0.669,1.002-1.552,1.002-2.435c0-0.883-0.334-1.766-1.002-2.434l-10.12-10.12c-0.333-0.332-0.333-0.871,0-1.203
	c0.332-0.332,0.87-0.332,1.203,0l10.12,10.12c0.668,0.669,1.551,1.003,2.435,1.003c0.882,0,1.763-0.333,2.431-0.999l0.003-0.004h0
	c0.669-0.669,1.003-1.551,1.003-2.434C60.98,36.502,60.646,35.62,59.977,34.951L59.977,34.951z M56.505,42.419
	c0.07,0.342,0.104,0.689,0.104,1.037c0,1.317-0.5,2.636-1.501,3.637l-0.009,0.01c-1,0.995-2.314,1.492-3.628,1.492
	c-0.349,0-0.697-0.036-1.04-0.105c0.069,0.342,0.104,0.689,0.104,1.038h0.003c0,1.317-0.5,2.636-1.501,3.637h-0.001
	c-0.754,0.755-1.694,1.226-2.679,1.41c-0.812,0.152-1.655,0.109-2.451-0.131l-7.294,7.294l0,0c-1.053,1.053-2.441,1.579-3.827,1.579
	s-2.773-0.526-3.827-1.579l0,0l-0.008-0.009c-1.048-1.052-1.572-2.435-1.572-3.818c0-0.393,0.043-0.785,0.127-1.171
	c-0.385,0.085-0.778,0.126-1.171,0.126c-1.387,0-2.773-0.526-3.827-1.579L22.5,55.277c-1.044-1.051-1.568-2.434-1.568-3.818h-0.003
	c0-0.394,0.042-0.786,0.127-1.171c-0.386,0.084-0.779,0.127-1.171,0.127c-1.386,0-2.774-0.527-3.827-1.58l0,0h-0.001
	c-1.053-1.053-1.58-2.44-1.58-3.827c0-0.393,0.042-0.786,0.127-1.171c-0.385,0.084-0.778,0.127-1.171,0.127
	c-1.386,0-2.773-0.527-3.827-1.58h0v-0.001c-1.053-1.053-1.58-2.439-1.58-3.826c0-0.848,0.198-1.698,0.592-2.471l-2.184-2.185l0,0
	c-3.79-3.789-5.685-8.757-5.685-13.724c0-4.968,1.896-9.934,5.685-13.725l0,0h0c3.79-3.79,8.757-5.686,13.724-5.686
	s9.934,1.895,13.724,5.686l0,0c0.18,0.18,0.385,0.395,0.613,0.645L34.5,7.103c0.229-0.252,0.436-0.47,0.617-0.65l0,0
	c3.79-3.79,8.757-5.686,13.724-5.686c4.968,0,9.935,1.895,13.725,5.686l0,0h0c3.79,3.79,5.685,8.757,5.685,13.725
	c0,4.967-1.895,9.935-5.685,13.724h0L61.867,34.6c0.542,0.844,0.814,1.814,0.814,2.784c0,1.318-0.5,2.636-1.501,3.637l0,0v0l0,0
	c-1,1.001-2.32,1.501-3.637,1.501C57.195,42.523,56.847,42.489,56.505,42.419L56.505,42.419z M51.052,23.621l-5.594-5.594
	c-0.333-0.332-0.871-0.332-1.203,0l-7.904,7.904l0,0c-1.254,1.254-2.909,1.882-4.564,1.882c-1.655,0-3.31-0.628-4.564-1.882l0,0h0
	c-1.254-1.254-1.882-2.909-1.882-4.564c0-1.655,0.628-3.31,1.882-4.564l7.643-7.643c0.108-0.052,0.207-0.128,0.289-0.227
	c0.111-0.136,0.233-0.278,0.363-0.427l0.691-0.69c0.061-0.061,0.11-0.129,0.148-0.2c3.453-3.432,7.969-5.148,12.483-5.148
	c4.533,0,9.065,1.728,12.523,5.186v0.001l0,0c3.457,3.458,5.186,7.99,5.186,12.522c0,4.531-1.729,9.063-5.186,12.522l0,0
	l-0.617,0.617l-9.688-9.688L51.052,23.621L51.052,23.621z M42.994,52.951l-7.583,7.583l0,0c-0.721,0.721-1.672,1.082-2.624,1.082
	c-0.952,0-1.903-0.36-2.624-1.082l0,0h0h0l0,0c-0.72-0.721-1.081-1.672-1.081-2.624c0-0.952,0.361-1.903,1.081-2.624l0,0h0
	l7.835-7.836c0.721-0.721,1.672-1.081,2.624-1.081c0.953,0,1.904,0.36,2.625,1.081l0.003,0.004c0.718,0.72,1.078,1.67,1.078,2.621
	c0,0.952-0.361,1.903-1.081,2.625l-0.078,0.076C43.103,52.824,43.044,52.884,42.994,52.951L42.994,52.951z M23.711,48.834
	l7.836-7.836c0.721-0.721,1.672-1.081,2.624-1.081c0.952,0,1.903,0.36,2.624,1.081l0,0v0c0.721,0.721,1.082,1.672,1.082,2.624
	c0,0.953-0.36,1.903-1.082,2.625v0l-7.835,7.835l0,0l0,0c-0.721,0.722-1.672,1.082-2.624,1.082c-0.952,0-1.904-0.36-2.625-1.082h0h0
	c-0.723-0.723-1.085-1.674-1.085-2.624h0.004C22.63,50.507,22.99,49.556,23.711,48.834L23.711,48.834L23.711,48.834z M17.26,42.384
	l7.836-7.836c0.721-0.721,1.672-1.081,2.624-1.081v-0.004c0.95,0,1.901,0.362,2.624,1.085l0,0c0.721,0.721,1.082,1.673,1.082,2.624
	c0,0.952-0.36,1.904-1.082,2.625l-7.835,7.836l0,0c-0.721,0.721-1.672,1.081-2.624,1.081c-0.953,0-1.904-0.36-2.625-1.081
	l-0.004-0.004c-0.718-0.721-1.078-1.67-1.078-2.621C16.178,44.056,16.539,43.104,17.26,42.384L17.26,42.384L17.26,42.384z
	 M10.396,36.425c0.121-0.173,0.258-0.338,0.413-0.492h0.001l7.835-7.836c0.721-0.721,1.672-1.082,2.624-1.082
	c0.953,0,1.904,0.361,2.625,1.082l0,0v0c0.72,0.721,1.081,1.672,1.081,2.624c0,0.952-0.361,1.904-1.081,2.624l0,0l-7.836,7.836v0
	c-0.721,0.721-1.672,1.081-2.624,1.081c-0.952,0-1.903-0.36-2.624-1.082v0h-0.001c-0.72-0.721-1.081-1.672-1.081-2.624
	c0-0.74,0.218-1.479,0.653-2.111l0.002-0.003l0.005-0.006l0.001-0.003L10.396,36.425z"/>
<g>
</g>
<g>
</g>
<g>
</g>
<g>
</g>
<g>
</g>
<g>
</g>
</svg>
