<?xml version="1.0" encoding="iso-8859-1"?>
<!-- Generator: Adobe Illustrator 17.1.0, SVG Export Plug-In . SVG Version: 6.00 Build 0)  -->
<!DOCTYPE svg PUBLIC "-//W3C//DTD SVG 1.1//EN" "http://www.w3.org/Graphics/SVG/1.1/DTD/svg11.dtd">
<svg version="1.1" id="&#x421;&#x43B;&#x43E;&#x439;_1"
	 xmlns="http://www.w3.org/2000/svg" xmlns:xlink="http://www.w3.org/1999/xlink" x="0px" y="0px" viewBox="0 0 130.447 144.899"
	 style="enable-background:new 0 0 130.447 144.899;" xml:space="preserve">
	<path style="fill:#666;" d="M130.447,88.986v55.913H103.06V92.72c0-13.175-5.329-22.126-15.231-22.126
		c-7.582,0-14.061,6.068-16.053,11.902c-0.722,2.096-2.949,5.039-2.949,7.942v54.462H44.122c0,0,0.368-89.587,0-97.732h24.705
		v13.915c0,0.123,2.541,2.374,2.541,2.374h-2.541v-2.374c6.847-6.665,12.837-16.166,27.373-16.166
		C114.253,44.917,130.447,58.914,130.447,88.986L130.447,88.986z M15.485,0C6.124,0,0,5.805,0,15.445
		c0,9.369,5.95,15.434,15.137,15.434h0.16c9.568,0,15.499-6.065,15.499-15.434C30.609,5.805,24.866,0,15.485,0L15.485,0z
		 M0.361,144.899h27.387V47.168H0.361V144.899z M1.631,145.134"/>
</svg>
