<?xml version="1.0" encoding="iso-8859-1"?>
<!-- Generator: Adobe Illustrator 17.1.0, SVG Export Plug-In . SVG Version: 6.00 Build 0)  -->
<!DOCTYPE svg PUBLIC "-//W3C//DTD SVG 1.1//EN" "http://www.w3.org/Graphics/SVG/1.1/DTD/svg11.dtd">
<svg version="1.1" id="&#x421;&#x43B;&#x43E;&#x439;_1"
	 xmlns="http://www.w3.org/2000/svg" xmlns:xlink="http://www.w3.org/1999/xlink" x="0px" y="0px" viewBox="0 0 428.188 427.969"
	 style="enable-background:new 0 0 428.188 427.969;" xml:space="preserve">
<g style="opacity:0.6;">
	<g>
		<path style="fill:#49BACE;" d="M349.781,187.215c0.391,1.802,0.746,3.61,1.064,5.428c0.628,3.593,1.115,7.211,1.453,10.844
			c0.64,6.888,0.754,13.825,0.333,20.732c-0.838,13.798-3.803,27.45-8.728,40.364c-18.51,48.532-63.979,83.148-115.777,87.765
			c-29.756,2.65-59.968-4.764-85.209-20.722c-12.364-7.818-23.459-17.623-32.72-28.95c-4.533-5.545-8.625-11.45-12.228-17.64
			c-1.966-3.375-3.786-6.836-5.454-10.368c-0.774-1.64-1.515-3.294-2.224-4.963c-0.41-0.964-0.625-3.181-1.979-2.145
			c5.575,13.889,13.42,26.846,23.159,38.209c35.469,41.378,93.702,58.069,145.704,41.831c14.815-4.627,28.822-11.765,41.253-21.061
			c21.261-15.9,37.671-37.963,46.89-62.855c9.423-25.44,11.104-53.433,4.733-79.808
			C348.298,183.809,349.553,186.167,349.781,187.215z"/>
		<path style="fill:#49BACE;" d="M255.493,342.219c13.964-4.36,27.186-11.025,38.974-19.691
			c42.253-31.062,62.354-85.98,50.192-136.965c-1.771-0.064-0.507,2.282-0.279,3.345c0.378,1.777,0.721,3.56,1.022,5.351
			c0.583,3.413,1.029,6.847,1.338,10.295c0.639,7.144,0.692,14.34,0.148,21.492c-1.087,14.314-4.564,28.424-10.221,41.617
			c-20.954,48.855-70.724,80.881-123.905,79.541c-25.878-0.652-51.324-9.167-72.457-24.107
			c-10.477-7.406-19.854-16.356-27.729-26.488c-3.852-4.956-7.345-10.19-10.442-15.648c-1.634-2.879-3.159-5.817-4.571-8.812
			c-0.708-1.504-1.388-3.023-2.039-4.553c-0.403-0.945-0.538-2.699-1.81-1.722c5.401,13.322,12.983,25.741,22.382,36.618
			C150.149,341.902,205.795,357.738,255.493,342.219z"/>
		<path style="fill:#49BACE;" d="M253.812,336.838c13.402-4.185,26.086-10.587,37.392-18.913
			c40.282-29.664,59.517-82.003,48.063-130.677c-1.655-0.065-0.599,1.895-0.384,2.901c0.378,1.777,0.718,3.564,1.018,5.354
			c0.545,3.27,0.966,6.559,1.253,9.859c0.596,6.853,0.626,13.756,0.084,20.613c-1.083,13.728-4.461,27.253-9.934,39.887
			c-20.167,46.558-67.721,77.012-118.479,75.699c-24.691-0.638-48.966-8.754-69.144-22.987
			c-10.007-7.058-18.967-15.584-26.502-25.238c-3.681-4.715-7.021-9.696-9.988-14.891c-1.643-2.876-3.171-5.819-4.581-8.818
			c-0.643-1.368-1.262-2.75-1.856-4.142c-0.376-0.88-0.501-2.2-1.637-1.296c5.227,12.754,12.547,24.634,21.604,35.025
			C153.357,336.655,206.417,351.637,253.812,336.838z"/>
		<path style="fill:#49BACE;" d="M252.132,331.457c12.833-4.008,24.996-10.143,35.81-18.135
			c38.299-28.298,56.684-78.001,45.933-124.388c-1.764-0.076-0.526,2.253-0.311,3.316c0.39,1.91,0.735,3.828,1.031,5.755
			c0.545,3.535,0.931,7.095,1.155,10.667c0.45,7.091,0.26,14.223-0.562,21.281c-1.653,14.18-5.882,28.028-12.388,40.734
			c-23.048,44.999-73.477,71.216-123.53,64.095c-21.206-3.016-41.474-11.796-58.191-25.186c-8.538-6.84-16.128-14.852-22.486-23.757
			c-3.211-4.497-6.108-9.219-8.664-14.117c-1.332-2.55-2.569-5.147-3.714-7.786c-0.577-1.333-1.13-2.677-1.661-4.029
			c-0.361-0.923-0.432-2.408-1.656-1.51c4.783,12.837,11.736,24.841,20.535,35.345C154.446,330.762,206.052,345.846,252.132,331.457
			z"/>
		<path style="fill:#49BACE;" d="M250.452,326.076c12.459-3.891,24.25-9.879,34.708-17.696
			c37.261-27.854,54.268-76.952,42.295-121.875c-1.675-0.037-0.542,1.914-0.302,2.909c0.353,1.471,0.681,2.948,0.977,4.429
			c0.648,3.241,1.156,6.51,1.522,9.796c0.726,6.512,0.887,13.089,0.478,19.629c-0.799,12.796-3.796,25.431-8.796,37.235
			c-18.683,44.116-64.241,72.526-112.121,69.648c-23.166-1.393-45.698-10.08-63.925-24.425
			c-9.127-7.185-17.137-15.772-23.657-25.386c-3.19-4.705-6.024-9.65-8.476-14.776c-1.368-2.863-2.616-5.781-3.745-8.747
			c-0.484-1.28-0.951-2.569-1.392-3.865c-0.327-0.958-0.295-2.253-1.537-1.428c4.058,12.566,10.247,24.429,18.3,34.9
			C153.894,324.275,204.927,340.292,250.452,326.076z"/>
		<path style="fill:#49BACE;" d="M113.016,253.162c0.202,0.562,0.417,1.119,0.628,1.678c0.24,0.633,0.488,1.258,0.739,1.886
			c3.278,8.187,7.515,15.984,12.665,23.163c3.728,5.195,7.889,9.979,12.388,14.355c0.528,0.52,1.061,1.033,1.599,1.54
			c0.15,0.141,0.296,0.285,0.446,0.424c8.151,7.625,17.456,14.038,27.642,18.876c0.058-0.066,0.095-0.128,0.133-0.189
			c0.643,0.303,1.294,0.587,1.944,0.878c-0.029,0.072-0.056,0.145-0.072,0.237c21.577,9.721,46.017,12.125,69.033,6.977
			c0.122-0.028,0.246-0.055,0.37-0.083c1.292-0.294,2.583-0.609,3.865-0.951c0.163-0.043,0.323-0.09,0.485-0.134
			c1.302-0.352,2.599-0.724,3.89-1.126c1.555-0.486,3.097-1.007,4.629-1.562c0.491-0.177,0.971-0.378,1.46-0.563
			c1.036-0.392,2.072-0.779,3.095-1.202c0.572-0.235,1.129-0.497,1.695-0.741c0.929-0.402,1.86-0.796,2.777-1.223
			c0.593-0.277,1.175-0.58,1.762-0.866c0.876-0.427,1.755-0.846,2.619-1.297c0.6-0.312,1.186-0.651,1.781-0.974
			c0.835-0.455,1.674-0.902,2.497-1.379c0.602-0.349,1.191-0.724,1.788-1.084c0.795-0.481,1.597-0.956,2.381-1.458
			c0.602-0.388,1.191-0.796,1.786-1.195c0.756-0.507,1.516-1.004,2.259-1.528c0.607-0.429,1.199-0.88,1.795-1.32
			c0.608-0.449,1.227-0.882,1.825-1.343c0.11-0.084,0.212-0.173,0.32-0.256c0.089-0.07,0.186-0.136,0.277-0.206
			c0.496-0.388,0.974-0.795,1.462-1.191c0.497-0.402,1-0.802,1.488-1.212c0.671-0.563,1.326-1.144,1.981-1.724
			c0.376-0.332,0.757-0.657,1.128-0.993c0.867-0.789,1.716-1.596,2.557-2.411c0.13-0.125,0.264-0.246,0.393-0.374
			c13.117-12.836,22.957-28.928,28.353-46.509c3.34-10.887,4.977-22.288,4.806-33.676c-0.087-5.767-0.631-11.524-1.631-17.204
			c-0.325-1.851-0.712-3.687-1.133-5.519c-0.05-0.218-0.109-0.437-0.158-0.656c-0.239-1.007-0.468-2.015-0.734-3.016
			c-0.226-0.855-0.556-3.502-1.319-4.564c-0.002-0.005-0.003-0.011-0.005-0.015c-0.001-0.001-0.002,0.001-0.004,0
			c-0.306-0.418-0.68-0.589-1.146-0.277c0.1,0.297,0.187,0.599,0.28,0.897c-0.032,0.555,0.424,1.368,0.597,1.967
			c0.438,1.521,0.844,3.048,1.216,4.586c0.735,3.035,1.341,6.104,1.811,9.19c0.885,5.801,1.294,11.675,1.222,17.543
			c0.002,0.007,0.001,0.012,0.001,0.018c-0.035,2.811-0.186,5.621-0.442,8.423c-0.026,0.291-0.057,0.585-0.085,0.876
			c-0.111,1.111-0.238,2.22-0.383,3.327c-0.034,0.257-0.065,0.516-0.098,0.774c-0.188,1.36-0.398,2.719-0.638,4.071
			c-0.003,0.031-0.011,0.06-0.017,0.09c-0.225,1.262-0.478,2.519-0.749,3.773c-0.059,0.281-0.118,0.562-0.18,0.841
			c-0.267,1.203-0.555,2.4-0.863,3.593c-0.119,0.454-0.246,0.903-0.371,1.355c-0.185,0.673-0.375,1.342-0.57,2.01
			c-2.302,7.798-5.475,15.308-9.423,22.38c-0.178,0.315-0.352,0.634-0.531,0.95c-0.268,0.467-0.541,0.931-0.815,1.394
			c-18,30.223-50.175,50.625-85.804,53.183c-0.366,0.026-0.734,0.044-1.1,0.065c-0.884,0.055-1.769,0.099-2.656,0.13
			c-0.503,0.019-1.005,0.031-1.508,0.042c-0.952,0.021-1.903,0.027-2.855,0.023c-0.448-0.003-0.895,0-1.343-0.008
			c-1.386-0.025-2.772-0.068-4.153-0.146c-0.042-0.002-0.083-0.007-0.124-0.008c-1.426-0.084-2.853-0.195-4.275-0.335
			c-0.15-0.015-0.302-0.032-0.454-0.047c-10.421-1.063-20.659-3.643-30.337-7.612c-0.775-0.406-1.893-1.061-2.72-1.176
			c-1.034-0.457-2.061-0.927-3.081-1.415c-0.502-0.487-1.555-0.833-2.301-1.128c-4.17-2.124-8.207-4.511-12.077-7.164
			c-0.205-0.143-0.408-0.286-0.612-0.428c-1.025-0.713-2.038-1.443-3.037-2.193c-0.146-0.109-0.296-0.216-0.443-0.327
			c-1.096-0.83-2.175-1.686-3.239-2.559c-0.223-0.182-0.442-0.368-0.666-0.553c-0.971-0.809-1.93-1.633-2.873-2.476
			c-0.107-0.095-0.217-0.188-0.322-0.283c-1.032-0.929-2.045-1.883-3.042-2.852c-0.196-0.19-0.39-0.385-0.586-0.578
			c-0.926-0.914-1.839-1.841-2.732-2.788c-0.074-0.079-0.15-0.154-0.224-0.232c-0.953-1.016-1.881-2.053-2.794-3.104
			c-0.189-0.218-0.376-0.437-0.563-0.657c-0.825-0.964-1.635-1.94-2.427-2.933c-0.086-0.112-0.178-0.218-0.266-0.33
			c-0.84-1.063-1.653-2.146-2.453-3.239c-0.207-0.282-0.412-0.567-0.616-0.853c-0.7-0.977-1.383-1.961-2.051-2.96
			c-0.103-0.155-0.211-0.305-0.313-0.462c-0.75-1.135-1.473-2.289-2.178-3.451c-0.18-0.296-0.359-0.595-0.536-0.893
			c-0.695-1.166-1.372-2.342-2.022-3.531c-0.015-0.028-0.032-0.055-0.046-0.083c-0.662-1.217-1.291-2.452-1.907-3.693
			c-0.154-0.311-0.307-0.624-0.458-0.936c-0.601-1.245-1.188-2.496-1.741-3.764c-0.005-0.011-0.011-0.021-0.016-0.032
			c-0.587-1.348-1.138-2.711-1.668-4.082c-0.121-0.306-0.239-0.612-0.354-0.918c-0.513-1.355-1.003-2.719-1.46-4.093
			c-0.069-0.208-0.132-0.416-0.2-0.626c-0.266-0.814-0.51-1.637-0.755-2.458c-0.166-0.792-0.316-1.986-0.715-2.631
			c-0.142-0.39-0.385-0.612-0.891-0.417c-0.091,0.027-0.186,0.066-0.286,0.126c0.373,1.396,0.785,2.78,1.212,4.157
			c0.107,0.342,0.212,0.684,0.321,1.027C112.163,250.734,112.577,251.953,113.016,253.162z"/>
		<path style="fill:#49BACE;" d="M167.67,310.97c1.482,4.142,4.954,4.707,8.661,3.55c1.133-0.354,2.265-0.707,3.398-1.061
			c21.574,8.081,45.372,8.721,67.362,1.854c22.047-6.885,41.295-21.007,54.444-40.002c-0.018-0.02-0.034-0.027-0.049-0.046
			c2.181-1.191,2.945-3.039,2.967-5.151c0.095,0.066,0.203,0.125,0.352,0.167c16.653-27.286,19.774-61.425,8.394-91.287
			c-1.869,0.198,0.124,3.256,0.518,4.435c0.698,2.074,1.327,4.174,1.887,6.29c1.063,4.012,1.883,8.087,2.455,12.196
			c1.11,8,1.274,16.126,0.49,24.163c-0.785,8.029-2.514,15.961-5.145,23.588c-1.348,3.911-2.934,7.741-4.743,11.461
			c-0.911,1.873-1.878,3.72-2.903,5.535c-0.292,0.521-1.011,1.361-1.378,2.111c-0.234-2.005-0.963-4.157-1.681-6.162
			c14.542-27.079,15.517-59.819,2.656-87.751c-1.741,0.298,0.342,3.259,0.765,4.293c0.867,2.118,1.659,4.268,2.376,6.44
			c1.255,3.8,2.28,7.674,3.066,11.597c1.516,7.573,2.135,15.319,1.813,23.034c-0.326,7.824-1.617,15.601-3.826,23.112
			c-1.097,3.726-2.417,7.385-3.95,10.953c-0.714,1.663-1.475,3.307-2.278,4.93c-0.222,0.448-0.785,1.197-1.153,1.911
			c-0.203-0.573-0.393-1.127-0.557-1.651c-0.466-1.494-0.933-2.987-1.399-4.48c12.468-26.939,11.111-58.893-3.542-84.715
			c-1.78,0.419,0.439,2.89,0.934,3.855c1.082,2.105,2.082,4.25,2.997,6.432c1.606,3.824,2.953,7.757,4.03,11.762
			c1.9,7.069,2.95,14.361,3.125,21.679c0.176,7.421-0.567,14.862-2.191,22.104c-0.801,3.568-1.815,7.087-3.036,10.535
			c-0.667,1.88-1.394,3.739-2.181,5.572c-0.144,0.336-0.414,0.751-0.64,1.164c-0.706-2.261-1.411-4.52-2.117-6.781
			c10.187-27.159,5.974-58.206-11.099-81.688c-1.634,0.584,0.377,2.262,0.979,3.156c1.161,1.724,2.261,3.49,3.292,5.293
			c2.061,3.6,3.862,7.348,5.38,11.208c2.714,6.891,4.551,14.141,5.427,21.496c0.856,7.221,0.788,14.539-0.219,21.739
			c-0.495,3.543-1.212,7.058-2.147,10.513c-0.493,1.821-1.044,3.626-1.654,5.411c-0.11,0.325-0.336,0.748-0.529,1.174
			c-0.858-2.367-2.001-4.965-2.249-7.329c-0.021-0.196-0.014-0.404-0.013-0.612c0.596-2.246,1.091-4.509,1.487-6.785
			c0.042-0.197,0.089-0.396,0.121-0.584c0.708-4.177,1.087-8.414,1.133-12.649c0.092-8.497-1.168-17.001-3.7-25.111
			c-0.038,0.002-0.065,0.014-0.099,0.018c-3.975-12.779-11.04-24.608-20.837-34.118c-1.493,0.846,0.666,2.076,1.401,2.849
			c1.376,1.44,2.698,2.934,3.962,4.474c2.422,2.955,4.631,6.083,6.61,9.349c3.476,5.74,6.228,11.91,8.18,18.329
			c-0.026,0.985,0.665,2.533,0.941,3.387c0.09,0.353,0.176,0.703,0.262,1.058c0.133,0.55,0.263,1.104,0.384,1.658
			c0.101,0.457,0.197,0.915,0.29,1.374c0.105,0.51,0.201,1.021,0.294,1.534c0.086,0.47,0.169,0.941,0.245,1.413
			c0.108,0.661,0.204,1.325,0.296,1.988c0.055,0.396,0.114,0.79,0.163,1.187c0.128,1.046,0.242,2.095,0.328,3.146
			c0.008,0.11,0.012,0.221,0.021,0.33c0.077,0.978,0.135,1.956,0.176,2.935c0.013,0.301,0.018,0.601,0.027,0.901
			c0.024,0.803,0.039,1.604,0.038,2.407c0.001,0.326,0,0.652-0.004,0.98c-0.011,0.843-0.033,1.686-0.07,2.527
			c-0.011,0.23-0.017,0.462-0.028,0.692c-0.056,1.067-0.13,2.133-0.228,3.199c-0.017,0.177-0.04,0.354-0.057,0.53
			c-0.088,0.871-0.187,1.741-0.305,2.608c-0.044,0.344-0.093,0.687-0.144,1.031c-0.104,0.715-0.22,1.428-0.344,2.141
			c-0.06,0.343-0.119,0.685-0.182,1.025c-0.343,1.639-1.064,3.54-1.307,5.284c-0.065,0.261-0.098,0.507-0.072,0.717
			c-0.015,0.318-0.016,0.629,0.016,0.928c0.134,1.255,0.83,2.656,1.204,3.855c2.712,8.686,5.425,17.372,8.138,26.059
			c1.015,3.251,0.322,6.06-3.218,7.254c-3.532,1.19-7.124,2.224-10.681,3.335c-4.902,1.531-9.804,3.061-14.704,4.592
			c-2.773,0.866-5.76,1.395-8.129,3.101c-8.046,5.793-17.091,10.173-26.627,12.896c-4.679,1.336-9.469,2.28-14.305,2.808
			c-2.589,0.283-5.19,0.446-7.793,0.492c-1.51,0.026-3.33-0.27-4.815-0.04c-2.44,0.377-4.984,1.557-7.332,2.29
			c-4.928,1.539-9.854,3.077-14.781,4.615c-4.292,1.34-8.586,2.681-12.88,4.022c-3.053,0.954-6.824,2.509-8.807-1.261
			c-1.319-2.51-1.848-5.719-2.686-8.403c-1.53-4.9-3.06-9.8-4.59-14.699c-0.737-2.36-1.156-5.842-2.484-7.954
			c-0.982-1.564-3.224-3.007-4.585-4.349c-0.185-0.188-0.366-0.38-0.548-0.568c-0.527-0.547-1.046-1.101-1.559-1.661
			c-0.21-0.232-0.422-0.463-0.629-0.695c-0.587-0.657-1.166-1.322-1.73-1.997c-0.094-0.111-0.19-0.22-0.284-0.332
			c-0.663-0.8-1.311-1.612-1.945-2.437c-0.137-0.177-0.269-0.355-0.403-0.533c-0.495-0.652-0.981-1.313-1.456-1.98
			c-0.176-0.246-0.352-0.491-0.524-0.739c-0.476-0.682-0.94-1.371-1.396-2.065c-0.12-0.184-0.245-0.365-0.363-0.55
			c-0.574-0.89-1.135-1.792-1.678-2.705c-0.047-0.081-0.093-0.163-0.14-0.245c-0.512-0.868-1.007-1.747-1.488-2.634
			c-0.123-0.224-0.242-0.45-0.361-0.676c-0.447-0.841-0.881-1.689-1.3-2.544c-0.066-0.135-0.135-0.27-0.202-0.406
			c-0.973-2.019-1.864-4.075-2.68-6.164c-0.093-0.238-0.184-0.478-0.275-0.717c-0.316-0.833-0.62-1.672-0.912-2.515
			c-0.079-0.23-0.162-0.459-0.24-0.69c-0.706-2.103-1.331-4.232-1.874-6.384c-0.068-0.268-0.132-0.537-0.198-0.807
			c-0.2-0.825-0.388-1.653-0.564-2.483c-0.062-0.288-0.123-0.578-0.181-0.868c-0.19-0.945-0.365-1.894-0.524-2.846
			c-0.02-0.122-0.045-0.244-0.064-0.367c-0.178-1.097-0.332-2.198-0.466-3.302c-0.026-0.209-0.046-0.419-0.07-0.627
			c-0.099-0.872-0.185-1.746-0.258-2.622c-0.028-0.325-0.051-0.653-0.074-0.979c-0.058-0.799-0.103-1.599-0.137-2.399
			c-0.013-0.302-0.03-0.604-0.039-0.906c-0.038-1.153-0.055-2.309-0.046-3.463c0.001-0.127,0.008-0.256,0.009-0.383
			c0.013-1.004,0.046-2.005,0.094-3.006c0.012-0.256,0.029-0.513,0.044-0.771c0.102-0.789,0.436-2.184,0.302-3.084
			c-0.006-0.471-0.167-0.822-0.693-0.847c-0.01-0.001-0.021-0.002-0.032-0.003c-0.088-0.001-0.183,0.003-0.292,0.02
			c-0.131,1.305-0.224,2.61-0.294,3.917c-0.013,0.242-0.03,0.483-0.04,0.727c-0.056,1.239-0.086,2.479-0.09,3.715
			c0,0.287,0.003,0.572,0.005,0.859c0.01,1.222,0.037,2.442,0.098,3.661c0.012,0.224,0.029,0.446,0.041,0.671
			c0.061,1.031,0.141,2.061,0.239,3.089c0.038,0.404,0.073,0.808,0.115,1.209c0.116,1.052,0.249,2.101,0.401,3.145
			c0.079,0.546,0.165,1.088,0.255,1.633c0.109,0.665,0.23,1.327,0.355,1.988c0.182,0.976,0.382,1.945,0.598,2.915
			c0.086,0.386,0.174,0.772,0.266,1.159c2.916,12.313,8.474,23.978,16.354,33.98c0.046,0.059,0.095,0.119,0.142,0.178
			c0.501,0.632,0.989,1.274,1.509,1.894c0.413,0.491,0.847,0.964,1.271,1.447c0.216,0.246,0.432,0.493,0.652,0.741
			c0.404,0.45,0.812,0.897,1.226,1.34c0.628,0.673,1.268,1.338,1.92,1.992c0.088,0.089,0.171,0.182,0.26,0.269
			c0.061,0.06,0.132,0.122,0.196,0.184c1.084,1.069,2.196,2.112,3.339,3.126c0.025,0.037,0.056,0.075,0.081,0.113
			c0.55,0.89,0.73,2.339,1.038,3.327c0.464,1.485,0.928,2.972,1.392,4.457c-0.366-0.22-0.742-0.428-0.998-0.626
			c-1.5-1.165-2.966-2.376-4.395-3.629c-2.595-2.28-5.063-4.709-7.383-7.271c-4.718-5.216-8.824-10.975-12.213-17.14
			c-3.496-6.357-6.233-13.134-8.147-20.131c-1.097-4.012-1.925-8.095-2.474-12.218c-0.26-1.968-0.46-3.942-0.591-5.922
			c-0.074-1.107,0.495-3.671-1.168-3.213c0.884,28.348,15.042,55.241,37.934,71.96c0.722,2.311,1.443,4.62,2.164,6.931
			c-0.546-0.323-1.172-0.6-1.522-0.834c-1.544-1.031-3.059-2.107-4.543-3.225c-2.951-2.228-5.774-4.622-8.452-7.169
			c-5.334-5.076-10.087-10.757-14.143-16.901c-4.157-6.302-7.578-13.088-10.173-20.179c-1.402-3.833-2.562-7.754-3.474-11.731
			c-0.484-2.105-0.898-4.226-1.242-6.358c-0.181-1.124,0.253-3.771-1.461-3.068c3.692,29.124,20.619,55.625,45.536,71.152
			c0.656,2.1,1.271,4.224,1.913,6.339c-0.691-0.396-1.547-0.721-1.972-0.971c-1.577-0.924-3.131-1.888-4.658-2.893
			c-3.281-2.16-6.439-4.506-9.452-7.026c-5.971-4.993-11.371-10.669-16.053-16.888c-4.698-6.24-8.677-13.023-11.836-20.167
			c-1.601-3.624-3-7.34-4.181-11.123c-0.631-2.032-1.205-4.082-1.714-6.15c-0.265-1.073-0.267-4.82-1.922-3.946
			c6.101,29.991,25.382,56.127,52.272,70.737C166.865,308.61,167.25,309.797,167.67,310.97z M204.327,305.777
			c2.755-0.86,5.737-2.241,8.598-2.685c1.851-0.285,3.975,0.053,5.86-0.005c2.451-0.075,4.896-0.253,7.331-0.535
			c5.402-0.626,10.743-1.762,15.935-3.383c5.022-1.568,9.907-3.59,14.565-6.038c2.324-1.222,4.591-2.551,6.795-3.979
			c1.575-1.02,3.119-2.495,4.787-3.319c2.566-1.265,5.794-1.809,8.517-2.66c0.886-0.276,1.775-0.547,2.662-0.821
			c-0.193,0.227-0.375,0.439-0.536,0.588c-1.466,1.377-2.98,2.705-4.537,3.983c-3.116,2.553-6.397,4.903-9.819,7.026
			c-6.574,4.079-13.667,7.335-21.054,9.638c-7.551,2.354-15.401,3.726-23.302,4.078c-3.854,0.172-7.722,0.104-11.569-0.212
			c-2.007-0.165-4.008-0.396-5.999-0.693c-0.217-0.031-0.487-0.106-0.777-0.188C202.631,306.307,203.479,306.042,204.327,305.777z
			 M199.529,307.275c14.668,2.681,29.97,1.718,44.201-2.726c14.22-4.44,27.342-12.348,37.875-22.888
			c2.812-0.865,5.624-1.728,8.433-2.599c-0.672,0.805-1.297,1.787-1.67,2.2c-1.719,1.912-3.517,3.756-5.382,5.524
			c-3.484,3.3-7.211,6.341-11.146,9.088c-8.17,5.704-17.22,10.123-26.729,13.093c-9.511,2.97-19.466,4.484-29.43,4.443
			c-4.798-0.019-9.595-0.399-14.336-1.13c-2.542-0.393-5.067-0.887-7.57-1.48c-0.557-0.131-1.676-0.604-2.711-0.881
			C193.885,309.037,196.705,308.157,199.529,307.275z M188.958,310.577c18.402,5.307,38.172,5.063,56.452-0.646
			c18.25-5.699,34.622-16.722,46.729-31.521c2.575-0.805,5.148-1.617,7.708-2.459c-0.811,1.138-1.642,2.26-2.498,3.365
			c-1.533,1.978-3.136,3.899-4.807,5.762c-3.413,3.803-7.111,7.348-11.057,10.595c-14.341,11.804-31.924,19.502-50.279,22.272
			c-9.016,1.359-18.207,1.506-27.261,0.415c-4.465-0.538-8.895-1.374-13.252-2.495c-2.427-0.625-4.832-1.338-7.209-2.137
			c-0.456-0.152-1.195-0.559-1.91-0.846C184.036,312.113,186.496,311.345,188.958,310.577z"/>
	</g>
	<g>
		<polygon style="fill:#49BACE;" points="223.255,287.707 222.292,288.008 216.491,269.43 223.097,256.825 218.08,240.758 
			219.043,240.457 224.185,256.921 217.579,269.528 		"/>
	</g>
	<g>
		
			<rect x="211.32" y="243.169" transform="matrix(0.9546 -0.2978 0.2978 0.9546 -65.6731 74.5534)" style="fill:#49BACE;" width="1.01" height="19.254"/>
	</g>
	<g>
		
			<rect x="224.334" y="268.52" transform="matrix(0.9545 -0.2983 0.2983 0.9545 -72.5905 79.7163)" style="fill:#49BACE;" width="1.008" height="18.258"/>
	</g>
	<g>
		
			<rect x="243.048" y="259.754" transform="matrix(0.9546 -0.2979 0.2979 0.9546 -69.4767 84.8429)" style="fill:#49BACE;" width="1.009" height="21.112"/>
	</g>
	<g>
		
			<rect x="215.422" y="241.625" transform="matrix(0.9545 -0.2983 0.2983 0.9545 -64.4827 75.7582)" style="fill:#49BACE;" width="1.008" height="14.972"/>
	</g>
	<g>
		<polygon style="fill:#49BACE;" points="232.826,284.718 231.862,285.019 225.204,263.571 228.75,256.808 223.188,239 
			224.152,238.699 229.837,256.906 226.292,263.674 228.139,269.708 		"/>
	</g>
	<g>
		<polygon style="fill:#49BACE;" points="237.611,283.224 236.647,283.525 231.145,265.903 237.608,252.965 232.353,236.138 
			233.317,235.837 238.693,253.053 232.229,265.991 		"/>
	</g>
	<g>
		
			<rect x="230.053" y="237.1" transform="matrix(0.9546 -0.298 0.298 0.9546 -62.6829 79.8535)" style="fill:#49BACE;" width="1.009" height="16.823"/>
	</g>
	<g>
		
			<rect x="238.903" y="265.441" transform="matrix(0.9545 -0.2982 0.2982 0.9545 -70.7718 83.8531)" style="fill:#49BACE;" width="1.009" height="16.821"/>
	</g>
	<g>
		<path style="fill:#49BACE;" d="M205.247,196.401l-0.964,0.301l-6.773-21.801c-0.196-0.634-0.142-1.312,0.149-1.909l2.714-5.592
			c0.18-0.369,0.21-0.788,0.089-1.18l-10.239-32.79c-0.431-1.376,0.34-2.846,1.716-3.276l5.819-1.817
			c0.755-0.236,1.074-0.872,1.12-1.388c0.047-0.517-0.152-1.2-0.854-1.567l-14.229-7.962c-0.773-0.404-1.745-0.1-2.157,0.683
			l-8.374,15.02c-0.361,0.689-0.137,1.363,0.193,1.76c0.331,0.398,0.954,0.741,1.708,0.508l7.589-2.37
			c1.376-0.43,2.845,0.341,3.275,1.717l9.71,31.095c0.199,0.639,0.147,1.32-0.144,1.923l-5.685,11.707
			c-0.179,0.371-0.212,0.789-0.089,1.182l5.854,18.745l-0.963,0.301l-5.854-18.745c-0.2-0.639-0.147-1.321,0.144-1.921l5.685-11.709
			c0.18-0.37,0.212-0.789,0.089-1.18l-9.71-31.094c-0.264-0.846-1.166-1.318-2.01-1.055l-7.592,2.371
			c-1.03,0.316-2.095,0-2.784-0.828c-0.687-0.827-0.806-1.933-0.306-2.885l8.377-15.02c0.662-1.265,2.247-1.761,3.523-1.09
			l14.23,7.96c0.943,0.494,1.475,1.472,1.379,2.544c-0.097,1.075-0.796,1.942-1.825,2.263l-5.819,1.817
			c-0.845,0.264-1.319,1.166-1.055,2.011l10.239,32.79c0.199,0.638,0.146,1.319-0.144,1.922l-2.716,5.592
			c-0.177,0.367-0.209,0.783-0.09,1.172l1.788,5.835L205.247,196.401z"/>
	</g>
	<g>
		<path style="fill:#49BACE;" d="M187.085,171.878l-0.963,0.301l-7.452-23.863c-0.264-0.846-1.167-1.319-2.012-1.054l-11.634,3.633
			l-0.301-0.963l11.634-3.633c1.376-0.43,2.846,0.341,3.276,1.717L187.085,171.878z"/>
	</g>
	<g>
		
			<rect x="196.583" y="179.072" transform="matrix(0.9545 -0.2982 0.2982 0.9545 -47.3246 67.3549)" style="fill:#49BACE;" width="1.009" height="19.415"/>
	</g>
	<g>
		
			<rect x="215.27" y="170.13" transform="matrix(0.9546 -0.2979 0.2979 0.9546 -44.2283 72.5127)" style="fill:#49BACE;" width="1.01" height="22.449"/>
	</g>
	<g>
		<path style="fill:#49BACE;" d="M190.464,165.88l-0.963,0.301l-7.7-24.659c-0.264-0.845-1.167-1.318-2.012-1.054l-12.404,3.873
			l-0.301-0.963l12.404-3.874c1.378-0.43,2.846,0.342,3.276,1.717L190.464,165.88z"/>
	</g>
	<g>
		<path style="fill:#49BACE;" d="M210.032,194.907l-0.963,0.301l-5.545-17.757c-0.194-0.621-0.15-1.288,0.122-1.876l5.585-12.092
			c0.166-0.363,0.193-0.771,0.074-1.152l-6.709-21.485c-0.43-1.376,0.342-2.846,1.717-3.276l12.61-3.938l0.301,0.963l-12.61,3.938
			c-0.845,0.264-1.318,1.166-1.054,2.012l6.709,21.485c0.194,0.621,0.15,1.286-0.122,1.876l-5.585,12.092
			c-0.167,0.361-0.194,0.771-0.075,1.152L210.032,194.907z"/>
	</g>
	<g>
		<path style="fill:#49BACE;" d="M205.407,163.275l-0.963,0.301l-8.287-26.537c-0.43-1.375,0.34-2.846,1.716-3.276l12.629-3.944
			l0.301,0.964l-12.629,3.943c-0.845,0.264-1.318,1.167-1.055,2.012L205.407,163.275z"/>
	</g>
	<g>
		
			<rect x="211.165" y="176.081" transform="matrix(0.9547 -0.2976 0.2976 0.9547 -45.4747 71.3803)" style="fill:#49BACE;" width="1.009" height="17.888"/>
	</g>
	<g>
		<path style="fill:none;" d="M48.438,238.041l50.494-15.768c1.969-0.615,3.581-1.958,4.536-3.785l65.65-125.266
			c2.234-4.265,7.521-5.914,11.783-3.68l123.217,64.575c1.825,0.957,3.916,1.146,5.884,0.531l51.509-16.085
			c-0.3-0.747-0.609-1.488-0.919-2.229l-47.68,14.889c-2.226,0.695-4.589,0.481-6.654-0.601L178.322,83.576
			c-1.827-0.956-3.916-1.145-5.884-0.53c-1.968,0.615-3.58,1.958-4.535,3.784L99.741,216.887c-1.082,2.065-2.904,3.585-5.128,4.28
			l-46.697,14.582"/>
		<path style="fill:none;" d="M47.021,231.458l42.667-13.324c1.968-0.614,3.58-1.959,4.537-3.785L164.896,79.5
			c1.083-2.065,2.904-3.585,5.129-4.28c2.225-0.695,4.588-0.481,6.653,0.602l132.655,69.521c1.827,0.958,3.917,1.146,5.885,0.531
			l43.601-13.615c-0.331-0.737-0.671-1.469-1.014-2.199l-39.679,12.39c-2.225,0.695-4.586,0.482-6.652-0.6L174.1,69.853
			c-1.826-0.957-3.917-1.145-5.885-0.531c-1.968,0.615-3.579,1.958-4.536,3.785L90.496,212.748c-1.083,2.064-2.903,3.586-5.127,4.28
			l-38.79,12.113"/>
		<path style="fill:#49BACE;" d="M90.496,212.748l73.183-139.641c0.957-1.827,2.568-3.17,4.536-3.785
			c1.968-0.614,4.059-0.426,5.885,0.531l137.374,71.995c2.065,1.082,4.427,1.296,6.652,0.6l39.679-12.39
			c-0.146-0.308-0.29-0.615-0.438-0.921l-39.542,12.347c-1.968,0.615-4.058,0.427-5.883-0.53L174.567,68.959
			c-2.064-1.082-4.428-1.295-6.653-0.601c-2.225,0.695-4.047,2.215-5.129,4.28L89.602,212.28c-0.956,1.826-2.568,3.171-4.534,3.785
			l-38.662,12.073c0.057,0.335,0.114,0.668,0.173,1.004l38.79-12.113C87.593,216.334,89.413,214.813,90.496,212.748z"/>
		<path style="fill:#49BACE;" d="M314.551,136.565L174.693,63.27l-1.362,0.426l140.751,73.763c2.065,1.083,4.429,1.296,6.653,0.602
			l35.576-11.109c-0.152-0.306-0.307-0.609-0.461-0.913l-35.416,11.059C318.466,137.712,316.376,137.524,314.551,136.565z"/>
		<path style="fill:#49BACE;" d="M324.984,119.012L202.219,54.675l-1.361,0.425l123.658,64.806c2.066,1.083,4.429,1.296,6.652,0.602
			l18.442-5.759c-0.18-0.296-0.355-0.596-0.537-0.89l-18.207,5.685C328.9,120.158,326.81,119.97,324.984,119.012z"/>
		<path style="fill:#49BACE;" d="M67.388,202.399l66.184-126.288l-1.363,0.426L66.493,201.93c-0.958,1.826-2.569,3.172-4.537,3.786
			l-17.585,5.491c0.024,0.346,0.041,0.69,0.066,1.037l17.82-5.565C64.483,205.984,66.305,204.464,67.388,202.399z"/>
		<path style="fill:#49BACE;" d="M317.16,132.177L181.576,61.121l-1.363,0.425l136.48,71.525c2.065,1.083,4.425,1.295,6.652,0.6
			l31.406-9.807c-0.159-0.304-0.325-0.602-0.486-0.905l-31.222,9.749C321.075,133.324,318.986,133.134,317.16,132.177z"/>
		<path style="fill:#49BACE;" d="M319.768,127.788L188.457,58.972l-1.363,0.425l132.205,69.286c2.064,1.082,4.428,1.295,6.653,0.6
			l27.158-8.481c-0.167-0.302-0.333-0.602-0.5-0.901l-26.959,8.418C323.683,128.935,321.594,128.746,319.768,127.788z"/>
		<path style="fill:#49BACE;" d="M322.375,123.401L195.338,56.824l-1.362,0.425l127.931,67.046c2.065,1.082,4.428,1.296,6.654,0.601
			l22.834-7.13c-0.172-0.297-0.337-0.602-0.511-0.898l-22.624,7.065C326.291,124.546,324.202,124.359,322.375,123.401z"/>
		<path style="fill:#49BACE;" d="M72.009,204.468l68.386-130.487l-1.362,0.425L71.115,204.001c-0.957,1.826-2.569,3.169-4.536,3.783
			l-21.938,6.851c0.031,0.343,0.059,0.687,0.091,1.029l22.147-6.916C69.104,208.054,70.926,206.534,72.009,204.468z"/>
		<path style="fill:#49BACE;" d="M99.741,216.887l68.162-130.058c0.955-1.826,2.567-3.169,4.535-3.784
			c1.968-0.614,4.057-0.426,5.884,0.53l127.936,67.049c2.064,1.082,4.428,1.295,6.654,0.601l47.68-14.889
			c-0.13-0.311-0.253-0.627-0.386-0.938l-47.595,14.862c-1.969,0.614-4.059,0.426-5.884-0.531L178.789,82.682
			c-2.065-1.082-4.427-1.295-6.653-0.6c-2.225,0.695-4.048,2.215-5.13,4.28l-68.16,130.058c-0.956,1.827-2.568,3.169-4.536,3.784
			l-46.61,14.555c0.07,0.331,0.142,0.662,0.214,0.991l46.697-14.582C96.837,220.473,98.658,218.952,99.741,216.887z"/>
		<path style="fill:#49BACE;" d="M95.118,214.818l70.673-134.849c0.956-1.828,2.567-3.17,4.535-3.785
			c1.968-0.614,4.057-0.426,5.884,0.532l132.655,69.521c2.066,1.083,4.428,1.296,6.654,0.602l43.711-13.65
			c-0.137-0.311-0.271-0.622-0.412-0.93l-43.601,13.615c-1.968,0.615-4.058,0.427-5.885-0.531L176.678,75.821
			c-2.065-1.083-4.428-1.296-6.653-0.602c-2.225,0.695-4.046,2.215-5.129,4.28l-70.671,134.85c-0.957,1.826-2.569,3.171-4.537,3.785
			l-42.667,13.324c0.064,0.332,0.124,0.664,0.192,0.997l42.776-13.357C92.214,218.403,94.036,216.883,95.118,214.818z"/>
		<path style="fill:#49BACE;" d="M104.363,218.957l65.65-125.266c0.956-1.826,2.568-3.171,4.536-3.785
			c1.968-0.615,4.057-0.426,5.883,0.531l123.218,64.574c2.064,1.082,4.427,1.296,6.652,0.601l51.586-16.108
			c-0.124-0.314-0.25-0.626-0.377-0.939l-51.509,16.085c-1.968,0.615-4.059,0.426-5.884-0.531L180.901,89.543
			c-4.262-2.234-9.549-0.585-11.783,3.68l-65.65,125.266c-0.955,1.827-2.567,3.17-4.536,3.785l-50.494,15.768
			c0.08,0.328,0.162,0.655,0.241,0.982l50.553-15.786C101.458,222.542,103.281,221.022,104.363,218.957z"/>
		<path style="fill:#49BACE;" d="M76.63,206.539L147.219,71.85l-1.363,0.425l-70.12,133.794c-0.957,1.827-2.567,3.17-4.537,3.785
			l-26.22,8.188c0.038,0.341,0.077,0.682,0.117,1.023l26.404-8.246C73.726,210.124,75.548,208.604,76.63,206.539z"/>
		<path style="fill:#49BACE;" d="M81.252,208.607l72.789-138.888l-1.363,0.426L80.358,208.14c-0.956,1.826-2.568,3.171-4.535,3.786
			l-30.438,9.505c0.044,0.337,0.096,0.675,0.141,1.014l30.598-9.555C78.35,212.194,80.171,210.673,81.252,208.607z"/>
		<path style="fill:#49BACE;" d="M85.874,210.678l74.992-143.09l-1.363,0.426L84.98,210.211c-0.958,1.826-2.567,3.169-4.535,3.785
			l-34.59,10.801c0.05,0.335,0.113,0.67,0.165,1.005l34.726-10.843C82.971,214.263,84.792,212.744,85.874,210.678z"/>
	</g>
	<g>
		<circle style="fill:#49BACE;" cx="88.789" cy="267.4" r="1.883"/>
	</g>
	<g>
		<circle style="fill:#49BACE;" cx="94.19" cy="265.714" r="1.882"/>
	</g>
	<g>
		<circle style="fill:#49BACE;" cx="99.593" cy="264.026" r="1.883"/>
	</g>
	<g>
		<circle style="fill:#49BACE;" cx="103.372" cy="258.219" r="1.883"/>
	</g>
	<g>
		<circle style="fill:#49BACE;" cx="106.961" cy="251.368" r="1.883"/>
	</g>
	<g>
		<circle style="fill:#49BACE;" cx="110.622" cy="244.226" r="1.883"/>
	</g>
	<g>
		<circle style="fill:#49BACE;" cx="114.692" cy="236.586" r="1.884"/>
	</g>
	<g>
		<circle style="fill:#49BACE;" cx="119.104" cy="228.278" r="1.883"/>
	</g>
	<g>
		<circle style="fill:#49BACE;" cx="124.033" cy="218.895" r="1.882"/>
	</g>
	<g>
		<circle style="fill:#49BACE;" cx="129.963" cy="207.41" r="1.883"/>
	</g>
	<g>
		<g>
			<circle style="fill:#49BACE;" cx="349.455" cy="184.031" r="1.884"/>
		</g>
		<g>
			<circle style="fill:#49BACE;" cx="344.051" cy="185.718" r="1.883"/>
		</g>
		<g>
			<circle style="fill:#49BACE;" cx="338.65" cy="187.405" r="1.883"/>
		</g>
		<g>
			<circle style="fill:#49BACE;" cx="333.151" cy="189.122" r="1.883"/>
		</g>
		<g>
			<circle style="fill:#49BACE;" cx="326.695" cy="185.761" r="1.882"/>
		</g>
		<g>
			<circle style="fill:#49BACE;" cx="320.044" cy="183.001" r="1.883"/>
		</g>
		<g>
			<circle style="fill:#49BACE;" cx="312.923" cy="179.112" r="1.882"/>
		</g>
		<g>
			<circle style="fill:#49BACE;" cx="304.79" cy="174.922" r="1.882"/>
		</g>
		<g>
			<circle style="fill:#49BACE;" cx="296.363" cy="170.487" r="1.883"/>
		</g>
		<g>
			<circle style="fill:#49BACE;" cx="286.172" cy="165.184" r="1.883"/>
		</g>
		<g>
			<circle style="fill:#49BACE;" cx="272.533" cy="158.092" r="1.883"/>
		</g>
	</g>
	<g>
		<circle style="fill:#49BACE;" cx="208.91" cy="243.459" r="1.882"/>
	</g>
	<g>
		<circle style="fill:#49BACE;" cx="214.695" cy="261.985" r="1.882"/>
	</g>
	<g>
		<circle style="fill:#49BACE;" cx="213.695" cy="241.964" r="1.884"/>
	</g>
	<g>
		<circle style="fill:#49BACE;" cx="218.158" cy="256.256" r="1.884"/>
	</g>
	<g>
		<circle style="fill:#49BACE;" cx="218.515" cy="240.46" r="1.883"/>
	</g>
	<g>
		<circle style="fill:#49BACE;" cx="223.671" cy="238.85" r="1.882"/>
	</g>
	<g>
		<circle style="fill:#49BACE;" cx="222.118" cy="268.935" r="1.884"/>
	</g>
	<g>
		<circle style="fill:#49BACE;" cx="237.034" cy="266.25" r="1.882"/>
	</g>
	<g>
		<circle style="fill:#49BACE;" cx="240.407" cy="260.234" r="1.883"/>
	</g>
	<g>
		<circle style="fill:#49BACE;" cx="228.05" cy="237.482" r="1.882"/>
	</g>
	<g>
		<circle style="fill:#49BACE;" cx="233.064" cy="253.54" r="1.882"/>
	</g>
	<g>
		<circle style="fill:#49BACE;" cx="232.836" cy="235.987" r="1.883"/>
	</g>
	<g>
		<circle style="fill:#49BACE;" cx="222.774" cy="287.857" r="1.882"/>
	</g>
	<g>
		<circle style="fill:#49BACE;" cx="227.56" cy="286.363" r="1.884"/>
	</g>
	<g>
		<circle style="fill:#49BACE;" cx="232.38" cy="284.858" r="1.883"/>
	</g>
	<g>
		<circle style="fill:#49BACE;" cx="237.535" cy="283.248" r="1.882"/>
	</g>
	<g>
		<circle style="fill:#49BACE;" cx="241.914" cy="281.88" r="1.882"/>
	</g>
	<g>
		<circle style="fill:#49BACE;" cx="246.7" cy="280.386" r="1.884"/>
	</g>
	<g>
		<path style="fill:none;stroke:#49BACE;stroke-miterlimit:10;" d="M225.448,262.659"/>
	</g>
	<g>
		<circle style="fill:#49BACE;" cx="195.195" cy="199.54" r="1.882"/>
	</g>
	<g>
		<circle style="fill:#49BACE;" cx="186.604" cy="172.029" r="1.882"/>
	</g>
	<g>
		<circle style="fill:#49BACE;" cx="199.981" cy="198.046" r="1.883"/>
	</g>
	<g>
		<circle style="fill:#49BACE;" cx="194.194" cy="179.513" r="1.884"/>
	</g>
	<g>
		<circle style="fill:#49BACE;" cx="189.984" cy="166.03" r="1.884"/>
	</g>
	<g>
		<circle style="fill:#49BACE;" cx="164.874" cy="150.412" r="1.883"/>
	</g>
	<g>
		<circle style="fill:#49BACE;" cx="167.234" cy="143.86" r="1.883"/>
	</g>
	<g>
		<circle style="fill:#49BACE;" cx="210.653" cy="130.302" r="1.883"/>
	</g>
	<g>
		<circle style="fill:#49BACE;" cx="217.073" cy="134.112" r="1.882"/>
	</g>
	<g>
		<circle style="fill:#49BACE;" cx="204.801" cy="196.541" r="1.883"/>
	</g>
	<g>
		<circle style="fill:#49BACE;" cx="209.956" cy="194.931" r="1.882"/>
	</g>
	<g>
		<circle style="fill:#49BACE;" cx="214.336" cy="193.563" r="1.882"/>
	</g>
	<g>
		<circle style="fill:#49BACE;" cx="209.004" cy="176.488" r="1.882"/>
	</g>
	<g>
		<circle style="fill:#49BACE;" cx="204.925" cy="163.426" r="1.882"/>
	</g>
	<g>
		<circle style="fill:#49BACE;" cx="219.121" cy="192.069" r="1.884"/>
	</g>
	<g>
		<circle style="fill:#49BACE;" cx="212.43" cy="170.64" r="1.884"/>
	</g>
	<g>
		<path style="fill:none;stroke:#49BACE;stroke-miterlimit:10;" d="M197.43,172.934"/>
	</g>
	<g>
		<polygon style="fill:#49BACE;" points="211.753,142.554 228.395,195.849 188.917,208.176 172.275,154.882 133.784,166.901 
			176.407,303.393 214.897,291.374 198.256,238.079 237.733,225.752 254.375,279.046 292.866,267.027 250.243,130.535 		"/>
	</g>
	<circle style="fill:none;stroke:#49BACE;stroke-miterlimit:10;" cx="214.153" cy="214.034" r="213.359"/>
	<g>
		<path style="fill:#49BACE;" d="M59.929,147.736l-0.578,1.433l-10.519-4.244l-3.011,7.462l10.519,4.245l-0.578,1.435l-21.391-8.633
			l0.578-1.434l9.497,3.832l3.01-7.461l-9.495-3.833l0.578-1.434L59.929,147.736z"/>
		<path style="fill:#49BACE;" d="M48.972,118.13c1.093-1.858,2.808-2.748,5.142-2.666c2.334,0.057,5.145,1.051,8.428,2.988
			c3.287,1.934,5.52,3.913,6.705,5.934c1.182,2.023,1.224,3.969,0.122,5.84c-1.102,1.872-2.829,2.765-5.178,2.682
			c-2.35-0.083-5.164-1.092-8.446-3.024C48.967,125.89,46.708,121.972,48.972,118.13z M61.728,119.837
			c-2.96-1.743-5.403-2.693-7.329-2.852c-1.928-0.157-3.314,0.482-4.161,1.918c-0.847,1.437-0.731,2.966,0.346,4.59
			c1.077,1.622,3.083,3.298,6.02,5.028c2.935,1.73,5.378,2.671,7.327,2.824c1.95,0.152,3.34-0.482,4.18-1.905
			c0.837-1.423,0.723-2.944-0.343-4.561C66.7,123.26,64.687,121.58,61.728,119.837z"/>
		<path style="fill:#49BACE;" d="M90.917,100.395l-0.995,1.185L77.147,90.862c-0.581-0.486-1.643-1.447-3.186-2.879l-0.082,0.096
			l12.14,18.154l-1.125,1.342l-20.033-8.794l-0.082,0.096c1.679,1.271,2.786,2.131,3.317,2.577l12.874,10.799l-0.955,1.136
			L62.345,98.562l1.469-1.751l16.84,7.372c1.483,0.654,2.692,1.276,3.625,1.866l0.08-0.096c-0.579-0.65-1.377-1.746-2.393-3.285
			L71.725,87.383l1.521-1.813L90.917,100.395z"/>
		<path style="fill:#49BACE;" d="M93.12,68.841l-5.131,4.488l5.764,6.591l4.845-4.237l0.977,1.116l-4.846,4.237l6.491,7.422
			l5.13-4.486l0.977,1.116l-6.294,5.504L85.849,73.229l6.295-5.505L93.12,68.841z"/>
		<path style="fill:#49BACE;" d="M118.32,74.994l5.386-3.642l0.83,1.229l-6.665,4.508l-12.92-19.11l1.282-0.865L118.32,74.994z"/>
		<path style="fill:#49BACE;" d="M132.882,43.351l-6.074,3.091l3.969,7.805l5.737-2.919l0.672,1.323l-5.737,2.919l4.471,8.788
			l6.074-3.09l0.673,1.322l-7.452,3.793l-10.459-20.56l7.454-3.792L132.882,43.351z"/>
		<path style="fill:#49BACE;" d="M166.263,53.411l-1.864,0.641l-14.972-16.727l-0.119,0.041c0.586,1.322,1.093,2.605,1.521,3.849
			l5.379,15.651l-1.433,0.493l-7.496-21.814l1.895-0.651l14.836,16.523l0.089-0.032c-0.674-1.704-1.182-3.053-1.523-4.046
			l-5.241-15.25l1.432-0.492L166.263,53.411z"/>
		<path style="fill:#49BACE;" d="M175.705,27.193l4.127-0.765c2.337-0.433,4.284,0.183,5.839,1.847
			c1.554,1.664,2.669,4.316,3.344,7.956c1.428,7.706-0.262,12.003-5.072,12.895l-4.032,0.748L175.705,27.193z M177.485,28.307
			l3.687,19.888l2.42-0.448c3.805-0.706,5.087-4.416,3.842-11.128c-0.594-3.204-1.52-5.556-2.775-7.05
			c-1.256-1.494-2.798-2.072-4.629-1.733L177.485,28.307z"/>
		<path style="fill:#49BACE;" d="M229.187,24.85l-4.588-0.188l-0.88,21.566l-1.545-0.063l0.881-21.565l-4.587-0.188l0.061-1.482
			l10.719,0.436L229.187,24.85z"/>
		<path style="fill:#49BACE;" d="M250.094,25.686c2.123,0.379,3.552,1.678,4.289,3.892c0.758,2.209,0.802,5.191,0.131,8.943
			c-0.673,3.753-1.752,6.536-3.235,8.349c-1.485,1.813-3.295,2.528-5.433,2.145c-2.139-0.382-3.576-1.691-4.315-3.921
			c-0.739-2.234-0.771-5.222-0.101-8.97C242.818,28.379,245.705,24.899,250.094,25.686z M252.929,38.238
			c0.604-3.381,0.647-6.002,0.126-7.863c-0.523-1.863-1.604-2.941-3.245-3.233c-1.641-0.294-3.036,0.346-4.182,1.92
			c-1.148,1.574-2.021,4.038-2.623,7.392c-0.601,3.355-0.633,5.972-0.098,7.852c0.532,1.881,1.613,2.966,3.24,3.256
			c1.625,0.292,3.01-0.345,4.156-1.909C251.448,44.091,252.324,41.619,252.929,38.238z"/>
		<path style="fill:#49BACE;" d="M266.874,53.828l-1.47-0.483l7.211-21.91l1.468,0.483l-3.816,11.599
			c0.825-0.79,4.255-3.947,10.292-9.469l1.604,0.527l-8.672,7.826l1.88,14.223l-1.648-0.544l-1.56-12.621l-2.429,1.677
			L266.874,53.828z"/>
		<path style="fill:#49BACE;" d="M303.004,45.276l-6.15-2.937l-3.775,7.901l5.808,2.774l-0.639,1.338l-5.81-2.774l-4.25,8.897
			l6.15,2.938l-0.639,1.338l-7.546-3.605l9.941-20.813l7.548,3.605L303.004,45.276z"/>
		<path style="fill:#49BACE;" d="M315.341,77.869l-1.643-1.089l4.149-22.062l-0.106-0.071c-0.691,1.272-1.4,2.455-2.126,3.553
			l-9.139,13.797l-1.262-0.837l12.738-19.229l1.67,1.106l-4.071,21.829l0.079,0.053c0.941-1.573,1.701-2.797,2.283-3.675
			l8.903-13.442l1.264,0.836L315.341,77.869z"/>
	</g>
	<g>
		<path style="fill:#49BACE;" d="M91.392,365.676l-1.143-1.042l11.234-12.325c0.51-0.559,1.513-1.582,3.007-3.065l-0.093-0.086
			l-18.637,11.384l-1.294-1.181l9.609-19.654l-0.092-0.085c-1.34,1.625-2.244,2.695-2.711,3.208L79.953,355.25l-1.097-0.999
			l15.538-17.047l1.691,1.541l-8.058,16.522c-0.714,1.456-1.385,2.637-2.012,3.544l0.093,0.085c0.674-0.552,1.8-1.304,3.379-2.255
			l15.693-9.605l1.749,1.594L91.392,365.676z"/>
		<path style="fill:#49BACE;" d="M122.816,359.619c1.807,1.176,2.62,2.929,2.432,5.255c-0.161,2.329-1.282,5.093-3.362,8.288
			c-2.081,3.195-4.158,5.339-6.23,6.43c-2.073,1.092-4.02,1.044-5.839-0.141c-1.821-1.185-2.636-2.949-2.447-5.293
			c0.19-2.343,1.323-5.109,3.4-8.301C115.063,359.265,119.079,357.185,122.816,359.619z M120.537,372.284
			c1.874-2.877,2.932-5.276,3.18-7.195c0.242-1.918-0.333-3.331-1.731-4.24c-1.396-0.911-2.928-0.864-4.598,0.139
			c-1.671,1.001-3.435,2.93-5.295,5.786c-1.859,2.857-2.91,5.254-3.15,7.194c-0.24,1.94,0.331,3.36,1.717,4.263
			c1.383,0.901,2.906,0.854,4.571-0.141C116.895,377.097,118.663,375.161,120.537,372.284z"/>
		<path style="fill:#49BACE;" d="M139.488,369.62l2.857,1.339c2.018,0.948,3.279,2.121,3.785,3.521
			c0.506,1.399,0.306,3.065-0.602,4.998c-0.695,1.485-1.524,2.564-2.485,3.233c-0.959,0.671-2.136,0.958-3.531,0.861l-0.296,11.399
			l-1.572-0.738l0.385-10.956l-2.658-1.246l-4.283,9.127l-1.398-0.657L139.488,369.62z M140.245,371.648l-4.27,9.099l1.958,0.918
			c1.275,0.599,2.438,0.664,3.487,0.198c1.05-0.466,1.939-1.473,2.664-3.02c0.725-1.547,0.905-2.835,0.539-3.86
			c-0.367-1.027-1.307-1.894-2.821-2.605L140.245,371.648z"/>
		<path style="fill:#49BACE;" d="M167.725,382.329l-4.364-1.425l-6.696,20.519l-1.471-0.479l6.699-20.519L157.527,379l0.46-1.409
			l10.198,3.33L167.725,382.329z"/>
		<path style="fill:#49BACE;" d="M189.606,397.323l-1.983,10.736c-1.861,0.352-3.719,0.356-5.57,0.015
			c-2.472-0.457-4.199-1.845-5.183-4.166c-0.983-2.321-1.134-5.32-0.456-8.996c0.679-3.677,1.91-6.401,3.691-8.168
			c1.78-1.767,3.954-2.414,6.519-1.941c1.727,0.32,3.257,1.104,4.589,2.355l-0.978,1.2c-1.249-1.172-2.539-1.881-3.874-2.127
			c-2.11-0.39-3.874,0.183-5.292,1.718c-1.417,1.535-2.428,3.949-3.038,7.245c-0.608,3.293-0.53,5.932,0.238,7.913
			c0.769,1.981,2.165,3.159,4.192,3.535c1.46,0.27,2.73,0.305,3.815,0.11l1.524-8.254l-3.428-0.634l0.269-1.459L189.606,397.323z"/>
		<path style="fill:#49BACE;" d="M213.771,410.85l-1.575-0.071l-1.661-8.444l-5.594-0.25l-2.377,8.263l-1.607-0.072l6.579-22.795
			l1.591,0.071L213.771,410.85z M210.243,400.758l-1.649-8.681c-0.183-1.093-0.306-2.014-0.367-2.763
			c-0.137,0.951-0.325,1.859-0.564,2.721l-2.354,8.502L210.243,400.758z"/>
		<path style="fill:#49BACE;" d="M239.568,397.706l1.021,10.869c-1.695,0.848-3.48,1.358-5.355,1.534
			c-2.502,0.235-4.543-0.629-6.123-2.593c-1.579-1.964-2.543-4.808-2.892-8.531c-0.351-3.722,0.089-6.677,1.32-8.863
			c1.231-2.187,3.146-3.402,5.743-3.646c1.748-0.165,3.434,0.174,5.054,1.014l-0.61,1.419c-1.521-0.787-2.958-1.115-4.309-0.989
			c-2.136,0.202-3.676,1.234-4.621,3.098c-0.944,1.863-1.26,4.463-0.946,7.798c0.315,3.336,1.111,5.852,2.391,7.548
			c1.279,1.697,2.945,2.449,4.997,2.255c1.477-0.138,2.709-0.448,3.7-0.933l-0.786-8.357l-3.473,0.326l-0.139-1.477L239.568,397.706
			z"/>
		<path style="fill:#49BACE;" d="M259.693,383.569l-6.635,1.554l1.997,8.525l6.267-1.468l0.338,1.444l-6.267,1.467l2.248,9.602
			l6.636-1.554l0.339,1.444l-8.142,1.907l-5.26-22.46l8.143-1.906L259.693,383.569z"/>
		<path style="fill:#49BACE;" d="M297.805,391.367c1.064-0.499,1.752-1.317,2.056-2.448c0.304-1.132,0.176-2.297-0.389-3.496
			c-0.564-1.2-1.25-2.025-2.062-2.475c-0.81-0.449-2.052-0.688-3.727-0.715c-1.346-0.042-2.4-0.19-3.165-0.446
			c-0.765-0.257-1.435-0.659-2.007-1.21c-0.573-0.55-1.082-1.301-1.53-2.252c-0.026-0.058-0.054-0.114-0.081-0.173
			c-0.674-1.436-0.779-2.864-0.313-4.28c0.466-1.416,1.366-2.438,2.699-3.064c0.019-0.01,0.043-0.021,0.071-0.034
			c1.466-0.689,2.856-0.994,4.173-0.916l0.089,1.597c-1.313-0.045-2.5,0.182-3.561,0.681c-1.06,0.499-1.749,1.249-2.062,2.25
			c-0.314,1.002-0.196,2.087,0.353,3.252c0.547,1.167,1.207,1.957,1.978,2.372c0.771,0.417,2,0.661,3.681,0.728
			c1.732,0.023,3.138,0.341,4.224,0.952c1.083,0.612,1.935,1.576,2.552,2.889c0.806,1.713,0.983,3.328,0.533,4.841
			c-0.465,1.508-1.425,2.605-2.883,3.289c-1.665,0.784-3.117,1.17-4.354,1.158l-0.711-1.514c0.665,0.036,1.399-0.039,2.197-0.222
			C296.363,391.95,297.109,391.695,297.805,391.367z"/>
		<path style="fill:#49BACE;" d="M309.255,359.649c1.807-1.177,3.738-1.209,5.791-0.098c2.064,1.091,4.138,3.234,6.216,6.431
			c2.079,3.196,3.199,5.962,3.359,8.299c0.158,2.338-0.672,4.098-2.493,5.283c-1.82,1.185-3.763,1.216-5.831,0.095
			c-2.065-1.121-4.137-3.277-6.214-6.468C305.793,366.595,305.517,362.081,309.255,359.649z M319.916,366.859
			c-1.874-2.878-3.639-4.817-5.292-5.817c-1.656-1-3.181-1.045-4.578-0.137c-1.399,0.91-1.977,2.332-1.734,4.262
			c0.24,1.934,1.29,4.329,3.149,7.185c1.857,2.856,3.623,4.787,5.302,5.792c1.677,1.005,3.206,1.057,4.591,0.156
			c1.383-0.9,1.958-2.312,1.723-4.238C322.841,372.139,321.786,369.738,319.916,366.859z"/>
		<path style="fill:#49BACE;" d="M340.395,363.748l4.929-4.238l0.967,1.124l-6.1,5.248l-15.04-17.489l1.17-1.009L340.395,363.748z"
			/>
		<path style="fill:#49BACE;" d="M347.136,326.596l11.605,10.384c3.881,3.471,4.58,6.594,2.097,9.37
			c-1.24,1.386-2.687,1.997-4.339,1.833c-1.651-0.165-3.419-1.09-5.299-2.773l-11.607-10.383l1.042-1.164l11.746,10.508
			c1.483,1.327,2.855,2.07,4.12,2.235c1.264,0.165,2.34-0.249,3.228-1.24c0.887-0.992,1.168-2.091,0.845-3.299
			c-0.325-1.209-1.247-2.491-2.768-3.851l-11.7-10.468L347.136,326.596z"/>
		<path style="fill:#49BACE;" d="M361.318,309.754l-2.593,3.789l17.81,12.19l-0.872,1.278l-17.813-12.192l-2.591,3.788l-1.226-0.836
			l6.061-8.853L361.318,309.754z"/>
		<path style="fill:#49BACE;" d="M387.007,308.443l-0.737,1.359l-20.277-10.992l0.735-1.359L387.007,308.443z"/>
		<path style="fill:#49BACE;" d="M374.72,279.465c0.796-2.004,2.353-3.146,4.671-3.426c2.313-0.303,5.244,0.25,8.788,1.656
			c3.544,1.407,6.056,3.018,7.535,4.833c1.481,1.816,1.82,3.733,1.019,5.751c-0.802,2.02-2.37,3.169-4.703,3.447
			c-2.335,0.278-5.271-0.285-8.81-1.69C375.908,287.134,373.073,283.609,374.72,279.465z M387.584,279.192
			c-3.19-1.267-5.752-1.831-7.68-1.692c-1.928,0.141-3.199,0.985-3.816,2.536c-0.614,1.548-0.265,3.043,1.048,4.48
			c1.314,1.439,3.554,2.786,6.72,4.044c3.167,1.258,5.726,1.813,7.675,1.663c1.95-0.147,3.229-0.99,3.837-2.524
			c0.61-1.536,0.262-3.021-1.041-4.453C393.024,281.809,390.777,280.459,387.584,279.192z"/>
		<path style="fill:#49BACE;" d="M406.469,254.662l-0.449,1.921l-22.125,3.792l-0.028,0.124c1.431,0.204,2.787,0.455,4.068,0.756
			l16.117,3.762l-0.345,1.476l-22.461-5.245l0.455-1.952l21.883-3.787l0.02-0.091c-1.801-0.333-3.213-0.621-4.237-0.861
			l-15.704-3.665l0.345-1.475L406.469,254.662z"/>
	</g>
</g>
</svg>
