<?xml version="1.0" encoding="iso-8859-1"?>
<!-- Generator: Adobe Illustrator 17.1.0, SVG Export Plug-In . SVG Version: 6.00 Build 0)  -->
<!DOCTYPE svg PUBLIC "-//W3C//DTD SVG 1.1//EN" "http://www.w3.org/Graphics/SVG/1.1/DTD/svg11.dtd">
<svg version="1.1" id="&#x421;&#x43B;&#x43E;&#x439;_1"
	 xmlns="http://www.w3.org/2000/svg" xmlns:xlink="http://www.w3.org/1999/xlink" x="0px" y="0px" viewBox="0 0 165.688 36.62"
	 style="enable-background:new 0 0 165.688 36.62;" xml:space="preserve">
<g>
	
		<path style="fill:#4BBBCF;stroke:#4BBBCF;stroke-width:0.75;stroke-linecap:round;stroke-linejoin:round;stroke-miterlimit:1.5;" d="
		M0.361,0.333L0.4,36.26l15.213,0.024l-0.018-15.256L6.429,21.09L29.363,5.537l6.136,4.881L35.5,0.417L0.361,0.333L0.361,0.333z"/>
	<g>
		<path style="fill:#363B4E;" d="M36.31,35.518h-4.207v-7.62h-7.709v7.62h-4.193V16.805h4.193v7.463h7.709v-7.463h4.207V35.518z"/>
		<path style="fill:#363B4E;" d="M48.434,35.845c-2.667,0-4.837-0.873-6.516-2.618c-1.68-1.744-2.518-4.018-2.518-6.818
			c0-2.958,0.852-5.351,2.557-7.178c1.704-1.827,3.964-2.741,6.775-2.741c2.656,0,4.805,0.875,6.445,2.624
			c1.64,1.748,2.459,4.054,2.459,6.916c0,2.94-0.85,5.311-2.551,7.112C53.385,34.943,51.168,35.845,48.434,35.845L48.434,35.845z
			 M48.617,20.118c-1.473,0-2.641,0.555-3.507,1.664c-0.864,1.109-1.298,2.578-1.298,4.405c0,1.854,0.434,3.319,1.298,4.397
			c0.866,1.079,2,1.619,3.401,1.619c1.445,0,2.592-0.525,3.439-1.573c0.85-1.049,1.271-2.502,1.271-4.365
			c0-1.94-0.409-3.45-1.232-4.528C51.168,20.658,50.043,20.118,48.617,20.118L48.617,20.118z"/>
		<path style="fill:#363B4E;" d="M81.935,35.518h-4.139V24.321c0-1.209,0.05-2.545,0.155-4.006h-0.105
			c-0.214,1.149-0.41,1.974-0.584,2.478l-4.361,12.724h-3.427l-4.439-12.592c-0.122-0.341-0.317-1.209-0.584-2.61h-0.116
			c0.111,1.844,0.168,3.461,0.168,4.854v10.348h-3.777V16.805h6.14l3.804,11.093c0.302,0.886,0.523,1.778,0.662,2.673h0.077
			c0.233-1.034,0.479-1.934,0.74-2.701l3.804-11.065h5.982V35.518L81.935,35.518z"/>
		<path style="fill:#363B4E;" d="M97.332,35.518H86.168V16.805h10.735v3.431h-6.542v4.163h6.088v3.419h-6.088v4.28h6.971V35.518z"/>
		<path style="fill:#363B4E;" d="M111.402,35.518h-11.085V16.805h4.192v15.293h6.893V35.518z"/>
		<path style="fill:#363B4E;" d="M125.071,35.518h-11.163V16.805h10.734v3.431h-6.541v4.163h6.088v3.419h-6.088v4.28h6.97V35.518z"
			/>
		<path style="fill:#363B4E;" d="M144.802,35.518h-4.232l-7.672-11.759c-0.449-0.687-0.762-1.205-0.934-1.552h-0.052
			c0.069,0.661,0.104,1.669,0.104,3.027v10.283h-3.96V16.805h4.518l7.387,11.392c0.336,0.513,0.649,1.023,0.934,1.526h0.052
			c-0.069-0.435-0.105-1.291-0.105-2.571V16.805h3.961V35.518L144.802,35.518z"/>
		<path style="fill:#363B4E;" d="M149.06,35.518V16.805h6.594c6.611,0,9.916,3.04,9.916,9.121c0,2.916-0.901,5.243-2.705,6.982
			c-1.805,1.739-4.209,2.61-7.211,2.61H149.06L149.06,35.518z M153.251,20.236v11.862h2.078c1.816,0,3.242-0.548,4.277-1.645
			c1.033-1.095,1.55-2.587,1.55-4.475c0-1.784-0.513-3.187-1.536-4.21c-1.027-1.022-2.465-1.533-4.318-1.533H153.251L153.251,20.236
			z"/>
	</g>
</g>
<g>
</g>
<g>
</g>
<g>
</g>
<g>
</g>
<g>
</g>
<g>
</g>
</svg>
