<?xml version="1.0" encoding="iso-8859-1"?>
<!-- Generator: Adobe Illustrator 17.1.0, SVG Export Plug-In . SVG Version: 6.00 Build 0)  -->
<!DOCTYPE svg PUBLIC "-//W3C//DTD SVG 1.1//EN" "http://www.w3.org/Graphics/SVG/1.1/DTD/svg11.dtd">
<svg version="1.1" id="&#x421;&#x43B;&#x43E;&#x439;_1"
	 xmlns="http://www.w3.org/2000/svg" xmlns:xlink="http://www.w3.org/1999/xlink" x="0px" y="0px" viewBox="0 0 147.497 123.563"
	 style="enable-background:new 0 0 147.497 123.563;" xml:space="preserve">
<g>
	<path style="fill:#fff;" d="M71.263,52.628L71.263,52.628L54.774,25.79L7.13,4.765C5.602,4.034,0,5.179,0,6.87v93.946
		c0,0.908,4.361,1.735,5.189,2.133l45.407,20.372c1.568,0.772,6.446-0.398,6.446-2.133V79.923l44.055,21.725L71.263,52.628z"/>
	<path style="fill:#fff;" d="M101.701,97.538l45.75-75.949c0.095-0.175,0.04-0.601-0.143-0.684L105.664,0.548h-0.015
		l-1.847-0.306c-1.384-0.665-3.048,0.115-3.851,1.436L72.098,47.674L101.701,97.538z"/>
	<path style="fill:#fff;" d="M102.091,102.639l42.12,20.682c1.568,0.772,2.467-0.398,2.467-2.133v-93.44
		C146.678,27.135,102.091,102.639,102.091,102.639z"/>
</g>
</svg>
