<?xml version="1.0" encoding="iso-8859-1"?>
<!-- Generator: Adobe Illustrator 17.1.0, SVG Export Plug-In . SVG Version: 6.00 Build 0)  -->
<!DOCTYPE svg PUBLIC "-//W3C//DTD SVG 1.1//EN" "http://www.w3.org/Graphics/SVG/1.1/DTD/svg11.dtd">
<svg version="1.1" id="&#x421;&#x43B;&#x43E;&#x439;_1"
	 xmlns="http://www.w3.org/2000/svg" xmlns:xlink="http://www.w3.org/1999/xlink" x="0px" y="0px" viewBox="0 0 90.575 76.643"
	 style="enable-background:new 0 0 90.575 76.643;" xml:space="preserve">
<g>
	<path style="fill:#666;" d="M83.173,21.013c0.977-2.94,1.468-5.986,1.468-9.147c0-4.206-0.928-8.166-2.775-11.866
		c-3.882,0-7.308,0.707-10.289,2.126c-2.972,1.412-6.367,3.612-10.182,6.583c-4.783-1.162-9.865-1.738-15.237-1.738
		c-5.876,0-11.489,0.631-16.821,1.901c-3.886-3.047-7.313-5.287-10.285-6.722C16.076,0.716,12.627,0,8.709,0
		C6.858,3.701,5.934,7.661,5.934,11.866c0,3.195,0.486,6.278,1.468,9.256C2.463,26.894,0,34.075,0,42.677
		c0,7.547,1.124,13.555,3.373,18.021c1.196,2.354,2.758,4.442,4.68,6.258c1.923,1.813,4.118,3.284,6.586,4.408
		c2.467,1.129,4.952,2.059,7.46,2.807c2.503,0.741,5.269,1.285,8.299,1.628c3.03,0.346,5.707,0.573,8.031,0.683
		c2.32,0.107,4.895,0.161,7.728,0.161c3.342,0,6.367-0.08,9.089-0.245c2.726-0.161,5.836-0.562,9.338-1.194
		c3.503-0.636,6.581-1.499,9.254-2.586c2.668-1.089,5.225-2.65,7.67-4.68c2.454-2.035,4.368-4.448,5.747-7.239
		c2.213-4.499,3.32-10.51,3.32-18.021C90.575,34.042,88.108,26.818,83.173,21.013z M76.636,60.612
		c-1.155,2.38-2.623,4.25-4.409,5.608c-1.775,1.361-3.989,2.452-6.639,3.264c-2.65,0.819-5.184,0.524-7.616,0.779
		c-2.432,0.254-5.135-0.448-8.112-0.448h-9.147c-2.976,0-5.68,0.703-8.112,0.448c-2.432-0.254-4.971-0.375-7.621-1.189
		c-2.646-0.816-4.859-1.7-6.639-3.061c-1.78-1.361-3.248-3.123-4.413-5.504c-1.16-2.378-1.74-5.109-1.74-8.303
		c0-4.355,1.25-8.032,3.757-11.079c2.503-3.047,5.898-4.558,10.177-4.558c1.557,0,5.1,0.39,10.615,1.147
		c2.579,0.402,5.426,0.6,8.549,0.6c3.119,0,5.97-0.194,8.549-0.596c5.586-0.761,9.124-1.14,10.61-1.14
		c4.283,0,7.674,1.526,10.182,4.578c2.503,3.043,3.748,6.744,3.748,11.099C78.377,55.452,77.801,58.241,76.636,60.612z"/>
	<path style="fill:#666;" d="M31.813,43.657c-1.106-1.234-2.418-1.852-3.944-1.852c-1.526,0-2.842,0.618-3.949,1.852
		c-1.111,1.231-1.887,2.612-2.338,4.136c-0.45,1.526-0.683,3.012-0.683,4.464c0,1.454,0.232,2.94,0.683,4.462
		c0.45,1.526,1.227,2.907,2.338,4.139c1.107,1.236,2.423,1.852,3.949,1.852c1.526,0,2.838-0.616,3.944-1.852
		c1.107-1.231,1.883-2.613,2.338-4.139c0.455-1.521,0.687-3.007,0.687-4.462c0-1.446-0.232-2.938-0.687-4.464
		C33.696,46.269,32.919,44.897,31.813,43.657z"/>
	<path style="fill:#666;" d="M66.651,43.657c-1.106-1.234-2.427-1.852-3.944-1.852c-1.526,0-2.838,0.618-3.944,1.852
		c-1.111,1.231-1.887,2.612-2.342,4.136c-0.45,1.526-0.683,3.012-0.683,4.464c0,1.454,0.232,2.94,0.683,4.462
		c0.455,1.526,1.231,2.907,2.342,4.139c1.107,1.236,2.418,1.852,3.944,1.852c1.517,0,2.838-0.616,3.944-1.852
		c1.107-1.231,1.887-2.613,2.342-4.139c0.455-1.521,0.683-3.007,0.683-4.462c0-1.446-0.228-2.938-0.683-4.464
		C68.538,46.269,67.757,44.897,66.651,43.657z"/>
</g>
</svg>
