<?xml version="1.0" encoding="iso-8859-1"?>
<!-- Generator: Adobe Illustrator 17.1.0, SVG Export Plug-In . SVG Version: 6.00 Build 0)  -->
<!DOCTYPE svg PUBLIC "-//W3C//DTD SVG 1.1//EN" "http://www.w3.org/Graphics/SVG/1.1/DTD/svg11.dtd">
<svg version="1.1" id="&#x421;&#x43B;&#x43E;&#x439;_1"
	 xmlns="http://www.w3.org/2000/svg" xmlns:xlink="http://www.w3.org/1999/xlink" x="0px" y="0px" viewBox="0 0 201.499 178.549"
	 style="enable-background:new 0 0 201.499 178.549;" xml:space="preserve">
<g>
	<path style="fill:#fff;" d="M201.499,80.724c0-13.977-11.331-25.309-25.3-25.309c-7.006,0-13.324,2.859-17.902,7.446
		c-14.151-9.117-32.236-14.93-52.087-15.852c0.009-8.424,3.786-16.275,10.365-21.549c6.597-5.291,15.095-7.276,23.341-5.448
		l1.132,0.261c-0.018,0.278-0.053,0.557-0.053,0.835c0,11.68,9.469,21.131,21.131,21.131c11.662,0,21.131-9.451,21.131-21.131
		C183.258,9.447,173.789,0,162.127,0c-7.502,0-14.064,3.911-17.824,9.816l-2.019-0.452c-11.487-2.563-23.359,0.204-32.54,7.571
		c-9.173,7.358-14.439,18.324-14.456,30.073c-19.843,0.922-37.919,6.736-52.07,15.852c-4.578-4.587-10.904-7.446-17.919-7.446
		C11.331,55.415,0,66.747,0,80.724c0,9.734,5.509,18.172,13.573,22.402c-0.614,3.132-0.927,6.335-0.927,9.59
		c0,36.361,39.441,65.833,88.108,65.833c48.658,0,88.108-29.472,88.108-65.833c0-3.255-0.322-6.457-0.931-9.59
		C195.981,98.896,201.499,90.458,201.499,80.724z M162.127,10.909c5.622,0,10.208,4.587,10.208,10.2
		c0,5.639-4.586,10.217-10.208,10.217c-5.639,0-10.2-4.578-10.2-10.217C151.927,15.496,156.488,10.909,162.127,10.909z
		 M10.922,80.724c0-7.932,6.449-14.394,14.377-14.394c3.403,0,6.518,1.183,8.981,3.167c-7.698,6.614-13.655,14.36-17.358,22.889
		C13.289,89.775,10.922,85.528,10.922,80.724z M156.522,150.521c-14.778,11.035-34.577,17.11-55.768,17.11
		c-21.2,0-41.009-6.074-55.768-17.11c-13.82-10.322-21.427-23.741-21.427-37.806c0-14.046,7.606-27.484,21.427-37.806
		c14.76-11.03,34.568-17.101,55.768-17.101c21.191,0,40.991,6.071,55.768,17.101c13.811,10.322,21.427,23.76,21.427,37.806
		C177.949,126.78,170.334,140.2,156.522,150.521z M184.563,92.386c-3.69-8.529-9.66-16.275-17.345-22.889
		c2.462-1.984,5.579-3.167,8.981-3.167c7.928,0,14.386,6.462,14.386,14.394C190.586,85.528,188.201,89.775,184.563,92.386z"/>
	<g>
		<path style="fill:#fff;" d="M68.57,85.824c6.362,0,11.523,5.152,11.523,11.522c0,6.367-5.161,11.527-11.523,11.527
			c-6.37,0-11.522-5.161-11.522-11.527C57.048,90.976,62.2,85.824,68.57,85.824z"/>
		<path style="fill:#fff;" d="M132.937,85.824c6.362,0,11.505,5.152,11.505,11.522c0,6.367-5.143,11.527-11.505,11.527
			c-6.37,0-11.523-5.161-11.523-11.527C121.414,90.976,126.567,85.824,132.937,85.824z"/>
	</g>
	<path style="fill:#fff;" d="M128.054,125.335c-8.12,7.398-18.65,11.497-29.65,11.497c-12.341,0-23.777-4.987-32.21-14.021
		c-2.053-2.21-5.508-2.332-7.719-0.274c-2.201,2.05-2.323,5.496-0.261,7.706c10.356,11.123,25.013,17.476,40.19,17.476
		c13.733,0,26.857-5.065,37.004-14.312c2.228-2.032,2.385-5.478,0.357-7.698C133.738,123.473,130.282,123.316,128.054,125.335z"/>
</g>
</svg>
