<?xml version="1.0" encoding="iso-8859-1"?>
<!-- Generator: Adobe Illustrator 17.1.0, SVG Export Plug-In . SVG Version: 6.00 Build 0)  -->
<!DOCTYPE svg PUBLIC "-//W3C//DTD SVG 1.1//EN" "http://www.w3.org/Graphics/SVG/1.1/DTD/svg11.dtd">
<svg version="1.1" id="&#x421;&#x43B;&#x43E;&#x439;_1"
	 xmlns="http://www.w3.org/2000/svg" xmlns:xlink="http://www.w3.org/1999/xlink" x="0px" y="0px" viewBox="0 0 119.07 103.669"
	 style="enable-background:new 0 0 119.07 103.669;" xml:space="preserve">
<path style="fill:#fff;" d="M2.096,49.706l27.438,10.241l10.621,34.166c0.679,2.169,3.361,2.986,5.135,1.535l15.291-12.475
	c1.601-1.302,3.887-1.364,5.564-0.152l27.577,20.024c1.899,1.386,4.594,0.347,5.072-1.954L119,3.892
	c0.52-2.508-1.947-4.587-4.33-3.672L2.069,43.664C-0.706,44.731-0.682,48.67,2.096,49.706L2.096,49.706z M38.445,54.501
	l53.622-33.033c0.964-0.586,1.947,0.72,1.13,1.479L48.935,64.09c-1.552,1.441-2.549,3.384-2.834,5.487l-1.517,11.169
	c-0.194,1.483-2.287,1.635-2.703,0.198L36.089,60.57C35.424,58.246,36.394,55.766,38.445,54.501L38.445,54.501z M38.445,54.501"/>
</svg>
