<?xml version="1.0" encoding="iso-8859-1"?>
<!-- Generator: Adobe Illustrator 17.1.0, SVG Export Plug-In . SVG Version: 6.00 Build 0)  -->
<!DOCTYPE svg PUBLIC "-//W3C//DTD SVG 1.1//EN" "http://www.w3.org/Graphics/SVG/1.1/DTD/svg11.dtd">
<svg version="1.1" id="&#x421;&#x43B;&#x43E;&#x439;_1"
	 xmlns="http://www.w3.org/2000/svg" xmlns:xlink="http://www.w3.org/1999/xlink" x="0px" y="0px" viewBox="0 0 208.541 167.138"
	 style="enable-background:new 0 0 208.541 167.138;" xml:space="preserve">
<path style="fill:#666;" d="M208.54,19.845c-7.577,3.269-15.672,5.563-24.402,6.686
	c8.945-5.324,15.825-13.504,19.005-23.453c-8.265,4.87-17.529,8.389-27.269,10.296C168.165,5.109,156.983,0,144.494,0
	c-23.545,0-42.799,18.936-42.799,42.17c0,3.399,0.591,6.555,1.243,9.621C67.275,50.087,35.658,33.331,14.577,7.714
	c-3.633,6.346-5.904,13.492-5.904,21.189c0,14.736,9.809,27.661,21.139,35.125c-7.016-0.119-17.278-2.048-17.278-5.222
	c0,0.222,0,0.341,0,0.567c0,5.456-1.079,10.445,0.851,15.185c5.211,13.265,16.063,23.227,30.453,26.071
	c-3.74,1.028-7.896,1.566-11.858,1.566c-2.725,0-5.71-0.306-8.298-0.874c5.539,16.746,21.161,28.989,39.869,29.432
	c-14.735,11.336-33.149,18.033-53.209,18.033c-3.519,0-6.834-0.227-10.343-0.595c19.038,11.926,41.551,18.948,65.709,18.948
	c66.958,0,107.945-46.348,118.702-94.51c1.93-8.6,2.498-17.085,2.498-25.469c0-1.817,0-3.747,0-5.45
	C198.533,35.692,202.893,28.228,208.54,19.845L208.54,19.845z"/>
</svg>
